<svg width="331" height="201" viewBox="0 0 331 201" fill="none" xmlns="http://www.w3.org/2000/svg">
<rect width="331" height="201" fill="black"/>
<path d="M107.998 97L104.782 87.928H89.8063L86.5423 97H81.8863L94.4623 63.4H100.558L112.846 97H107.998ZM91.2463 83.848H103.342L99.9823 74.344C99.3423 72.488 98.9103 71.112 98.6863 70.216C98.4303 69.128 98.3023 67.928 98.3023 66.616H96.3823C96.3503 67.832 96.1903 69.08 95.9023 70.36C95.6463 71.48 95.2463 72.808 94.7023 74.344L91.2463 83.848ZM118.733 97V63.4H123.053V97H118.733ZM144.969 91.24V76.696H139.449V73.24H144.969V65.8H149.049V73.24H155.529V76.696H149.049V91C149.049 91.832 149.241 92.44 149.625 92.824C150.009 93.208 150.617 93.4 151.449 93.4H156.393V97H150.921C146.953 97 144.969 95.08 144.969 91.24ZM161.219 88.744V73.24H165.299V87.784C165.299 91.976 167.011 94.072 170.435 94.072C172.387 94.072 173.843 93.48 174.803 92.296C175.699 91.208 176.275 89.976 176.531 88.6C176.819 87.192 176.963 85.432 176.963 83.32V73.24H181.043V97H177.155C177.187 95.528 177.907 93.672 179.315 91.432H176.963C175.427 95.592 172.883 97.672 169.331 97.672C166.675 97.672 164.659 96.888 163.283 95.32C161.907 93.752 161.219 91.56 161.219 88.744ZM191.422 91.24V76.696H185.902V73.24H191.422V65.8H195.502V73.24H201.982V76.696H195.502V91C195.502 91.832 195.694 92.44 196.078 92.824C196.462 93.208 197.07 93.4 197.902 93.4H202.846V97H197.374C193.406 97 191.422 95.08 191.422 91.24ZM205.668 85.144C205.668 81.56 206.708 78.568 208.788 76.168C210.9 73.768 213.54 72.568 216.708 72.568C219.876 72.568 222.5 73.768 224.58 76.168C226.692 78.568 227.748 81.56 227.748 85.144C227.748 88.696 226.676 91.672 224.532 94.072C222.42 96.472 219.812 97.672 216.708 97.672C213.636 97.736 211.012 96.536 208.836 94.072C206.66 91.608 205.604 88.632 205.668 85.144ZM223.524 85.192C223.524 82.28 222.9 80.056 221.652 78.52C220.436 76.952 218.788 76.168 216.708 76.168C214.596 76.168 212.932 76.952 211.716 78.52C210.5 80.056 209.892 82.28 209.892 85.192C209.892 88.072 210.5 90.28 211.716 91.816C212.932 93.32 214.596 94.072 216.708 94.072C218.82 94.072 220.484 93.32 221.7 91.816C222.916 90.28 223.524 88.072 223.524 85.192ZM233.93 97V73.24H237.962C237.962 75.064 237.082 77.304 235.322 79.96H237.866C238.506 77.656 239.434 75.912 240.65 74.728C241.898 73.512 243.578 72.904 245.69 72.904C246.554 72.904 247.37 73 248.138 73.192V77.368C247.178 77.208 246.33 77.128 245.594 77.128C240.538 77.128 238.01 80.12 238.01 86.104V97H233.93Z" fill="white"/>
<path d="M57.7632 122L56.5592 118.766H51.8972L50.6932 122H50.2172L53.9412 112.2H54.5012L58.2532 122H57.7632ZM52.0372 118.374H56.4052L54.6412 113.67C54.4826 113.25 54.4032 112.853 54.4032 112.48H54.0392C54.0206 112.872 53.9366 113.269 53.7872 113.67L52.0372 118.374ZM60.1637 113.432V112.2H60.5697V113.432H60.1637ZM60.1637 122V115.14H60.5697L60.5837 122H60.1637ZM67.4645 124.73V115.14H67.8565C67.8565 115.513 67.8425 115.793 67.8145 115.98C67.8051 116.092 67.7585 116.344 67.6745 116.736H68.0105C68.1598 116.241 68.4351 115.826 68.8365 115.49C69.2471 115.145 69.7371 114.972 70.3065 114.972C71.0998 114.972 71.7718 115.285 72.3225 115.91C72.8731 116.535 73.1485 117.422 73.1485 118.57C73.1485 119.718 72.8731 120.605 72.3225 121.23C71.7718 121.855 71.0998 122.168 70.3065 122.168C69.7278 122.168 69.2378 122 68.8365 121.664C68.4351 121.328 68.1598 120.908 68.0105 120.404H67.6885C67.7818 120.759 67.8331 121.001 67.8425 121.132C67.8611 121.356 67.8705 121.58 67.8705 121.804V124.73H67.4645ZM72.0145 120.95C72.4811 120.39 72.7145 119.597 72.7145 118.57C72.7145 117.543 72.4811 116.755 72.0145 116.204C71.5478 115.644 70.9691 115.364 70.2785 115.364C69.5598 115.364 68.9718 115.639 68.5145 116.19C68.0665 116.741 67.8425 117.534 67.8425 118.57C67.8425 119.606 68.0665 120.399 68.5145 120.95C68.9718 121.501 69.5598 121.776 70.2785 121.776C70.9691 121.776 71.5478 121.501 72.0145 120.95ZM74.8615 118.584C74.8615 117.464 75.1742 116.582 75.7995 115.938C76.4248 115.294 77.1575 114.972 77.9975 114.972C78.8375 114.972 79.5702 115.294 80.1955 115.938C80.8208 116.582 81.1335 117.464 81.1335 118.584C81.1335 119.713 80.8208 120.595 80.1955 121.23C79.5795 121.855 78.8468 122.168 77.9975 122.168C77.1482 122.168 76.4108 121.855 75.7855 121.23C75.1695 120.595 74.8615 119.713 74.8615 118.584ZM80.6995 118.584C80.6995 117.604 80.4335 116.825 79.9015 116.246C79.3695 115.658 78.7348 115.364 77.9975 115.364C77.2602 115.364 76.6255 115.658 76.0935 116.246C75.5615 116.825 75.2955 117.604 75.2955 118.584C75.2955 119.573 75.5615 120.353 76.0935 120.922C76.6255 121.491 77.2602 121.776 77.9975 121.776C78.7348 121.776 79.3695 121.491 79.9015 120.922C80.4335 120.353 80.6995 119.573 80.6995 118.584ZM84.9605 122L82.5805 115.14H83.0145L84.5825 119.69C84.9092 120.605 85.0772 121.281 85.0865 121.72H85.4085C85.4552 121.188 85.6138 120.511 85.8845 119.69L87.3405 115.14H87.8165L89.2585 119.69C89.5665 120.698 89.7252 121.375 89.7345 121.72H90.0705C90.1078 121.197 90.2665 120.516 90.5465 119.676L92.1285 115.14H92.5625L90.1825 122H89.5945L88.1385 117.408C87.9985 116.969 87.8958 116.615 87.8305 116.344C87.7932 116.111 87.7652 115.849 87.7465 115.56H87.4105C87.3918 115.887 87.3592 116.157 87.3125 116.372C87.2565 116.633 87.1585 116.979 87.0185 117.408L85.5345 122H84.9605ZM94.0301 118.36C94.0301 117.324 94.3054 116.503 94.8561 115.896C95.4068 115.28 96.0788 114.972 96.8721 114.972C97.7028 114.972 98.3794 115.266 98.9021 115.854C99.4248 116.433 99.6861 117.193 99.6861 118.136C99.6861 118.257 99.6814 118.369 99.6721 118.472H94.4641C94.4641 119.601 94.6881 120.437 95.1361 120.978C95.5934 121.51 96.1814 121.776 96.9001 121.776C97.4788 121.776 97.9734 121.617 98.3841 121.3C98.8041 120.973 99.0888 120.581 99.2381 120.124L99.6301 120.306C99.4714 120.791 99.1494 121.225 98.6641 121.608C98.1788 121.981 97.5908 122.168 96.9001 122.168C96.0041 122.168 95.2994 121.846 94.7861 121.202C94.2821 120.558 94.0301 119.611 94.0301 118.36ZM94.4501 118.094H99.2801C99.2801 117.226 99.0468 116.554 98.5801 116.078C98.1134 115.602 97.5441 115.364 96.8721 115.364C96.1534 115.364 95.5748 115.625 95.1361 116.148C94.7068 116.661 94.4781 117.31 94.4501 118.094ZM101.918 122V115.14H102.31C102.31 115.747 102.249 116.344 102.128 116.932H102.45C102.562 116.372 102.795 115.919 103.15 115.574C103.504 115.229 103.976 115.056 104.564 115.056C104.993 115.056 105.348 115.103 105.628 115.196V115.602C105.245 115.518 104.886 115.476 104.55 115.476C103.803 115.476 103.243 115.803 102.87 116.456C102.496 117.1 102.31 117.903 102.31 118.864V122H101.918ZM106.198 118.36C106.198 117.324 106.473 116.503 107.024 115.896C107.575 115.28 108.247 114.972 109.04 114.972C109.871 114.972 110.547 115.266 111.07 115.854C111.593 116.433 111.854 117.193 111.854 118.136C111.854 118.257 111.849 118.369 111.84 118.472H106.632C106.632 119.601 106.856 120.437 107.304 120.978C107.761 121.51 108.349 121.776 109.068 121.776C109.647 121.776 110.141 121.617 110.552 121.3C110.972 120.973 111.257 120.581 111.406 120.124L111.798 120.306C111.639 120.791 111.317 121.225 110.832 121.608C110.347 121.981 109.759 122.168 109.068 122.168C108.172 122.168 107.467 121.846 106.954 121.202C106.45 120.558 106.198 119.611 106.198 118.36ZM106.618 118.094H111.448C111.448 117.226 111.215 116.554 110.748 116.078C110.281 115.602 109.712 115.364 109.04 115.364C108.321 115.364 107.743 115.625 107.304 116.148C106.875 116.661 106.646 117.31 106.618 118.094ZM114.38 121.23C113.829 120.595 113.554 119.709 113.554 118.57C113.554 117.431 113.829 116.549 114.38 115.924C114.93 115.289 115.602 114.972 116.396 114.972C116.965 114.972 117.45 115.145 117.852 115.49C118.262 115.826 118.542 116.241 118.692 116.736H119.014C118.92 116.307 118.869 116.064 118.86 116.008C118.841 115.784 118.832 115.56 118.832 115.336V112.2H119.238V122H118.846C118.846 121.683 118.855 121.403 118.874 121.16C118.892 121.048 118.944 120.796 119.028 120.404H118.692C118.542 120.908 118.267 121.328 117.866 121.664C117.464 122 116.974 122.168 116.396 122.168C115.602 122.168 114.93 121.855 114.38 121.23ZM118.174 120.95C118.631 120.399 118.86 119.606 118.86 118.57C118.86 117.534 118.631 116.741 118.174 116.19C117.716 115.639 117.133 115.364 116.424 115.364C115.733 115.364 115.154 115.644 114.688 116.204C114.221 116.764 113.988 117.553 113.988 118.57C113.988 119.597 114.216 120.39 114.674 120.95C115.14 121.501 115.724 121.776 116.424 121.776C117.133 121.776 117.716 121.501 118.174 120.95ZM126.01 120.18V115.518H124.162V115.14H126.01V113.166H126.416V115.14H128.502V115.518H126.416V120.138C126.416 121.118 126.906 121.608 127.886 121.608H128.74V122H127.97C126.663 122 126.01 121.393 126.01 120.18ZM130.27 119.424V115.14H130.676V119.284C130.676 120.115 130.854 120.74 131.208 121.16C131.572 121.571 132.081 121.776 132.734 121.776C133.453 121.776 134.027 121.501 134.456 120.95C134.886 120.39 135.1 119.62 135.1 118.64V115.14H135.506V122H135.1C135.1 121.449 135.175 120.875 135.324 120.278H135.002C134.872 120.745 134.643 121.174 134.316 121.566C133.98 121.967 133.458 122.168 132.748 122.168C131.927 122.168 131.306 121.93 130.886 121.454C130.476 120.978 130.27 120.301 130.27 119.424ZM138.998 120.18V115.518H137.15V115.14H138.998V113.166H139.404V115.14H141.49V115.518H139.404V120.138C139.404 121.118 139.894 121.608 140.874 121.608H141.728V122H140.958C139.651 122 138.998 121.393 138.998 120.18ZM142.674 118.584C142.674 117.464 142.987 116.582 143.612 115.938C144.237 115.294 144.97 114.972 145.81 114.972C146.65 114.972 147.383 115.294 148.008 115.938C148.633 116.582 148.946 117.464 148.946 118.584C148.946 119.713 148.633 120.595 148.008 121.23C147.392 121.855 146.659 122.168 145.81 122.168C144.961 122.168 144.223 121.855 143.598 121.23C142.982 120.595 142.674 119.713 142.674 118.584ZM148.512 118.584C148.512 117.604 148.246 116.825 147.714 116.246C147.182 115.658 146.547 115.364 145.81 115.364C145.073 115.364 144.438 115.658 143.906 116.246C143.374 116.825 143.108 117.604 143.108 118.584C143.108 119.573 143.374 120.353 143.906 120.922C144.438 121.491 145.073 121.776 145.81 121.776C146.547 121.776 147.182 121.491 147.714 120.922C148.246 120.353 148.512 119.573 148.512 118.584ZM151.191 122V115.14H151.583C151.583 115.747 151.522 116.344 151.401 116.932H151.723C151.835 116.372 152.068 115.919 152.423 115.574C152.778 115.229 153.249 115.056 153.837 115.056C154.266 115.056 154.621 115.103 154.901 115.196V115.602C154.518 115.518 154.159 115.476 153.823 115.476C153.076 115.476 152.516 115.803 152.143 116.456C151.77 117.1 151.583 117.903 151.583 118.864V122H151.191ZM160.976 122L158.596 115.14H159.03L160.598 119.69C160.925 120.605 161.093 121.281 161.102 121.72H161.424C161.471 121.188 161.629 120.511 161.9 119.69L163.356 115.14H163.832L165.274 119.69C165.582 120.698 165.741 121.375 165.75 121.72H166.086C166.123 121.197 166.282 120.516 166.562 119.676L168.144 115.14H168.578L166.198 122H165.61L164.154 117.408C164.014 116.969 163.911 116.615 163.846 116.344C163.809 116.111 163.781 115.849 163.762 115.56H163.426C163.407 115.887 163.375 116.157 163.328 116.372C163.272 116.633 163.174 116.979 163.034 117.408L161.55 122H160.976ZM170.578 113.432V112.2H170.984V113.432H170.578ZM170.578 122V115.14H170.984L170.998 122H170.578ZM174.49 120.18V115.518H172.642V115.14H174.49V113.166H174.896V115.14H176.982V115.518H174.896V120.138C174.896 121.118 175.386 121.608 176.366 121.608H177.22V122H176.45C175.144 122 174.49 121.393 174.49 120.18ZM178.863 122V112.2H179.255V115.14C179.255 115.821 179.18 116.4 179.031 116.876H179.367C179.516 116.353 179.768 115.905 180.123 115.532C180.468 115.159 181 114.972 181.719 114.972C182.568 114.972 183.203 115.233 183.623 115.756C184.043 116.279 184.253 116.96 184.253 117.8V122H183.833V117.912C183.833 117.1 183.646 116.475 183.273 116.036C182.9 115.588 182.372 115.364 181.691 115.364C181.243 115.355 180.851 115.453 180.515 115.658C180.188 115.854 179.936 116.12 179.759 116.456C179.591 116.783 179.465 117.114 179.381 117.45C179.306 117.786 179.269 118.127 179.269 118.472V122H178.863ZM190.191 123.442C190.191 122.817 190.527 122.359 191.199 122.07V121.748C190.751 121.636 190.527 121.384 190.527 120.992C190.527 120.413 190.905 119.965 191.661 119.648V119.34C191.055 118.845 190.751 118.211 190.751 117.436C190.751 116.736 190.985 116.153 191.451 115.686C191.918 115.21 192.529 114.972 193.285 114.972C193.78 114.972 194.209 115.098 194.573 115.35C194.947 115.593 195.217 115.943 195.385 116.4H195.707C195.689 115.989 195.768 115.677 195.945 115.462C196.132 115.247 196.398 115.14 196.743 115.14H197.247V115.532H196.855C196.715 115.532 196.594 115.546 196.491 115.574C196.398 115.593 196.295 115.644 196.183 115.728C196.071 115.803 195.987 115.929 195.931 116.106C195.875 116.283 195.847 116.507 195.847 116.778V117.38C195.847 118.155 195.605 118.78 195.119 119.256C194.634 119.723 194.013 119.956 193.257 119.956C192.772 119.956 192.347 119.858 191.983 119.662C191.675 119.802 191.423 119.989 191.227 120.222C191.041 120.455 190.947 120.693 190.947 120.936C190.947 121.393 191.246 121.622 191.843 121.622H195.035C195.605 121.622 196.067 121.762 196.421 122.042C196.785 122.322 196.967 122.7 196.967 123.176C196.967 123.689 196.804 124.077 196.477 124.338C196.151 124.599 195.721 124.73 195.189 124.73H191.843C190.742 124.73 190.191 124.301 190.191 123.442ZM195.427 117.464C195.427 116.867 195.222 116.367 194.811 115.966C194.401 115.565 193.892 115.364 193.285 115.364C192.651 115.364 192.137 115.565 191.745 115.966C191.353 116.358 191.157 116.857 191.157 117.464C191.157 118.08 191.344 118.589 191.717 118.99C192.1 119.382 192.613 119.578 193.257 119.578C193.892 119.578 194.41 119.382 194.811 118.99C195.222 118.589 195.427 118.08 195.427 117.464ZM191.997 124.352H195.119C196.062 124.352 196.533 123.96 196.533 123.176C196.533 122.793 196.389 122.499 196.099 122.294C195.819 122.098 195.423 122 194.909 122H191.605C191.372 122.112 191.143 122.303 190.919 122.574C190.705 122.845 190.597 123.115 190.597 123.386C190.597 123.703 190.7 123.941 190.905 124.1C191.12 124.268 191.484 124.352 191.997 124.352ZM198.059 118.36C198.059 117.324 198.335 116.503 198.885 115.896C199.436 115.28 200.108 114.972 200.901 114.972C201.732 114.972 202.409 115.266 202.931 115.854C203.454 116.433 203.715 117.193 203.715 118.136C203.715 118.257 203.711 118.369 203.701 118.472H198.493C198.493 119.601 198.717 120.437 199.165 120.978C199.623 121.51 200.211 121.776 200.929 121.776C201.508 121.776 202.003 121.617 202.413 121.3C202.833 120.973 203.118 120.581 203.267 120.124L203.659 120.306C203.501 120.791 203.179 121.225 202.693 121.608C202.208 121.981 201.62 122.168 200.929 122.168C200.033 122.168 199.329 121.846 198.815 121.202C198.311 120.558 198.059 119.611 198.059 118.36ZM198.479 118.094H203.309C203.309 117.226 203.076 116.554 202.609 116.078C202.143 115.602 201.573 115.364 200.901 115.364C200.183 115.364 199.604 115.625 199.165 116.148C198.736 116.661 198.507 117.31 198.479 118.094ZM205.947 122V115.14H206.339C206.339 115.821 206.264 116.4 206.115 116.876H206.451C206.6 116.353 206.852 115.905 207.207 115.532C207.552 115.159 208.084 114.972 208.803 114.972C209.652 114.972 210.287 115.233 210.707 115.756C211.127 116.279 211.337 116.96 211.337 117.8V122H210.917V117.912C210.917 117.1 210.73 116.475 210.357 116.036C209.984 115.588 209.456 115.364 208.775 115.364C208.327 115.355 207.935 115.453 207.599 115.658C207.272 115.854 207.02 116.12 206.843 116.456C206.675 116.783 206.549 117.114 206.465 117.45C206.39 117.786 206.353 118.127 206.353 118.472V122H205.947ZM213.495 118.36C213.495 117.324 213.77 116.503 214.321 115.896C214.872 115.28 215.544 114.972 216.337 114.972C217.168 114.972 217.844 115.266 218.367 115.854C218.89 116.433 219.151 117.193 219.151 118.136C219.151 118.257 219.146 118.369 219.137 118.472H213.929C213.929 119.601 214.153 120.437 214.601 120.978C215.058 121.51 215.646 121.776 216.365 121.776C216.944 121.776 217.438 121.617 217.849 121.3C218.269 120.973 218.554 120.581 218.703 120.124L219.095 120.306C218.936 120.791 218.614 121.225 218.129 121.608C217.644 121.981 217.056 122.168 216.365 122.168C215.469 122.168 214.764 121.846 214.251 121.202C213.747 120.558 213.495 119.611 213.495 118.36ZM213.915 118.094H218.745C218.745 117.226 218.512 116.554 218.045 116.078C217.578 115.602 217.009 115.364 216.337 115.364C215.618 115.364 215.04 115.625 214.601 116.148C214.172 116.661 213.943 117.31 213.915 118.094ZM221.382 122V115.14H221.774C221.774 115.747 221.714 116.344 221.592 116.932H221.914C222.026 116.372 222.26 115.919 222.614 115.574C222.969 115.229 223.44 115.056 224.028 115.056C224.458 115.056 224.812 115.103 225.092 115.196V115.602C224.71 115.518 224.35 115.476 224.014 115.476C223.268 115.476 222.708 115.803 222.334 116.456C221.961 117.1 221.774 117.903 221.774 118.864V122H221.382ZM226.087 120.404C226.087 119.564 226.521 118.901 227.389 118.416C228.266 117.921 229.377 117.651 230.721 117.604V117.114C230.721 116.601 230.548 116.181 230.203 115.854C229.867 115.527 229.372 115.364 228.719 115.364C227.506 115.364 226.731 115.835 226.395 116.778L226.003 116.61C226.134 116.181 226.432 115.803 226.899 115.476C227.366 115.14 227.972 114.972 228.719 114.972C229.55 114.972 230.156 115.182 230.539 115.602C230.931 116.013 231.127 116.545 231.127 117.198V120.74C231.127 121.02 231.192 121.235 231.323 121.384C231.463 121.533 231.645 121.608 231.869 121.608H232.443V122H231.925C231.524 122 231.234 121.893 231.057 121.678C230.889 121.454 230.814 121.071 230.833 120.53H230.539C230.082 121.622 229.284 122.168 228.145 122.168C227.52 122.168 227.02 122.014 226.647 121.706C226.274 121.389 226.087 120.955 226.087 120.404ZM230.721 118.822V117.968C229.47 118.024 228.458 118.262 227.683 118.682C226.908 119.102 226.521 119.676 226.521 120.404C226.521 120.815 226.67 121.146 226.969 121.398C227.268 121.65 227.669 121.776 228.173 121.776C228.864 121.776 229.461 121.524 229.965 121.02C230.469 120.507 230.721 119.774 230.721 118.822ZM234.291 120.18V115.518H232.443V115.14H234.291V113.166H234.697V115.14H236.783V115.518H234.697V120.138C234.697 121.118 235.187 121.608 236.167 121.608H237.021V122H236.251C234.944 122 234.291 121.393 234.291 120.18ZM237.995 118.36C237.995 117.324 238.27 116.503 238.821 115.896C239.372 115.28 240.044 114.972 240.837 114.972C241.668 114.972 242.344 115.266 242.867 115.854C243.39 116.433 243.651 117.193 243.651 118.136C243.651 118.257 243.646 118.369 243.637 118.472H238.429C238.429 119.601 238.653 120.437 239.101 120.978C239.558 121.51 240.146 121.776 240.865 121.776C241.444 121.776 241.938 121.617 242.349 121.3C242.769 120.973 243.054 120.581 243.203 120.124L243.595 120.306C243.436 120.791 243.114 121.225 242.629 121.608C242.144 121.981 241.556 122.168 240.865 122.168C239.969 122.168 239.264 121.846 238.751 121.202C238.247 120.558 237.995 119.611 237.995 118.36ZM238.415 118.094H243.245C243.245 117.226 243.012 116.554 242.545 116.078C242.078 115.602 241.509 115.364 240.837 115.364C240.118 115.364 239.54 115.625 239.101 116.148C238.672 116.661 238.443 117.31 238.415 118.094ZM245.196 120.222L245.602 120.082C245.649 120.53 245.873 120.927 246.274 121.272C246.685 121.608 247.198 121.776 247.814 121.776C248.486 121.776 249 121.641 249.354 121.37C249.718 121.099 249.9 120.754 249.9 120.334C249.9 119.951 249.76 119.629 249.48 119.368C249.21 119.097 248.832 118.901 248.346 118.78L247.31 118.514C246.722 118.355 246.27 118.145 245.952 117.884C245.644 117.623 245.49 117.249 245.49 116.764C245.49 116.251 245.705 115.826 246.134 115.49C246.564 115.145 247.114 114.972 247.786 114.972C248.412 114.972 248.925 115.126 249.326 115.434C249.737 115.733 250.003 116.106 250.124 116.554L249.732 116.722C249.667 116.377 249.462 116.064 249.116 115.784C248.771 115.504 248.328 115.364 247.786 115.364C247.198 115.364 246.736 115.495 246.4 115.756C246.074 116.017 245.91 116.33 245.91 116.694C245.91 117.394 246.349 117.847 247.226 118.052L248.276 118.318C249.648 118.663 250.334 119.335 250.334 120.334C250.334 120.875 250.124 121.319 249.704 121.664C249.284 122 248.654 122.168 247.814 122.168C247.03 122.168 246.414 121.981 245.966 121.608C245.528 121.235 245.271 120.773 245.196 120.222ZM256.467 120.18V115.518H254.619V115.14H256.467V113.166H256.873V115.14H258.959V115.518H256.873V120.138C256.873 121.118 257.363 121.608 258.343 121.608H259.197V122H258.427C257.12 122 256.467 121.393 256.467 120.18ZM260.171 118.36C260.171 117.324 260.446 116.503 260.997 115.896C261.547 115.28 262.219 114.972 263.013 114.972C263.843 114.972 264.52 115.266 265.043 115.854C265.565 116.433 265.827 117.193 265.827 118.136C265.827 118.257 265.822 118.369 265.813 118.472H260.605C260.605 119.601 260.829 120.437 261.277 120.978C261.734 121.51 262.322 121.776 263.041 121.776C263.619 121.776 264.114 121.617 264.525 121.3C264.945 120.973 265.229 120.581 265.379 120.124L265.771 120.306C265.612 120.791 265.29 121.225 264.805 121.608C264.319 121.981 263.731 122.168 263.041 122.168C262.145 122.168 261.44 121.846 260.927 121.202C260.423 120.558 260.171 119.611 260.171 118.36ZM260.591 118.094H265.421C265.421 117.226 265.187 116.554 264.721 116.078C264.254 115.602 263.685 115.364 263.013 115.364C262.294 115.364 261.715 115.625 261.277 116.148C260.847 116.661 260.619 117.31 260.591 118.094ZM267.078 122L269.598 118.43L267.316 115.14H267.806L269.164 117.1C269.426 117.483 269.598 117.865 269.682 118.248H269.99C270.037 117.903 270.205 117.525 270.494 117.114L271.894 115.14H272.398L270.088 118.416L272.608 122H272.09L270.55 119.788C270.224 119.34 270.037 118.939 269.99 118.584H269.682C269.617 118.967 269.444 119.363 269.164 119.774L267.582 122H267.078ZM275.129 120.18V115.518H273.281V115.14H275.129V113.166H275.535V115.14H277.621V115.518H275.535V120.138C275.535 121.118 276.025 121.608 277.005 121.608H277.859V122H277.089C275.782 122 275.129 121.393 275.129 120.18ZM278.998 123.498L279.754 122H279.39V120.824H280.09V122L279.376 123.498H278.998ZM86.8294 136L84.0014 129.14H84.4494L86.3954 133.844C86.6101 134.32 86.7501 134.684 86.8154 134.936C86.8901 135.197 86.9414 135.454 86.9694 135.706H87.2774C87.3054 135.398 87.3521 135.141 87.4174 134.936C87.4921 134.693 87.6181 134.343 87.7954 133.886L89.6574 129.14H90.0914L87.4034 136H86.8294ZM91.3908 132.584C91.3908 131.464 91.7034 130.582 92.3288 129.938C92.9541 129.294 93.6868 128.972 94.5268 128.972C95.3668 128.972 96.0994 129.294 96.7248 129.938C97.3501 130.582 97.6628 131.464 97.6628 132.584C97.6628 133.713 97.3501 134.595 96.7248 135.23C96.1088 135.855 95.3761 136.168 94.5268 136.168C93.6774 136.168 92.9401 135.855 92.3148 135.23C91.6988 134.595 91.3908 133.713 91.3908 132.584ZM97.2288 132.584C97.2288 131.604 96.9628 130.825 96.4308 130.246C95.8988 129.658 95.2641 129.364 94.5268 129.364C93.7894 129.364 93.1548 129.658 92.6228 130.246C92.0908 130.825 91.8248 131.604 91.8248 132.584C91.8248 133.573 92.0908 134.353 92.6228 134.922C93.1548 135.491 93.7894 135.776 94.5268 135.776C95.2641 135.776 95.8988 135.491 96.4308 134.922C96.9628 134.353 97.2288 133.573 97.2288 132.584ZM99.9078 127.432V126.2H100.314V127.432H99.9078ZM99.9078 136V129.14H100.314L100.328 136H99.9078ZM102.588 132.556C102.588 131.529 102.859 130.675 103.4 129.994C103.942 129.313 104.646 128.972 105.514 128.972C106.205 128.972 106.788 129.159 107.264 129.532C107.74 129.896 108.048 130.339 108.188 130.862L107.768 130.988C107.638 130.512 107.372 130.125 106.97 129.826C106.578 129.518 106.093 129.364 105.514 129.364C104.814 129.364 104.222 129.649 103.736 130.218C103.26 130.787 103.022 131.567 103.022 132.556C103.022 133.555 103.256 134.343 103.722 134.922C104.198 135.491 104.805 135.776 105.542 135.776C106.168 135.776 106.676 135.589 107.068 135.216C107.46 134.833 107.712 134.39 107.824 133.886L108.244 134.012C108.086 134.647 107.764 135.165 107.278 135.566C106.802 135.967 106.224 136.168 105.542 136.168C104.665 136.168 103.951 135.841 103.4 135.188C102.859 134.525 102.588 133.648 102.588 132.556ZM109.78 132.36C109.78 131.324 110.055 130.503 110.606 129.896C111.157 129.28 111.829 128.972 112.622 128.972C113.453 128.972 114.129 129.266 114.652 129.854C115.175 130.433 115.436 131.193 115.436 132.136C115.436 132.257 115.431 132.369 115.422 132.472H110.214C110.214 133.601 110.438 134.437 110.886 134.978C111.343 135.51 111.931 135.776 112.65 135.776C113.229 135.776 113.723 135.617 114.134 135.3C114.554 134.973 114.839 134.581 114.988 134.124L115.38 134.306C115.221 134.791 114.899 135.225 114.414 135.608C113.929 135.981 113.341 136.168 112.65 136.168C111.754 136.168 111.049 135.846 110.536 135.202C110.032 134.558 109.78 133.611 109.78 132.36ZM110.2 132.094H115.03C115.03 131.226 114.797 130.554 114.33 130.078C113.863 129.602 113.294 129.364 112.622 129.364C111.903 129.364 111.325 129.625 110.886 130.148C110.457 130.661 110.228 131.31 110.2 132.094ZM117.164 137.498L117.92 136H117.556V134.824H118.256V136L117.542 137.498H117.164ZM124.941 127.432V126.2H125.347V127.432H124.941ZM124.941 136V129.14H125.347L125.361 136H124.941ZM128.168 136V129.14H128.574C128.574 129.653 128.504 130.106 128.364 130.498H128.714C128.798 130.125 129.012 129.779 129.358 129.462C129.712 129.135 130.212 128.972 130.856 128.972C131.434 128.972 131.92 129.14 132.312 129.476C132.704 129.803 132.942 130.232 133.026 130.764H133.362C133.446 130.288 133.67 129.873 134.034 129.518C134.407 129.154 134.925 128.972 135.588 128.972C136.381 128.972 137.002 129.21 137.45 129.686C137.898 130.153 138.122 130.773 138.122 131.548V136H137.716V131.66C137.716 130.923 137.52 130.358 137.128 129.966C136.736 129.565 136.222 129.364 135.588 129.364C134.654 129.364 134.043 129.672 133.754 130.288C133.474 130.885 133.334 131.553 133.334 132.29V136H132.928V131.73C132.928 130.965 132.736 130.381 132.354 129.98C131.971 129.569 131.472 129.364 130.856 129.364C130.165 129.364 129.652 129.541 129.316 129.896C129.008 130.223 128.807 130.591 128.714 131.002C128.62 131.413 128.574 131.959 128.574 132.64V136H128.168ZM140.296 134.404C140.296 133.564 140.73 132.901 141.598 132.416C142.475 131.921 143.586 131.651 144.93 131.604V131.114C144.93 130.601 144.757 130.181 144.412 129.854C144.076 129.527 143.581 129.364 142.928 129.364C141.715 129.364 140.94 129.835 140.604 130.778L140.212 130.61C140.343 130.181 140.641 129.803 141.108 129.476C141.575 129.14 142.181 128.972 142.928 128.972C143.759 128.972 144.365 129.182 144.748 129.602C145.14 130.013 145.336 130.545 145.336 131.198V134.74C145.336 135.02 145.401 135.235 145.532 135.384C145.672 135.533 145.854 135.608 146.078 135.608H146.652V136H146.134C145.733 136 145.443 135.893 145.266 135.678C145.098 135.454 145.023 135.071 145.042 134.53H144.748C144.291 135.622 143.493 136.168 142.354 136.168C141.729 136.168 141.229 136.014 140.856 135.706C140.483 135.389 140.296 134.955 140.296 134.404ZM144.93 132.822V131.968C143.679 132.024 142.667 132.262 141.892 132.682C141.117 133.102 140.73 133.676 140.73 134.404C140.73 134.815 140.879 135.146 141.178 135.398C141.477 135.65 141.878 135.776 142.382 135.776C143.073 135.776 143.67 135.524 144.174 135.02C144.678 134.507 144.93 133.774 144.93 132.822ZM147.398 137.442C147.398 136.817 147.734 136.359 148.406 136.07V135.748C147.958 135.636 147.734 135.384 147.734 134.992C147.734 134.413 148.112 133.965 148.868 133.648V133.34C148.262 132.845 147.958 132.211 147.958 131.436C147.958 130.736 148.192 130.153 148.658 129.686C149.125 129.21 149.736 128.972 150.492 128.972C150.987 128.972 151.416 129.098 151.78 129.35C152.154 129.593 152.424 129.943 152.592 130.4H152.914C152.896 129.989 152.975 129.677 153.152 129.462C153.339 129.247 153.605 129.14 153.95 129.14H154.454V129.532H154.062C153.922 129.532 153.801 129.546 153.698 129.574C153.605 129.593 153.502 129.644 153.39 129.728C153.278 129.803 153.194 129.929 153.138 130.106C153.082 130.283 153.054 130.507 153.054 130.778V131.38C153.054 132.155 152.812 132.78 152.326 133.256C151.841 133.723 151.22 133.956 150.464 133.956C149.979 133.956 149.554 133.858 149.19 133.662C148.882 133.802 148.63 133.989 148.434 134.222C148.248 134.455 148.154 134.693 148.154 134.936C148.154 135.393 148.453 135.622 149.05 135.622H152.242C152.812 135.622 153.274 135.762 153.628 136.042C153.992 136.322 154.174 136.7 154.174 137.176C154.174 137.689 154.011 138.077 153.684 138.338C153.358 138.599 152.928 138.73 152.396 138.73H149.05C147.949 138.73 147.398 138.301 147.398 137.442ZM152.634 131.464C152.634 130.867 152.429 130.367 152.018 129.966C151.608 129.565 151.099 129.364 150.492 129.364C149.858 129.364 149.344 129.565 148.952 129.966C148.56 130.358 148.364 130.857 148.364 131.464C148.364 132.08 148.551 132.589 148.924 132.99C149.307 133.382 149.82 133.578 150.464 133.578C151.099 133.578 151.617 133.382 152.018 132.99C152.429 132.589 152.634 132.08 152.634 131.464ZM149.204 138.352H152.326C153.269 138.352 153.74 137.96 153.74 137.176C153.74 136.793 153.596 136.499 153.306 136.294C153.026 136.098 152.63 136 152.116 136H148.812C148.579 136.112 148.35 136.303 148.126 136.574C147.912 136.845 147.804 137.115 147.804 137.386C147.804 137.703 147.907 137.941 148.112 138.1C148.327 138.268 148.691 138.352 149.204 138.352ZM155.266 132.36C155.266 131.324 155.542 130.503 156.092 129.896C156.643 129.28 157.315 128.972 158.108 128.972C158.939 128.972 159.616 129.266 160.138 129.854C160.661 130.433 160.922 131.193 160.922 132.136C160.922 132.257 160.918 132.369 160.908 132.472H155.7C155.7 133.601 155.924 134.437 156.372 134.978C156.83 135.51 157.418 135.776 158.136 135.776C158.715 135.776 159.21 135.617 159.62 135.3C160.04 134.973 160.325 134.581 160.474 134.124L160.866 134.306C160.708 134.791 160.386 135.225 159.9 135.608C159.415 135.981 158.827 136.168 158.136 136.168C157.24 136.168 156.536 135.846 156.022 135.202C155.518 134.558 155.266 133.611 155.266 132.36ZM155.686 132.094H160.516C160.516 131.226 160.283 130.554 159.816 130.078C159.35 129.602 158.78 129.364 158.108 129.364C157.39 129.364 156.811 129.625 156.372 130.148C155.943 130.661 155.714 131.31 155.686 132.094ZM166.71 134.404C166.71 133.564 167.144 132.901 168.012 132.416C168.889 131.921 170 131.651 171.344 131.604V131.114C171.344 130.601 171.171 130.181 170.826 129.854C170.49 129.527 169.995 129.364 169.342 129.364C168.129 129.364 167.354 129.835 167.018 130.778L166.626 130.61C166.757 130.181 167.055 129.803 167.522 129.476C167.989 129.14 168.595 128.972 169.342 128.972C170.173 128.972 170.779 129.182 171.162 129.602C171.554 130.013 171.75 130.545 171.75 131.198V134.74C171.75 135.02 171.815 135.235 171.946 135.384C172.086 135.533 172.268 135.608 172.492 135.608H173.066V136H172.548C172.147 136 171.857 135.893 171.68 135.678C171.512 135.454 171.437 135.071 171.456 134.53H171.162C170.705 135.622 169.907 136.168 168.768 136.168C168.143 136.168 167.643 136.014 167.27 135.706C166.897 135.389 166.71 134.955 166.71 134.404ZM171.344 132.822V131.968C170.093 132.024 169.081 132.262 168.306 132.682C167.531 133.102 167.144 133.676 167.144 134.404C167.144 134.815 167.293 135.146 167.592 135.398C167.891 135.65 168.292 135.776 168.796 135.776C169.487 135.776 170.084 135.524 170.588 135.02C171.092 134.507 171.344 133.774 171.344 132.822ZM174.914 134.18V129.518H173.066V129.14H174.914V127.166H175.32V129.14H177.406V129.518H175.32V134.138C175.32 135.118 175.81 135.608 176.79 135.608H177.644V136H176.874C175.567 136 174.914 135.393 174.914 134.18ZM182.675 134.222L183.081 134.082C183.128 134.53 183.352 134.927 183.753 135.272C184.164 135.608 184.677 135.776 185.293 135.776C185.965 135.776 186.478 135.641 186.833 135.37C187.197 135.099 187.379 134.754 187.379 134.334C187.379 133.951 187.239 133.629 186.959 133.368C186.688 133.097 186.31 132.901 185.825 132.78L184.789 132.514C184.201 132.355 183.748 132.145 183.431 131.884C183.123 131.623 182.969 131.249 182.969 130.764C182.969 130.251 183.184 129.826 183.613 129.49C184.042 129.145 184.593 128.972 185.265 128.972C185.89 128.972 186.404 129.126 186.805 129.434C187.216 129.733 187.482 130.106 187.603 130.554L187.211 130.722C187.146 130.377 186.94 130.064 186.595 129.784C186.25 129.504 185.806 129.364 185.265 129.364C184.677 129.364 184.215 129.495 183.879 129.756C183.552 130.017 183.389 130.33 183.389 130.694C183.389 131.394 183.828 131.847 184.705 132.052L185.755 132.318C187.127 132.663 187.813 133.335 187.813 134.334C187.813 134.875 187.603 135.319 187.183 135.664C186.763 136 186.133 136.168 185.293 136.168C184.509 136.168 183.893 135.981 183.445 135.608C183.006 135.235 182.75 134.773 182.675 134.222ZM189.46 134.404C189.46 133.564 189.894 132.901 190.762 132.416C191.639 131.921 192.75 131.651 194.094 131.604V131.114C194.094 130.601 193.921 130.181 193.576 129.854C193.24 129.527 192.745 129.364 192.092 129.364C190.879 129.364 190.104 129.835 189.768 130.778L189.376 130.61C189.507 130.181 189.805 129.803 190.272 129.476C190.739 129.14 191.345 128.972 192.092 128.972C192.923 128.972 193.529 129.182 193.912 129.602C194.304 130.013 194.5 130.545 194.5 131.198V134.74C194.5 135.02 194.565 135.235 194.696 135.384C194.836 135.533 195.018 135.608 195.242 135.608H195.816V136H195.298C194.897 136 194.607 135.893 194.43 135.678C194.262 135.454 194.187 135.071 194.206 134.53H193.912C193.455 135.622 192.657 136.168 191.518 136.168C190.893 136.168 190.393 136.014 190.02 135.706C189.647 135.389 189.46 134.955 189.46 134.404ZM194.094 132.822V131.968C192.843 132.024 191.831 132.262 191.056 132.682C190.281 133.102 189.894 133.676 189.894 134.404C189.894 134.815 190.043 135.146 190.342 135.398C190.641 135.65 191.042 135.776 191.546 135.776C192.237 135.776 192.834 135.524 193.338 135.02C193.842 134.507 194.094 133.774 194.094 132.822ZM197.388 136V129.14H197.794C197.794 129.653 197.724 130.106 197.584 130.498H197.934C198.018 130.125 198.233 129.779 198.578 129.462C198.933 129.135 199.432 128.972 200.076 128.972C200.655 128.972 201.14 129.14 201.532 129.476C201.924 129.803 202.162 130.232 202.246 130.764H202.582C202.666 130.288 202.89 129.873 203.254 129.518C203.628 129.154 204.146 128.972 204.808 128.972C205.602 128.972 206.222 129.21 206.67 129.686C207.118 130.153 207.342 130.773 207.342 131.548V136H206.936V131.66C206.936 130.923 206.74 130.358 206.348 129.966C205.956 129.565 205.443 129.364 204.808 129.364C203.875 129.364 203.264 129.672 202.974 130.288C202.694 130.885 202.554 131.553 202.554 132.29V136H202.148V131.73C202.148 130.965 201.957 130.381 201.574 129.98C201.192 129.569 200.692 129.364 200.076 129.364C199.386 129.364 198.872 129.541 198.536 129.896C198.228 130.223 198.028 130.591 197.934 131.002C197.841 131.413 197.794 131.959 197.794 132.64V136H197.388ZM209.503 132.36C209.503 131.324 209.778 130.503 210.329 129.896C210.879 129.28 211.551 128.972 212.345 128.972C213.175 128.972 213.852 129.266 214.375 129.854C214.897 130.433 215.159 131.193 215.159 132.136C215.159 132.257 215.154 132.369 215.145 132.472H209.937C209.937 133.601 210.161 134.437 210.609 134.978C211.066 135.51 211.654 135.776 212.373 135.776C212.951 135.776 213.446 135.617 213.857 135.3C214.277 134.973 214.561 134.581 214.711 134.124L215.103 134.306C214.944 134.791 214.622 135.225 214.137 135.608C213.651 135.981 213.063 136.168 212.373 136.168C211.477 136.168 210.772 135.846 210.259 135.202C209.755 134.558 209.503 133.611 209.503 132.36ZM209.923 132.094H214.753C214.753 131.226 214.519 130.554 214.053 130.078C213.586 129.602 213.017 129.364 212.345 129.364C211.626 129.364 211.047 129.625 210.609 130.148C210.179 130.661 209.951 131.31 209.923 132.094ZM221.357 134.18V129.518H219.509V129.14H221.357V127.166H221.763V129.14H223.849V129.518H221.763V134.138C221.763 135.118 222.253 135.608 223.233 135.608H224.087V136H223.317C222.011 136 221.357 135.393 221.357 134.18ZM225.73 127.432V126.2H226.136V127.432H225.73ZM225.73 136V129.14H226.136L226.15 136H225.73ZM228.957 136V129.14H229.363C229.363 129.653 229.293 130.106 229.153 130.498H229.503C229.587 130.125 229.801 129.779 230.147 129.462C230.501 129.135 231.001 128.972 231.645 128.972C232.223 128.972 232.709 129.14 233.101 129.476C233.493 129.803 233.731 130.232 233.815 130.764H234.151C234.235 130.288 234.459 129.873 234.823 129.518C235.196 129.154 235.714 128.972 236.377 128.972C237.17 128.972 237.791 129.21 238.239 129.686C238.687 130.153 238.911 130.773 238.911 131.548V136H238.505V131.66C238.505 130.923 238.309 130.358 237.917 129.966C237.525 129.565 237.011 129.364 236.377 129.364C235.443 129.364 234.832 129.672 234.543 130.288C234.263 130.885 234.123 131.553 234.123 132.29V136H233.717V131.73C233.717 130.965 233.525 130.381 233.143 129.98C232.76 129.569 232.261 129.364 231.645 129.364C230.954 129.364 230.441 129.541 230.105 129.896C229.797 130.223 229.596 130.591 229.503 131.002C229.409 131.413 229.363 131.959 229.363 132.64V136H228.957ZM241.071 132.36C241.071 131.324 241.346 130.503 241.897 129.896C242.448 129.28 243.12 128.972 243.913 128.972C244.744 128.972 245.42 129.266 245.943 129.854C246.466 130.433 246.727 131.193 246.727 132.136C246.727 132.257 246.722 132.369 246.713 132.472H241.505C241.505 133.601 241.729 134.437 242.177 134.978C242.634 135.51 243.222 135.776 243.941 135.776C244.52 135.776 245.014 135.617 245.425 135.3C245.845 134.973 246.13 134.581 246.279 134.124L246.671 134.306C246.512 134.791 246.19 135.225 245.705 135.608C245.22 135.981 244.632 136.168 243.941 136.168C243.045 136.168 242.34 135.846 241.827 135.202C241.323 134.558 241.071 133.611 241.071 132.36ZM241.491 132.094H246.321C246.321 131.226 246.088 130.554 245.621 130.078C245.154 129.602 244.585 129.364 243.913 129.364C243.194 129.364 242.616 129.625 242.177 130.148C241.748 130.661 241.519 131.31 241.491 132.094Z" fill="white"/>
</svg>
