<svg width="331" height="201" viewBox="0 0 331 201" fill="none" xmlns="http://www.w3.org/2000/svg">
<rect width="331" height="201" fill="black"/>
<path d="M40.0846 97V63.4H51.7006C56.4686 63.4 60.3086 64.936 63.2206 68.008C66.1326 71.08 67.5886 75.112 67.5886 80.104C67.5886 85.352 66.1486 89.48 63.2686 92.488C60.3886 95.496 56.4206 97 51.3646 97H40.0846ZM44.4046 92.92H50.5966C58.8846 92.92 63.0286 88.648 63.0286 80.104C63.0286 76.168 61.9886 73.08 59.9086 70.84C57.8606 68.6 54.8686 67.48 50.9326 67.48H44.4046V92.92ZM72.6991 90.856C72.6991 87.848 74.0751 85.624 76.8271 84.184C79.6111 82.68 83.2271 81.768 87.6751 81.448V80.776C87.6751 77.704 85.9311 76.168 82.4431 76.168C79.1471 76.168 77.0191 77.624 76.0591 80.536L72.1711 79.096C72.7151 77.272 73.8671 75.736 75.6271 74.488C77.3871 73.208 79.6751 72.568 82.4911 72.568C85.4991 72.568 87.7871 73.288 89.3551 74.728C90.9551 76.168 91.7551 78.168 91.7551 80.728V92.008C91.7551 92.552 91.8511 92.92 92.0431 93.112C92.2351 93.304 92.6031 93.4 93.1471 93.4H95.6431V97H93.8191C92.0911 97 90.9231 96.664 90.3151 95.992C89.7071 95.288 89.4031 93.96 89.4031 92.008H87.6751C87.2591 93.704 86.3951 95.08 85.0831 96.136C83.7711 97.16 82.1711 97.672 80.2831 97.672C77.9151 97.672 76.0591 97.064 74.7151 95.848C73.3711 94.632 72.6991 92.968 72.6991 90.856ZM87.6751 87.16V84.52C80.5071 85.32 76.9231 87.32 76.9231 90.52C76.9231 91.672 77.2911 92.584 78.0271 93.256C78.7951 93.896 79.8991 94.216 81.3391 94.216C83.0671 94.216 84.5551 93.608 85.8031 92.392C87.0511 91.144 87.6751 89.4 87.6751 87.16ZM100.016 97V73.24H104.048C104.048 75.064 103.168 77.304 101.408 79.96H103.952C104.592 77.656 105.52 75.912 106.736 74.728C107.984 73.512 109.664 72.904 111.776 72.904C112.64 72.904 113.456 73 114.224 73.192V77.368C113.264 77.208 112.416 77.128 111.68 77.128C106.624 77.128 104.096 80.12 104.096 86.104V97H100.016ZM136.664 97L127.64 85.864L123.128 89.992V97H119.048V63.4H123.128V77.704C123.128 79.784 122.984 81.272 122.696 82.168C122.44 83.032 121.8 83.944 120.776 84.904L122.168 86.248L135.752 73.24H141.176L130.472 83.176L141.896 97H136.664ZM143.791 88.552L148.015 86.488C149.647 91.256 152.783 93.64 157.423 93.64C159.695 93.64 161.471 93.128 162.751 92.104C164.031 91.08 164.671 89.72 164.671 88.024C164.671 86.584 164.159 85.416 163.135 84.52C162.111 83.624 160.543 82.936 158.431 82.456L153.919 81.4C151.103 80.728 148.991 79.672 147.583 78.232C146.175 76.76 145.471 74.744 145.471 72.184C145.471 69.432 146.527 67.176 148.639 65.416C150.783 63.624 153.535 62.728 156.895 62.728C159.999 62.728 162.575 63.512 164.623 65.08C166.703 66.648 168.047 68.44 168.655 70.456L164.527 72.472C163.983 70.968 163.087 69.656 161.839 68.536C160.623 67.352 158.799 66.76 156.367 66.76C154.351 66.76 152.735 67.24 151.519 68.2C150.335 69.16 149.743 70.408 149.743 71.944C149.743 73.352 150.159 74.44 150.991 75.208C151.855 75.976 153.279 76.6 155.263 77.08L159.967 78.184C162.847 78.856 165.103 80.008 166.734 81.64C168.366 83.272 169.182 85.272 169.182 87.64C169.182 90.68 168.111 93.112 165.967 94.936C163.823 96.76 160.879 97.672 157.135 97.672C153.743 97.672 150.879 96.84 148.543 95.176C146.207 93.512 144.623 91.304 143.791 88.552ZM175.157 106.36V73.24H178.853C178.853 74.744 178.133 76.472 176.693 78.424H179.141C180.645 74.52 183.205 72.568 186.821 72.568C189.605 72.568 191.893 73.72 193.685 76.024C195.509 78.328 196.421 81.368 196.421 85.144C196.421 88.952 195.509 91.992 193.685 94.264C191.893 96.536 189.605 97.672 186.821 97.672C183.013 97.672 180.453 95.72 179.141 91.816H176.549C177.189 92.904 177.653 93.768 177.941 94.408C178.261 95.016 178.549 95.912 178.805 97.096C179.093 98.28 179.237 99.64 179.237 101.176V106.36H175.157ZM192.245 85.192C192.245 79.176 190.069 76.168 185.717 76.168C183.701 76.168 182.069 76.952 180.821 78.52C179.605 80.056 178.997 82.28 178.997 85.192C178.997 88.072 179.605 90.28 180.821 91.816C182.037 93.32 183.669 94.072 185.717 94.072C190.069 94.072 192.245 91.112 192.245 85.192ZM202.72 97V63.4H206.8V70.168C206.768 72.408 206.576 74.072 206.224 75.16C205.872 76.248 205.264 77.448 204.4 78.76H206.752C207.2 77.192 208.096 75.768 209.44 74.488C210.816 73.208 212.496 72.568 214.48 72.568C217.232 72.568 219.296 73.352 220.672 74.92C222.08 76.456 222.784 78.648 222.784 81.496V97H218.704V82.456C218.704 78.264 216.96 76.168 213.472 76.168C211.52 76.168 210.032 76.776 209.008 77.992C208.112 79.08 207.52 80.328 207.232 81.736C206.944 83.112 206.8 84.84 206.8 86.92V97H202.72ZM228.74 85.24C228.74 81.432 229.716 78.376 231.668 76.072C233.652 73.736 236.18 72.568 239.252 72.568C242.356 72.568 244.852 73.656 246.74 75.832C248.66 77.976 249.62 80.744 249.62 84.136C249.62 84.68 249.588 85.368 249.524 86.2H232.772C232.9 88.856 233.572 90.84 234.788 92.152C236.036 93.464 237.652 94.12 239.636 94.12C242.58 94.12 244.692 92.584 245.972 89.512L249.716 90.808C248.02 95.384 244.612 97.672 239.492 97.672C236.196 97.672 233.572 96.584 231.62 94.408C229.7 92.2 228.74 89.144 228.74 85.24ZM232.868 82.792H245.348C245.348 80.68 244.756 79.016 243.572 77.8C242.42 76.552 240.98 75.928 239.252 75.928C237.62 75.928 236.18 76.568 234.932 77.848C233.684 79.128 232.996 80.776 232.868 82.792ZM256.063 97V73.24H260.095C260.095 75.064 259.215 77.304 257.455 79.96H259.999C260.639 77.656 261.567 75.912 262.783 74.728C264.031 73.512 265.711 72.904 267.823 72.904C268.687 72.904 269.503 73 270.271 73.192V77.368C269.311 77.208 268.463 77.128 267.727 77.128C262.671 77.128 260.143 80.12 260.143 86.104V97H256.063ZM272.569 85.24C272.569 81.432 273.545 78.376 275.497 76.072C277.481 73.736 280.009 72.568 283.081 72.568C286.185 72.568 288.681 73.656 290.569 75.832C292.489 77.976 293.449 80.744 293.449 84.136C293.449 84.68 293.417 85.368 293.353 86.2H276.601C276.729 88.856 277.401 90.84 278.617 92.152C279.865 93.464 281.481 94.12 283.465 94.12C286.409 94.12 288.521 92.584 289.801 89.512L293.545 90.808C291.849 95.384 288.441 97.672 283.321 97.672C280.025 97.672 277.401 96.584 275.449 94.408C273.529 92.2 272.569 89.144 272.569 85.24ZM276.697 82.792H289.177C289.177 80.68 288.585 79.016 287.401 77.8C286.249 76.552 284.809 75.928 283.081 75.928C281.449 75.928 280.009 76.568 278.761 77.848C277.513 79.128 276.825 80.776 276.697 82.792Z" fill="white"/>
<path d="M76.398 119L75.194 115.766H70.532L69.328 119H68.852L72.576 109.2H73.136L76.888 119H76.398ZM70.672 115.374H75.04L73.276 110.67C73.1173 110.25 73.038 109.853 73.038 109.48H72.674C72.6553 109.872 72.5713 110.269 72.422 110.67L70.672 115.374ZM82.1891 121.73V112.14H82.5811C82.5811 112.513 82.5671 112.793 82.5391 112.98C82.5297 113.092 82.4831 113.344 82.3991 113.736H82.7351C82.8844 113.241 83.1597 112.826 83.5611 112.49C83.9717 112.145 84.4617 111.972 85.0311 111.972C85.8244 111.972 86.4964 112.285 87.0471 112.91C87.5977 113.535 87.8731 114.422 87.8731 115.57C87.8731 116.718 87.5977 117.605 87.0471 118.23C86.4964 118.855 85.8244 119.168 85.0311 119.168C84.4524 119.168 83.9624 119 83.5611 118.664C83.1597 118.328 82.8844 117.908 82.7351 117.404H82.4131C82.5064 117.759 82.5577 118.001 82.5671 118.132C82.5857 118.356 82.5951 118.58 82.5951 118.804V121.73H82.1891ZM86.7391 117.95C87.2057 117.39 87.4391 116.597 87.4391 115.57C87.4391 114.543 87.2057 113.755 86.7391 113.204C86.2724 112.644 85.6937 112.364 85.0031 112.364C84.2844 112.364 83.6964 112.639 83.2391 113.19C82.7911 113.741 82.5671 114.534 82.5671 115.57C82.5671 116.606 82.7911 117.399 83.2391 117.95C83.6964 118.501 84.2844 118.776 85.0031 118.776C85.6937 118.776 86.2724 118.501 86.7391 117.95ZM90.1461 119V109.2H90.5521V119H90.1461ZM92.8273 117.404C92.8273 116.564 93.2613 115.901 94.1293 115.416C95.0066 114.921 96.1173 114.651 97.4613 114.604V114.114C97.4613 113.601 97.2886 113.181 96.9433 112.854C96.6073 112.527 96.1126 112.364 95.4593 112.364C94.246 112.364 93.4713 112.835 93.1353 113.778L92.7433 113.61C92.874 113.181 93.1726 112.803 93.6393 112.476C94.106 112.14 94.7126 111.972 95.4593 111.972C96.29 111.972 96.8966 112.182 97.2793 112.602C97.6713 113.013 97.8673 113.545 97.8673 114.198V117.74C97.8673 118.02 97.9326 118.235 98.0633 118.384C98.2033 118.533 98.3853 118.608 98.6093 118.608H99.1833V119H98.6653C98.264 119 97.9746 118.893 97.7973 118.678C97.6293 118.454 97.5546 118.071 97.5733 117.53H97.2793C96.822 118.622 96.024 119.168 94.8853 119.168C94.26 119.168 93.7606 119.014 93.3873 118.706C93.014 118.389 92.8273 117.955 92.8273 117.404ZM97.4613 115.822V114.968C96.2106 115.024 95.198 115.262 94.4233 115.682C93.6486 116.102 93.2613 116.676 93.2613 117.404C93.2613 117.815 93.4106 118.146 93.7093 118.398C94.008 118.65 94.4093 118.776 94.9133 118.776C95.604 118.776 96.2013 118.524 96.7053 118.02C97.2093 117.507 97.4613 116.774 97.4613 115.822ZM100.209 115.556C100.209 114.529 100.48 113.675 101.021 112.994C101.563 112.313 102.267 111.972 103.135 111.972C103.826 111.972 104.409 112.159 104.885 112.532C105.361 112.896 105.669 113.339 105.809 113.862L105.389 113.988C105.259 113.512 104.993 113.125 104.591 112.826C104.199 112.518 103.714 112.364 103.135 112.364C102.435 112.364 101.843 112.649 101.357 113.218C100.881 113.787 100.643 114.567 100.643 115.556C100.643 116.555 100.877 117.343 101.343 117.922C101.819 118.491 102.426 118.776 103.163 118.776C103.789 118.776 104.297 118.589 104.689 118.216C105.081 117.833 105.333 117.39 105.445 116.886L105.865 117.012C105.707 117.647 105.385 118.165 104.899 118.566C104.423 118.967 103.845 119.168 103.163 119.168C102.286 119.168 101.572 118.841 101.021 118.188C100.48 117.525 100.209 116.648 100.209 115.556ZM107.401 115.36C107.401 114.324 107.677 113.503 108.227 112.896C108.778 112.28 109.45 111.972 110.243 111.972C111.074 111.972 111.751 112.266 112.273 112.854C112.796 113.433 113.057 114.193 113.057 115.136C113.057 115.257 113.053 115.369 113.043 115.472H107.835C107.835 116.601 108.059 117.437 108.507 117.978C108.965 118.51 109.553 118.776 110.271 118.776C110.85 118.776 111.345 118.617 111.755 118.3C112.175 117.973 112.46 117.581 112.609 117.124L113.001 117.306C112.843 117.791 112.521 118.225 112.035 118.608C111.55 118.981 110.962 119.168 110.271 119.168C109.375 119.168 108.671 118.846 108.157 118.202C107.653 117.558 107.401 116.611 107.401 115.36ZM107.821 115.094H112.651C112.651 114.226 112.418 113.554 111.951 113.078C111.485 112.602 110.915 112.364 110.243 112.364C109.525 112.364 108.946 112.625 108.507 113.148C108.078 113.661 107.849 114.31 107.821 115.094ZM119.256 117.18V112.518H117.408V112.14H119.256V110.166H119.662V112.14H121.748V112.518H119.662V117.138C119.662 118.118 120.152 118.608 121.132 118.608H121.986V119H121.216C119.909 119 119.256 118.393 119.256 117.18ZM122.932 115.584C122.932 114.464 123.244 113.582 123.87 112.938C124.495 112.294 125.228 111.972 126.068 111.972C126.908 111.972 127.64 112.294 128.266 112.938C128.891 113.582 129.204 114.464 129.204 115.584C129.204 116.713 128.891 117.595 128.266 118.23C127.65 118.855 126.917 119.168 126.068 119.168C125.218 119.168 124.481 118.855 123.856 118.23C123.24 117.595 122.932 116.713 122.932 115.584ZM128.77 115.584C128.77 114.604 128.504 113.825 127.972 113.246C127.44 112.658 126.805 112.364 126.068 112.364C125.33 112.364 124.696 112.658 124.164 113.246C123.632 113.825 123.366 114.604 123.366 115.584C123.366 116.573 123.632 117.353 124.164 117.922C124.696 118.491 125.33 118.776 126.068 118.776C126.805 118.776 127.44 118.491 127.972 117.922C128.504 117.353 128.77 116.573 128.77 115.584ZM134.837 117.222L135.243 117.082C135.29 117.53 135.514 117.927 135.915 118.272C136.326 118.608 136.839 118.776 137.455 118.776C138.127 118.776 138.64 118.641 138.995 118.37C139.359 118.099 139.541 117.754 139.541 117.334C139.541 116.951 139.401 116.629 139.121 116.368C138.85 116.097 138.472 115.901 137.987 115.78L136.951 115.514C136.363 115.355 135.91 115.145 135.593 114.884C135.285 114.623 135.131 114.249 135.131 113.764C135.131 113.251 135.346 112.826 135.775 112.49C136.204 112.145 136.755 111.972 137.427 111.972C138.052 111.972 138.566 112.126 138.967 112.434C139.378 112.733 139.644 113.106 139.765 113.554L139.373 113.722C139.308 113.377 139.102 113.064 138.757 112.784C138.412 112.504 137.968 112.364 137.427 112.364C136.839 112.364 136.377 112.495 136.041 112.756C135.714 113.017 135.551 113.33 135.551 113.694C135.551 114.394 135.99 114.847 136.867 115.052L137.917 115.318C139.289 115.663 139.975 116.335 139.975 117.334C139.975 117.875 139.765 118.319 139.345 118.664C138.925 119 138.295 119.168 137.455 119.168C136.671 119.168 136.055 118.981 135.607 118.608C135.168 118.235 134.912 117.773 134.837 117.222ZM142.14 119V109.2H142.532V112.14C142.532 112.821 142.458 113.4 142.308 113.876H142.644C142.794 113.353 143.046 112.905 143.4 112.532C143.746 112.159 144.278 111.972 144.996 111.972C145.846 111.972 146.48 112.233 146.9 112.756C147.32 113.279 147.53 113.96 147.53 114.8V119H147.11V114.912C147.11 114.1 146.924 113.475 146.55 113.036C146.177 112.588 145.65 112.364 144.968 112.364C144.52 112.355 144.128 112.453 143.792 112.658C143.466 112.854 143.214 113.12 143.036 113.456C142.868 113.783 142.742 114.114 142.658 114.45C142.584 114.786 142.546 115.127 142.546 115.472V119H142.14ZM149.702 117.404C149.702 116.564 150.136 115.901 151.004 115.416C151.882 114.921 152.992 114.651 154.336 114.604V114.114C154.336 113.601 154.164 113.181 153.818 112.854C153.482 112.527 152.988 112.364 152.334 112.364C151.121 112.364 150.346 112.835 150.01 113.778L149.618 113.61C149.749 113.181 150.048 112.803 150.514 112.476C150.981 112.14 151.588 111.972 152.334 111.972C153.165 111.972 153.772 112.182 154.154 112.602C154.546 113.013 154.742 113.545 154.742 114.198V117.74C154.742 118.02 154.808 118.235 154.938 118.384C155.078 118.533 155.26 118.608 155.484 118.608H156.058V119H155.54C155.139 119 154.85 118.893 154.672 118.678C154.504 118.454 154.43 118.071 154.448 117.53H154.154C153.697 118.622 152.899 119.168 151.76 119.168C151.135 119.168 150.636 119.014 150.262 118.706C149.889 118.389 149.702 117.955 149.702 117.404ZM154.336 115.822V114.968C153.086 115.024 152.073 115.262 151.298 115.682C150.524 116.102 150.136 116.676 150.136 117.404C150.136 117.815 150.286 118.146 150.584 118.398C150.883 118.65 151.284 118.776 151.788 118.776C152.479 118.776 153.076 118.524 153.58 118.02C154.084 117.507 154.336 116.774 154.336 115.822ZM157.63 119V112.14H158.022C158.022 112.747 157.962 113.344 157.84 113.932H158.162C158.274 113.372 158.508 112.919 158.862 112.574C159.217 112.229 159.688 112.056 160.276 112.056C160.706 112.056 161.06 112.103 161.34 112.196V112.602C160.958 112.518 160.598 112.476 160.262 112.476C159.516 112.476 158.956 112.803 158.582 113.456C158.209 114.1 158.022 114.903 158.022 115.864V119H157.63ZM161.911 115.36C161.911 114.324 162.186 113.503 162.737 112.896C163.288 112.28 163.96 111.972 164.753 111.972C165.584 111.972 166.26 112.266 166.783 112.854C167.306 113.433 167.567 114.193 167.567 115.136C167.567 115.257 167.562 115.369 167.553 115.472H162.345C162.345 116.601 162.569 117.437 163.017 117.978C163.474 118.51 164.062 118.776 164.781 118.776C165.36 118.776 165.854 118.617 166.265 118.3C166.685 117.973 166.97 117.581 167.119 117.124L167.511 117.306C167.352 117.791 167.03 118.225 166.545 118.608C166.06 118.981 165.472 119.168 164.781 119.168C163.885 119.168 163.18 118.846 162.667 118.202C162.163 117.558 161.911 116.611 161.911 115.36ZM162.331 115.094H167.161C167.161 114.226 166.928 113.554 166.461 113.078C165.994 112.602 165.425 112.364 164.753 112.364C164.034 112.364 163.456 112.625 163.017 113.148C162.588 113.661 162.359 114.31 162.331 115.094ZM177.697 112.14H178.145L175.205 120.12C174.99 120.717 174.743 121.133 174.463 121.366C174.192 121.609 173.768 121.73 173.189 121.73H172.433V121.338H173.189C173.609 121.338 173.94 121.245 174.183 121.058C174.435 120.881 174.654 120.535 174.841 120.022L175.331 118.692L172.335 112.14H172.783L174.869 116.69C174.944 116.83 175.046 117.073 175.177 117.418C175.308 117.763 175.368 118.039 175.359 118.244H175.695C175.704 117.824 175.821 117.306 176.045 116.69L177.697 112.14ZM179.465 115.584C179.465 114.464 179.778 113.582 180.403 112.938C181.028 112.294 181.761 111.972 182.601 111.972C183.441 111.972 184.174 112.294 184.799 112.938C185.424 113.582 185.737 114.464 185.737 115.584C185.737 116.713 185.424 117.595 184.799 118.23C184.183 118.855 183.45 119.168 182.601 119.168C181.752 119.168 181.014 118.855 180.389 118.23C179.773 117.595 179.465 116.713 179.465 115.584ZM185.303 115.584C185.303 114.604 185.037 113.825 184.505 113.246C183.973 112.658 183.338 112.364 182.601 112.364C181.864 112.364 181.229 112.658 180.697 113.246C180.165 113.825 179.899 114.604 179.899 115.584C179.899 116.573 180.165 117.353 180.697 117.922C181.229 118.491 181.864 118.776 182.601 118.776C183.338 118.776 183.973 118.491 184.505 117.922C185.037 117.353 185.303 116.573 185.303 115.584ZM187.87 116.424V112.14H188.276V116.284C188.276 117.115 188.453 117.74 188.808 118.16C189.172 118.571 189.681 118.776 190.334 118.776C191.053 118.776 191.627 118.501 192.056 117.95C192.485 117.39 192.7 116.62 192.7 115.64V112.14H193.106V119H192.7C192.7 118.449 192.775 117.875 192.924 117.278H192.602C192.471 117.745 192.243 118.174 191.916 118.566C191.58 118.967 191.057 119.168 190.348 119.168C189.527 119.168 188.906 118.93 188.486 118.454C188.075 117.978 187.87 117.301 187.87 116.424ZM200.28 118.23C199.729 117.595 199.454 116.709 199.454 115.57C199.454 114.431 199.729 113.549 200.28 112.924C200.831 112.289 201.503 111.972 202.296 111.972C202.865 111.972 203.351 112.145 203.752 112.49C204.163 112.826 204.443 113.241 204.592 113.736H204.914C204.821 113.307 204.769 113.064 204.76 113.008C204.741 112.784 204.732 112.56 204.732 112.336V109.2H205.138V119H204.746C204.746 118.683 204.755 118.403 204.774 118.16C204.793 118.048 204.844 117.796 204.928 117.404H204.592C204.443 117.908 204.167 118.328 203.766 118.664C203.365 119 202.875 119.168 202.296 119.168C201.503 119.168 200.831 118.855 200.28 118.23ZM204.074 117.95C204.531 117.399 204.76 116.606 204.76 115.57C204.76 114.534 204.531 113.741 204.074 113.19C203.617 112.639 203.033 112.364 202.324 112.364C201.633 112.364 201.055 112.644 200.588 113.204C200.121 113.764 199.888 114.553 199.888 115.57C199.888 116.597 200.117 117.39 200.574 117.95C201.041 118.501 201.624 118.776 202.324 118.776C203.033 118.776 203.617 118.501 204.074 117.95ZM207.425 117.404C207.425 116.564 207.859 115.901 208.727 115.416C209.604 114.921 210.715 114.651 212.059 114.604V114.114C212.059 113.601 211.886 113.181 211.541 112.854C211.205 112.527 210.71 112.364 210.057 112.364C208.844 112.364 208.069 112.835 207.733 113.778L207.341 113.61C207.472 113.181 207.77 112.803 208.237 112.476C208.704 112.14 209.31 111.972 210.057 111.972C210.888 111.972 211.494 112.182 211.877 112.602C212.269 113.013 212.465 113.545 212.465 114.198V117.74C212.465 118.02 212.53 118.235 212.661 118.384C212.801 118.533 212.983 118.608 213.207 118.608H213.781V119H213.263C212.862 119 212.572 118.893 212.395 118.678C212.227 118.454 212.152 118.071 212.171 117.53H211.877C211.42 118.622 210.622 119.168 209.483 119.168C208.858 119.168 208.358 119.014 207.985 118.706C207.612 118.389 207.425 117.955 207.425 117.404ZM212.059 115.822V114.968C210.808 115.024 209.796 115.262 209.021 115.682C208.246 116.102 207.859 116.676 207.859 117.404C207.859 117.815 208.008 118.146 208.307 118.398C208.606 118.65 209.007 118.776 209.511 118.776C210.202 118.776 210.799 118.524 211.303 118.02C211.807 117.507 212.059 116.774 212.059 115.822ZM215.353 119V112.14H215.745C215.745 112.747 215.684 113.344 215.563 113.932H215.885C215.997 113.372 216.23 112.919 216.585 112.574C216.94 112.229 217.411 112.056 217.999 112.056C218.428 112.056 218.783 112.103 219.063 112.196V112.602C218.68 112.518 218.321 112.476 217.985 112.476C217.238 112.476 216.678 112.803 216.305 113.456C215.932 114.1 215.745 114.903 215.745 115.864V119H215.353ZM226.158 119L222.812 115.178L221.146 116.606V119H220.74V109.2H221.146V114.534C221.146 115.113 221.067 115.575 220.908 115.92L221.118 116.13L225.696 112.14H226.312L223.12 114.912L226.704 119H226.158ZM231.939 110.432V109.2H232.373V110.432H231.939ZM229.951 121.73V121.338H230.679C231.538 121.338 231.967 120.834 231.967 119.826V112.14H232.373V119.882C232.373 120.479 232.224 120.937 231.925 121.254C231.636 121.571 231.234 121.73 230.721 121.73H229.951ZM234.617 115.584C234.617 114.464 234.93 113.582 235.555 112.938C236.181 112.294 236.913 111.972 237.753 111.972C238.593 111.972 239.326 112.294 239.951 112.938C240.577 113.582 240.889 114.464 240.889 115.584C240.889 116.713 240.577 117.595 239.951 118.23C239.335 118.855 238.603 119.168 237.753 119.168C236.904 119.168 236.167 118.855 235.541 118.23C234.925 117.595 234.617 116.713 234.617 115.584ZM240.455 115.584C240.455 114.604 240.189 113.825 239.657 113.246C239.125 112.658 238.491 112.364 237.753 112.364C237.016 112.364 236.381 112.658 235.849 113.246C235.317 113.825 235.051 114.604 235.051 115.584C235.051 116.573 235.317 117.353 235.849 117.922C236.381 118.491 237.016 118.776 237.753 118.776C238.491 118.776 239.125 118.491 239.657 117.922C240.189 117.353 240.455 116.573 240.455 115.584ZM248.552 119L245.206 115.178L243.54 116.606V119H243.134V109.2H243.54V114.534C243.54 115.113 243.461 115.575 243.302 115.92L243.512 116.13L248.09 112.14H248.706L245.514 114.912L249.098 119H248.552ZM249.561 115.36C249.561 114.324 249.837 113.503 250.387 112.896C250.938 112.28 251.61 111.972 252.403 111.972C253.234 111.972 253.911 112.266 254.433 112.854C254.956 113.433 255.217 114.193 255.217 115.136C255.217 115.257 255.213 115.369 255.203 115.472H249.995C249.995 116.601 250.219 117.437 250.667 117.978C251.125 118.51 251.713 118.776 252.431 118.776C253.01 118.776 253.505 118.617 253.915 118.3C254.335 117.973 254.62 117.581 254.769 117.124L255.161 117.306C255.003 117.791 254.681 118.225 254.195 118.608C253.71 118.981 253.122 119.168 252.431 119.168C251.535 119.168 250.831 118.846 250.317 118.202C249.813 117.558 249.561 116.611 249.561 115.36ZM249.981 115.094H254.811C254.811 114.226 254.578 113.554 254.111 113.078C253.645 112.602 253.075 112.364 252.403 112.364C251.685 112.364 251.106 112.625 250.667 113.148C250.238 113.661 250.009 114.31 249.981 115.094ZM256.763 117.222L257.169 117.082C257.215 117.53 257.439 117.927 257.841 118.272C258.251 118.608 258.765 118.776 259.381 118.776C260.053 118.776 260.566 118.641 260.921 118.37C261.285 118.099 261.467 117.754 261.467 117.334C261.467 116.951 261.327 116.629 261.047 116.368C260.776 116.097 260.398 115.901 259.913 115.78L258.877 115.514C258.289 115.355 257.836 115.145 257.519 114.884C257.211 114.623 257.057 114.249 257.057 113.764C257.057 113.251 257.271 112.826 257.701 112.49C258.13 112.145 258.681 111.972 259.353 111.972C259.978 111.972 260.491 112.126 260.893 112.434C261.303 112.733 261.569 113.106 261.691 113.554L261.299 113.722C261.233 113.377 261.028 113.064 260.683 112.784C260.337 112.504 259.894 112.364 259.353 112.364C258.765 112.364 258.303 112.495 257.967 112.756C257.64 113.017 257.477 113.33 257.477 113.694C257.477 114.394 257.915 114.847 258.793 115.052L259.843 115.318C261.215 115.663 261.901 116.335 261.901 117.334C261.901 117.875 261.691 118.319 261.271 118.664C260.851 119 260.221 119.168 259.381 119.168C258.597 119.168 257.981 118.981 257.533 118.608C257.094 118.235 256.837 117.773 256.763 117.222Z" fill="white"/>
</svg>
