<svg width="331" height="201" viewBox="0 0 331 201" fill="none" xmlns="http://www.w3.org/2000/svg">
<rect width="331" height="201" fill="black"/>
<path d="M80.1343 88.552L84.3583 86.488C85.9903 91.256 89.1263 93.64 93.7663 93.64C96.0383 93.64 97.8143 93.128 99.0943 92.104C100.374 91.08 101.014 89.72 101.014 88.024C101.014 86.584 100.502 85.416 99.4783 84.52C98.4543 83.624 96.8863 82.936 94.7743 82.456L90.2623 81.4C87.4463 80.728 85.3343 79.672 83.9263 78.232C82.5183 76.76 81.8143 74.744 81.8143 72.184C81.8143 69.432 82.8703 67.176 84.9823 65.416C87.1263 63.624 89.8783 62.728 93.2383 62.728C96.3423 62.728 98.9183 63.512 100.966 65.08C103.046 66.648 104.39 68.44 104.998 70.456L100.87 72.472C100.326 70.968 99.4303 69.656 98.1823 68.536C96.9663 67.352 95.1423 66.76 92.7103 66.76C90.6943 66.76 89.0783 67.24 87.8623 68.2C86.6783 69.16 86.0863 70.408 86.0863 71.944C86.0863 73.352 86.5023 74.44 87.3343 75.208C88.1983 75.976 89.6223 76.6 91.6063 77.08L96.3103 78.184C99.1903 78.856 101.446 80.008 103.078 81.64C104.71 83.272 105.526 85.272 105.526 87.64C105.526 90.68 104.454 93.112 102.31 94.936C100.166 96.76 97.2223 97.672 93.4783 97.672C90.0863 97.672 87.2223 96.84 84.8863 95.176C82.5503 93.512 80.9663 91.304 80.1343 88.552ZM111.501 97V73.24H115.389C115.389 74.648 114.781 76.248 113.565 78.04H115.821C117.133 74.392 119.357 72.568 122.493 72.568C124.157 72.568 125.597 73.064 126.813 74.056C128.061 75.016 128.909 76.344 129.357 78.04H131.181C131.501 76.664 132.301 75.416 133.581 74.296C134.893 73.144 136.429 72.568 138.189 72.568C140.685 72.568 142.669 73.368 144.141 74.968C145.645 76.536 146.397 78.664 146.397 81.352V97H142.317V82.456C142.317 78.296 140.573 76.216 137.085 76.216C135.261 76.216 133.885 76.744 132.957 77.8C132.157 78.76 131.613 79.88 131.325 81.16C131.069 82.44 130.941 84.04 130.941 85.96V97H126.957V82.456C126.957 78.296 125.197 76.216 121.677 76.216C119.885 76.216 118.541 76.744 117.645 77.8C116.269 79.496 115.581 82.216 115.581 85.96V97H111.501ZM152.574 90.856C152.574 87.848 153.95 85.624 156.702 84.184C159.486 82.68 163.102 81.768 167.55 81.448V80.776C167.55 77.704 165.806 76.168 162.318 76.168C159.022 76.168 156.894 77.624 155.934 80.536L152.046 79.096C152.59 77.272 153.742 75.736 155.502 74.488C157.262 73.208 159.55 72.568 162.366 72.568C165.374 72.568 167.662 73.288 169.23 74.728C170.83 76.168 171.63 78.168 171.63 80.728V92.008C171.63 92.552 171.726 92.92 171.918 93.112C172.11 93.304 172.478 93.4 173.022 93.4H175.518V97H173.694C171.966 97 170.798 96.664 170.19 95.992C169.582 95.288 169.278 93.96 169.278 92.008H167.55C167.134 93.704 166.27 95.08 164.958 96.136C163.646 97.16 162.046 97.672 160.158 97.672C157.79 97.672 155.934 97.064 154.59 95.848C153.246 94.632 152.574 92.968 152.574 90.856ZM167.55 87.16V84.52C160.382 85.32 156.798 87.32 156.798 90.52C156.798 91.672 157.166 92.584 157.902 93.256C158.67 93.896 159.774 94.216 161.214 94.216C162.942 94.216 164.43 93.608 165.678 92.392C166.926 91.144 167.55 89.4 167.55 87.16ZM179.891 97V73.24H183.923C183.923 75.064 183.043 77.304 181.283 79.96H183.827C184.467 77.656 185.395 75.912 186.611 74.728C187.859 73.512 189.539 72.904 191.651 72.904C192.515 72.904 193.331 73 194.099 73.192V77.368C193.139 77.208 192.291 77.128 191.555 77.128C186.499 77.128 183.971 80.12 183.971 86.104V97H179.891ZM201.227 91.24V76.696H195.707V73.24H201.227V65.8H205.307V73.24H211.787V76.696H205.307V91C205.307 91.832 205.499 92.44 205.883 92.824C206.267 93.208 206.875 93.4 207.707 93.4H212.651V97H207.179C203.211 97 201.227 95.08 201.227 91.24ZM216.277 80.2C216.181 75.144 217.749 70.952 220.981 67.624C224.245 64.296 228.229 62.664 232.933 62.728C237.605 62.664 241.541 64.296 244.741 67.624C247.973 70.92 249.557 75.112 249.493 80.2C249.493 84.36 248.421 87.96 246.277 91C248.069 92.696 249.941 93.544 251.893 93.544V97.672C248.053 97.672 245.589 96.024 244.501 92.728H242.725C241.541 94.2 240.085 95.4 238.357 96.328C236.661 97.224 234.853 97.672 232.933 97.672C228.229 97.736 224.245 96.104 220.981 92.776C217.749 89.448 216.181 85.256 216.277 80.2ZM240.853 90.664L240.133 89.752C238.565 87.768 237.237 86.36 236.149 85.528C235.093 84.696 233.781 84.232 232.213 84.136C231.925 84.136 231.669 84.152 231.445 84.184V79.864C232.021 79.8 232.485 79.768 232.837 79.768C234.885 79.768 236.901 80.616 238.885 82.312C240.293 83.56 241.333 85.544 242.005 88.264H243.781C244.517 86.152 244.885 83.464 244.885 80.2C244.885 76.264 243.781 73.048 241.573 70.552C239.397 68.056 236.501 66.808 232.885 66.808C229.237 66.808 226.325 68.056 224.149 70.552C221.973 73.048 220.885 76.264 220.885 80.2C220.885 84.136 221.973 87.352 224.149 89.848C226.325 92.344 229.237 93.592 232.885 93.592C235.989 93.592 238.645 92.616 240.853 90.664Z" fill="white"/>
<path d="M54.065 122L52.861 118.766H48.199L46.995 122H46.519L50.243 112.2H50.803L54.555 122H54.065ZM48.339 118.374H52.707L50.943 113.67C50.7843 113.25 50.705 112.853 50.705 112.48H50.341C50.3223 112.872 50.2383 113.269 50.089 113.67L48.339 118.374ZM59.8561 124.73V115.14H60.2481C60.2481 115.513 60.2341 115.793 60.2061 115.98C60.1967 116.092 60.1501 116.344 60.0661 116.736H60.4021C60.5514 116.241 60.8267 115.826 61.2281 115.49C61.6387 115.145 62.1287 114.972 62.6981 114.972C63.4914 114.972 64.1634 115.285 64.7141 115.91C65.2647 116.535 65.5401 117.422 65.5401 118.57C65.5401 119.718 65.2647 120.605 64.7141 121.23C64.1634 121.855 63.4914 122.168 62.6981 122.168C62.1194 122.168 61.6294 122 61.2281 121.664C60.8267 121.328 60.5514 120.908 60.4021 120.404H60.0801C60.1734 120.759 60.2247 121.001 60.2341 121.132C60.2527 121.356 60.2621 121.58 60.2621 121.804V124.73H59.8561ZM64.4061 120.95C64.8727 120.39 65.1061 119.597 65.1061 118.57C65.1061 117.543 64.8727 116.755 64.4061 116.204C63.9394 115.644 63.3607 115.364 62.6701 115.364C61.9514 115.364 61.3634 115.639 60.9061 116.19C60.4581 116.741 60.2341 117.534 60.2341 118.57C60.2341 119.606 60.4581 120.399 60.9061 120.95C61.3634 121.501 61.9514 121.776 62.6701 121.776C63.3607 121.776 63.9394 121.501 64.4061 120.95ZM67.8131 122V112.2H68.2191V122H67.8131ZM70.4943 120.404C70.4943 119.564 70.9283 118.901 71.7963 118.416C72.6736 117.921 73.7843 117.651 75.1283 117.604V117.114C75.1283 116.601 74.9556 116.181 74.6103 115.854C74.2743 115.527 73.7796 115.364 73.1263 115.364C71.913 115.364 71.1383 115.835 70.8023 116.778L70.4103 116.61C70.541 116.181 70.8396 115.803 71.3063 115.476C71.773 115.14 72.3796 114.972 73.1263 114.972C73.957 114.972 74.5636 115.182 74.9463 115.602C75.3383 116.013 75.5343 116.545 75.5343 117.198V120.74C75.5343 121.02 75.5996 121.235 75.7303 121.384C75.8703 121.533 76.0523 121.608 76.2763 121.608H76.8503V122H76.3323C75.931 122 75.6416 121.893 75.4643 121.678C75.2963 121.454 75.2216 121.071 75.2403 120.53H74.9463C74.489 121.622 73.691 122.168 72.5523 122.168C71.927 122.168 71.4276 122.014 71.0543 121.706C70.681 121.389 70.4943 120.955 70.4943 120.404ZM75.1283 118.822V117.968C73.8776 118.024 72.865 118.262 72.0903 118.682C71.3156 119.102 70.9283 119.676 70.9283 120.404C70.9283 120.815 71.0776 121.146 71.3763 121.398C71.675 121.65 72.0763 121.776 72.5803 121.776C73.271 121.776 73.8683 121.524 74.3723 121.02C74.8763 120.507 75.1283 119.774 75.1283 118.822ZM78.6983 120.18V115.518H76.8503V115.14H78.6983V113.166H79.1043V115.14H81.1903V115.518H79.1043V120.138C79.1043 121.118 79.5943 121.608 80.5743 121.608H81.4283V122H80.6583C79.3516 122 78.6983 121.393 78.6983 120.18ZM83.8129 122V115.518H81.9509V115.14H83.8129V114.02C83.8129 112.807 84.4662 112.2 85.7729 112.2H86.5429V112.592H85.6889C84.7089 112.592 84.2189 113.082 84.2189 114.062V115.14H86.3189V115.518H84.2189V122H83.8129ZM87.091 118.584C87.091 117.464 87.4036 116.582 88.029 115.938C88.6543 115.294 89.387 114.972 90.227 114.972C91.067 114.972 91.7996 115.294 92.425 115.938C93.0503 116.582 93.363 117.464 93.363 118.584C93.363 119.713 93.0503 120.595 92.425 121.23C91.809 121.855 91.0763 122.168 90.227 122.168C89.3776 122.168 88.6403 121.855 88.015 121.23C87.399 120.595 87.091 119.713 87.091 118.584ZM92.929 118.584C92.929 117.604 92.663 116.825 92.131 116.246C91.599 115.658 90.9643 115.364 90.227 115.364C89.4896 115.364 88.855 115.658 88.323 116.246C87.791 116.825 87.525 117.604 87.525 118.584C87.525 119.573 87.791 120.353 88.323 120.922C88.855 121.491 89.4896 121.776 90.227 121.776C90.9643 121.776 91.599 121.491 92.131 120.922C92.663 120.353 92.929 119.573 92.929 118.584ZM95.608 122V115.14H96C96 115.747 95.9393 116.344 95.818 116.932H96.14C96.252 116.372 96.4853 115.919 96.84 115.574C97.1947 115.229 97.666 115.056 98.254 115.056C98.6833 115.056 99.038 115.103 99.318 115.196V115.602C98.9353 115.518 98.576 115.476 98.24 115.476C97.4933 115.476 96.9333 115.803 96.56 116.456C96.1867 117.1 96 117.903 96 118.864V122H95.608ZM100.995 122V115.14H101.401C101.401 115.653 101.331 116.106 101.191 116.498H101.541C101.625 116.125 101.839 115.779 102.185 115.462C102.539 115.135 103.039 114.972 103.683 114.972C104.261 114.972 104.747 115.14 105.139 115.476C105.531 115.803 105.769 116.232 105.853 116.764H106.189C106.273 116.288 106.497 115.873 106.861 115.518C107.234 115.154 107.752 114.972 108.415 114.972C109.208 114.972 109.829 115.21 110.277 115.686C110.725 116.153 110.949 116.773 110.949 117.548V122H110.543V117.66C110.543 116.923 110.347 116.358 109.955 115.966C109.563 115.565 109.049 115.364 108.415 115.364C107.481 115.364 106.87 115.672 106.581 116.288C106.301 116.885 106.161 117.553 106.161 118.29V122H105.755V117.73C105.755 116.965 105.563 116.381 105.181 115.98C104.798 115.569 104.299 115.364 103.683 115.364C102.992 115.364 102.479 115.541 102.143 115.896C101.835 116.223 101.634 116.591 101.541 117.002C101.447 117.413 101.401 117.959 101.401 118.64V122H100.995ZM117.029 120.222L117.435 120.082C117.482 120.53 117.706 120.927 118.107 121.272C118.518 121.608 119.031 121.776 119.647 121.776C120.319 121.776 120.833 121.641 121.187 121.37C121.551 121.099 121.733 120.754 121.733 120.334C121.733 119.951 121.593 119.629 121.313 119.368C121.043 119.097 120.665 118.901 120.179 118.78L119.143 118.514C118.555 118.355 118.103 118.145 117.785 117.884C117.477 117.623 117.323 117.249 117.323 116.764C117.323 116.251 117.538 115.826 117.967 115.49C118.397 115.145 118.947 114.972 119.619 114.972C120.245 114.972 120.758 115.126 121.159 115.434C121.57 115.733 121.836 116.106 121.957 116.554L121.565 116.722C121.5 116.377 121.295 116.064 120.949 115.784C120.604 115.504 120.161 115.364 119.619 115.364C119.031 115.364 118.569 115.495 118.233 115.756C117.907 116.017 117.743 116.33 117.743 116.694C117.743 117.394 118.182 117.847 119.059 118.052L120.109 118.318C121.481 118.663 122.167 119.335 122.167 120.334C122.167 120.875 121.957 121.319 121.537 121.664C121.117 122 120.487 122.168 119.647 122.168C118.863 122.168 118.247 121.981 117.799 121.608C117.361 121.235 117.104 120.773 117.029 120.222ZM123.801 118.36C123.801 117.324 124.076 116.503 124.627 115.896C125.177 115.28 125.849 114.972 126.643 114.972C127.473 114.972 128.15 115.266 128.673 115.854C129.195 116.433 129.457 117.193 129.457 118.136C129.457 118.257 129.452 118.369 129.443 118.472H124.235C124.235 119.601 124.459 120.437 124.907 120.978C125.364 121.51 125.952 121.776 126.671 121.776C127.249 121.776 127.744 121.617 128.155 121.3C128.575 120.973 128.859 120.581 129.009 120.124L129.401 120.306C129.242 120.791 128.92 121.225 128.435 121.608C127.949 121.981 127.361 122.168 126.671 122.168C125.775 122.168 125.07 121.846 124.557 121.202C124.053 120.558 123.801 119.611 123.801 118.36ZM124.221 118.094H129.051C129.051 117.226 128.817 116.554 128.351 116.078C127.884 115.602 127.315 115.364 126.643 115.364C125.924 115.364 125.345 115.625 124.907 116.148C124.477 116.661 124.249 117.31 124.221 118.094ZM131.688 122V115.14H132.08C132.08 115.747 132.019 116.344 131.898 116.932H132.22C132.332 116.372 132.565 115.919 132.92 115.574C133.275 115.229 133.746 115.056 134.334 115.056C134.763 115.056 135.118 115.103 135.398 115.196V115.602C135.015 115.518 134.656 115.476 134.32 115.476C133.573 115.476 133.013 115.803 132.64 116.456C132.267 117.1 132.08 117.903 132.08 118.864V122H131.688ZM139.063 122L136.235 115.14H136.683L138.629 119.844C138.843 120.32 138.983 120.684 139.049 120.936C139.123 121.197 139.175 121.454 139.203 121.706H139.511C139.539 121.398 139.585 121.141 139.651 120.936C139.725 120.693 139.851 120.343 140.029 119.886L141.891 115.14H142.325L139.637 122H139.063ZM144.348 113.432V112.2H144.754V113.432H144.348ZM144.348 122V115.14H144.754L144.768 122H144.348ZM147.029 118.556C147.029 117.529 147.299 116.675 147.841 115.994C148.382 115.313 149.087 114.972 149.955 114.972C150.645 114.972 151.229 115.159 151.705 115.532C152.181 115.896 152.489 116.339 152.629 116.862L152.209 116.988C152.078 116.512 151.812 116.125 151.411 115.826C151.019 115.518 150.533 115.364 149.955 115.364C149.255 115.364 148.662 115.649 148.177 116.218C147.701 116.787 147.463 117.567 147.463 118.556C147.463 119.555 147.696 120.343 148.163 120.922C148.639 121.491 149.245 121.776 149.983 121.776C150.608 121.776 151.117 121.589 151.509 121.216C151.901 120.833 152.153 120.39 152.265 119.886L152.685 120.012C152.526 120.647 152.204 121.165 151.719 121.566C151.243 121.967 150.664 122.168 149.983 122.168C149.105 122.168 148.391 121.841 147.841 121.188C147.299 120.525 147.029 119.648 147.029 118.556ZM154.221 118.36C154.221 117.324 154.496 116.503 155.047 115.896C155.597 115.28 156.269 114.972 157.063 114.972C157.893 114.972 158.57 115.266 159.093 115.854C159.615 116.433 159.877 117.193 159.877 118.136C159.877 118.257 159.872 118.369 159.863 118.472H154.655C154.655 119.601 154.879 120.437 155.327 120.978C155.784 121.51 156.372 121.776 157.091 121.776C157.669 121.776 158.164 121.617 158.575 121.3C158.995 120.973 159.279 120.581 159.429 120.124L159.821 120.306C159.662 120.791 159.34 121.225 158.855 121.608C158.369 121.981 157.781 122.168 157.091 122.168C156.195 122.168 155.49 121.846 154.977 121.202C154.473 120.558 154.221 119.611 154.221 118.36ZM154.641 118.094H159.471C159.471 117.226 159.237 116.554 158.771 116.078C158.304 115.602 157.735 115.364 157.063 115.364C156.344 115.364 155.765 115.625 155.327 116.148C154.897 116.661 154.669 117.31 154.641 118.094ZM166.075 120.18V115.518H164.227V115.14H166.075V113.166H166.481V115.14H168.567V115.518H166.481V120.138C166.481 121.118 166.971 121.608 167.951 121.608H168.805V122H168.035C166.729 122 166.075 121.393 166.075 120.18ZM169.751 118.584C169.751 117.464 170.064 116.582 170.689 115.938C171.314 115.294 172.047 114.972 172.887 114.972C173.727 114.972 174.46 115.294 175.085 115.938C175.71 116.582 176.023 117.464 176.023 118.584C176.023 119.713 175.71 120.595 175.085 121.23C174.469 121.855 173.736 122.168 172.887 122.168C172.038 122.168 171.3 121.855 170.675 121.23C170.059 120.595 169.751 119.713 169.751 118.584ZM175.589 118.584C175.589 117.604 175.323 116.825 174.791 116.246C174.259 115.658 173.624 115.364 172.887 115.364C172.15 115.364 171.515 115.658 170.983 116.246C170.451 116.825 170.185 117.604 170.185 118.584C170.185 119.573 170.451 120.353 170.983 120.922C171.515 121.491 172.15 121.776 172.887 121.776C173.624 121.776 174.259 121.491 174.791 120.922C175.323 120.353 175.589 119.573 175.589 118.584ZM182.342 122V115.14H182.748C182.748 115.653 182.678 116.106 182.538 116.498H182.888C182.972 116.125 183.187 115.779 183.532 115.462C183.887 115.135 184.386 114.972 185.03 114.972C185.609 114.972 186.094 115.14 186.486 115.476C186.878 115.803 187.116 116.232 187.2 116.764H187.536C187.62 116.288 187.844 115.873 188.208 115.518C188.582 115.154 189.1 114.972 189.762 114.972C190.556 114.972 191.176 115.21 191.624 115.686C192.072 116.153 192.296 116.773 192.296 117.548V122H191.89V117.66C191.89 116.923 191.694 116.358 191.302 115.966C190.91 115.565 190.397 115.364 189.762 115.364C188.829 115.364 188.218 115.672 187.928 116.288C187.648 116.885 187.508 117.553 187.508 118.29V122H187.102V117.73C187.102 116.965 186.911 116.381 186.528 115.98C186.146 115.569 185.646 115.364 185.03 115.364C184.34 115.364 183.826 115.541 183.49 115.896C183.182 116.223 182.982 116.591 182.888 117.002C182.795 117.413 182.748 117.959 182.748 118.64V122H182.342ZM194.471 120.404C194.471 119.564 194.905 118.901 195.773 118.416C196.65 117.921 197.761 117.651 199.105 117.604V117.114C199.105 116.601 198.932 116.181 198.587 115.854C198.251 115.527 197.756 115.364 197.103 115.364C195.89 115.364 195.115 115.835 194.779 116.778L194.387 116.61C194.518 116.181 194.816 115.803 195.283 115.476C195.75 115.14 196.356 114.972 197.103 114.972C197.934 114.972 198.54 115.182 198.923 115.602C199.315 116.013 199.511 116.545 199.511 117.198V120.74C199.511 121.02 199.576 121.235 199.707 121.384C199.847 121.533 200.029 121.608 200.253 121.608H200.827V122H200.309C199.908 122 199.618 121.893 199.441 121.678C199.273 121.454 199.198 121.071 199.217 120.53H198.923C198.466 121.622 197.668 122.168 196.529 122.168C195.904 122.168 195.404 122.014 195.031 121.706C194.658 121.389 194.471 120.955 194.471 120.404ZM199.105 118.822V117.968C197.854 118.024 196.842 118.262 196.067 118.682C195.292 119.102 194.905 119.676 194.905 120.404C194.905 120.815 195.054 121.146 195.353 121.398C195.652 121.65 196.053 121.776 196.557 121.776C197.248 121.776 197.845 121.524 198.349 121.02C198.853 120.507 199.105 119.774 199.105 118.822ZM202.399 122V115.14H202.791C202.791 115.821 202.716 116.4 202.567 116.876H202.903C203.052 116.353 203.304 115.905 203.659 115.532C204.004 115.159 204.536 114.972 205.255 114.972C206.104 114.972 206.739 115.233 207.159 115.756C207.579 116.279 207.789 116.96 207.789 117.8V122H207.369V117.912C207.369 117.1 207.182 116.475 206.809 116.036C206.436 115.588 205.908 115.364 205.227 115.364C204.779 115.355 204.387 115.453 204.051 115.658C203.724 115.854 203.472 116.12 203.295 116.456C203.127 116.783 203.001 117.114 202.917 117.45C202.842 117.786 202.805 118.127 202.805 118.472V122H202.399ZM209.961 120.404C209.961 119.564 210.395 118.901 211.263 118.416C212.14 117.921 213.251 117.651 214.595 117.604V117.114C214.595 116.601 214.422 116.181 214.077 115.854C213.741 115.527 213.246 115.364 212.593 115.364C211.38 115.364 210.605 115.835 210.269 116.778L209.877 116.61C210.008 116.181 210.306 115.803 210.773 115.476C211.24 115.14 211.846 114.972 212.593 114.972C213.424 114.972 214.03 115.182 214.413 115.602C214.805 116.013 215.001 116.545 215.001 117.198V120.74C215.001 121.02 215.066 121.235 215.197 121.384C215.337 121.533 215.519 121.608 215.743 121.608H216.317V122H215.799C215.398 122 215.108 121.893 214.931 121.678C214.763 121.454 214.688 121.071 214.707 120.53H214.413C213.956 121.622 213.158 122.168 212.019 122.168C211.394 122.168 210.894 122.014 210.521 121.706C210.148 121.389 209.961 120.955 209.961 120.404ZM214.595 118.822V117.968C213.344 118.024 212.332 118.262 211.557 118.682C210.782 119.102 210.395 119.676 210.395 120.404C210.395 120.815 210.544 121.146 210.843 121.398C211.142 121.65 211.543 121.776 212.047 121.776C212.738 121.776 213.335 121.524 213.839 121.02C214.343 120.507 214.595 119.774 214.595 118.822ZM217.063 123.442C217.063 122.817 217.399 122.359 218.071 122.07V121.748C217.623 121.636 217.399 121.384 217.399 120.992C217.399 120.413 217.777 119.965 218.533 119.648V119.34C217.927 118.845 217.623 118.211 217.623 117.436C217.623 116.736 217.857 116.153 218.323 115.686C218.79 115.21 219.401 114.972 220.157 114.972C220.652 114.972 221.081 115.098 221.445 115.35C221.819 115.593 222.089 115.943 222.257 116.4H222.579C222.561 115.989 222.64 115.677 222.817 115.462C223.004 115.247 223.27 115.14 223.615 115.14H224.119V115.532H223.727C223.587 115.532 223.466 115.546 223.363 115.574C223.27 115.593 223.167 115.644 223.055 115.728C222.943 115.803 222.859 115.929 222.803 116.106C222.747 116.283 222.719 116.507 222.719 116.778V117.38C222.719 118.155 222.477 118.78 221.991 119.256C221.506 119.723 220.885 119.956 220.129 119.956C219.644 119.956 219.219 119.858 218.855 119.662C218.547 119.802 218.295 119.989 218.099 120.222C217.913 120.455 217.819 120.693 217.819 120.936C217.819 121.393 218.118 121.622 218.715 121.622H221.907C222.477 121.622 222.939 121.762 223.293 122.042C223.657 122.322 223.839 122.7 223.839 123.176C223.839 123.689 223.676 124.077 223.349 124.338C223.023 124.599 222.593 124.73 222.061 124.73H218.715C217.614 124.73 217.063 124.301 217.063 123.442ZM222.299 117.464C222.299 116.867 222.094 116.367 221.683 115.966C221.273 115.565 220.764 115.364 220.157 115.364C219.523 115.364 219.009 115.565 218.617 115.966C218.225 116.358 218.029 116.857 218.029 117.464C218.029 118.08 218.216 118.589 218.589 118.99C218.972 119.382 219.485 119.578 220.129 119.578C220.764 119.578 221.282 119.382 221.683 118.99C222.094 118.589 222.299 118.08 222.299 117.464ZM218.869 124.352H221.991C222.934 124.352 223.405 123.96 223.405 123.176C223.405 122.793 223.261 122.499 222.971 122.294C222.691 122.098 222.295 122 221.781 122H218.477C218.244 122.112 218.015 122.303 217.791 122.574C217.577 122.845 217.469 123.115 217.469 123.386C217.469 123.703 217.572 123.941 217.777 124.1C217.992 124.268 218.356 124.352 218.869 124.352ZM224.931 118.36C224.931 117.324 225.207 116.503 225.757 115.896C226.308 115.28 226.98 114.972 227.773 114.972C228.604 114.972 229.281 115.266 229.803 115.854C230.326 116.433 230.587 117.193 230.587 118.136C230.587 118.257 230.583 118.369 230.573 118.472H225.365C225.365 119.601 225.589 120.437 226.037 120.978C226.495 121.51 227.083 121.776 227.801 121.776C228.38 121.776 228.875 121.617 229.285 121.3C229.705 120.973 229.99 120.581 230.139 120.124L230.531 120.306C230.373 120.791 230.051 121.225 229.565 121.608C229.08 121.981 228.492 122.168 227.801 122.168C226.905 122.168 226.201 121.846 225.687 121.202C225.183 120.558 224.931 119.611 224.931 118.36ZM225.351 118.094H230.181C230.181 117.226 229.948 116.554 229.481 116.078C229.015 115.602 228.445 115.364 227.773 115.364C227.055 115.364 226.476 115.625 226.037 116.148C225.608 116.661 225.379 117.31 225.351 118.094ZM236.893 122V112.2H237.285V115.14C237.285 115.821 237.21 116.4 237.061 116.876H237.397C237.546 116.353 237.798 115.905 238.153 115.532C238.498 115.159 239.03 114.972 239.749 114.972C240.598 114.972 241.233 115.233 241.653 115.756C242.073 116.279 242.283 116.96 242.283 117.8V122H241.863V117.912C241.863 117.1 241.676 116.475 241.303 116.036C240.93 115.588 240.402 115.364 239.721 115.364C239.273 115.355 238.881 115.453 238.545 115.658C238.218 115.854 237.966 116.12 237.789 116.456C237.621 116.783 237.495 117.114 237.411 117.45C237.336 117.786 237.299 118.127 237.299 118.472V122H236.893ZM244.413 118.584C244.413 117.464 244.726 116.582 245.351 115.938C245.977 115.294 246.709 114.972 247.549 114.972C248.389 114.972 249.122 115.294 249.747 115.938C250.373 116.582 250.685 117.464 250.685 118.584C250.685 119.713 250.373 120.595 249.747 121.23C249.131 121.855 248.399 122.168 247.549 122.168C246.7 122.168 245.963 121.855 245.337 121.23C244.721 120.595 244.413 119.713 244.413 118.584ZM250.251 118.584C250.251 117.604 249.985 116.825 249.453 116.246C248.921 115.658 248.287 115.364 247.549 115.364C246.812 115.364 246.177 115.658 245.645 116.246C245.113 116.825 244.847 117.604 244.847 118.584C244.847 119.573 245.113 120.353 245.645 120.922C246.177 121.491 246.812 121.776 247.549 121.776C248.287 121.776 248.921 121.491 249.453 120.922C249.985 120.353 250.251 119.573 250.251 118.584ZM252.244 120.222L252.65 120.082C252.697 120.53 252.921 120.927 253.322 121.272C253.733 121.608 254.246 121.776 254.862 121.776C255.534 121.776 256.048 121.641 256.402 121.37C256.766 121.099 256.948 120.754 256.948 120.334C256.948 119.951 256.808 119.629 256.528 119.368C256.258 119.097 255.88 118.901 255.394 118.78L254.358 118.514C253.77 118.355 253.318 118.145 253 117.884C252.692 117.623 252.538 117.249 252.538 116.764C252.538 116.251 252.753 115.826 253.182 115.49C253.612 115.145 254.162 114.972 254.834 114.972C255.46 114.972 255.973 115.126 256.374 115.434C256.785 115.733 257.051 116.106 257.172 116.554L256.78 116.722C256.715 116.377 256.51 116.064 256.164 115.784C255.819 115.504 255.376 115.364 254.834 115.364C254.246 115.364 253.784 115.495 253.448 115.756C253.122 116.017 252.958 116.33 252.958 116.694C252.958 117.394 253.397 117.847 254.274 118.052L255.324 118.318C256.696 118.663 257.382 119.335 257.382 120.334C257.382 120.875 257.172 121.319 256.752 121.664C256.332 122 255.702 122.168 254.862 122.168C254.078 122.168 253.462 121.981 253.014 121.608C252.576 121.235 252.319 120.773 252.244 120.222ZM259.547 124.73V115.14H259.939C259.939 115.513 259.925 115.793 259.897 115.98C259.888 116.092 259.841 116.344 259.757 116.736H260.093C260.243 116.241 260.518 115.826 260.919 115.49C261.33 115.145 261.82 114.972 262.389 114.972C263.183 114.972 263.855 115.285 264.405 115.91C264.956 116.535 265.231 117.422 265.231 118.57C265.231 119.718 264.956 120.605 264.405 121.23C263.855 121.855 263.183 122.168 262.389 122.168C261.811 122.168 261.321 122 260.919 121.664C260.518 121.328 260.243 120.908 260.093 120.404H259.771C259.865 120.759 259.916 121.001 259.925 121.132C259.944 121.356 259.953 121.58 259.953 121.804V124.73H259.547ZM264.097 120.95C264.564 120.39 264.797 119.597 264.797 118.57C264.797 117.543 264.564 116.755 264.097 116.204C263.631 115.644 263.052 115.364 262.361 115.364C261.643 115.364 261.055 115.639 260.597 116.19C260.149 116.741 259.925 117.534 259.925 118.57C259.925 119.606 260.149 120.399 260.597 120.95C261.055 121.501 261.643 121.776 262.361 121.776C263.052 121.776 263.631 121.501 264.097 120.95ZM267.504 113.432V112.2H267.91V113.432H267.504ZM267.504 122V115.14H267.91L267.924 122H267.504ZM271.417 120.18V115.518H269.569V115.14H271.417V113.166H271.823V115.14H273.909V115.518H271.823V120.138C271.823 121.118 272.313 121.608 273.293 121.608H274.147V122H273.377C272.07 122 271.417 121.393 271.417 120.18ZM275.272 120.404C275.272 119.564 275.706 118.901 276.574 118.416C277.451 117.921 278.562 117.651 279.906 117.604V117.114C279.906 116.601 279.733 116.181 279.388 115.854C279.052 115.527 278.557 115.364 277.904 115.364C276.69 115.364 275.916 115.835 275.58 116.778L275.188 116.61C275.318 116.181 275.617 115.803 276.084 115.476C276.55 115.14 277.157 114.972 277.904 114.972C278.734 114.972 279.341 115.182 279.724 115.602C280.116 116.013 280.312 116.545 280.312 117.198V120.74C280.312 121.02 280.377 121.235 280.508 121.384C280.648 121.533 280.83 121.608 281.054 121.608H281.628V122H281.11C280.708 122 280.419 121.893 280.242 121.678C280.074 121.454 279.999 121.071 280.018 120.53H279.724C279.266 121.622 278.468 122.168 277.33 122.168C276.704 122.168 276.205 122.014 275.832 121.706C275.458 121.389 275.272 120.955 275.272 120.404ZM279.906 118.822V117.968C278.655 118.024 277.642 118.262 276.868 118.682C276.093 119.102 275.706 119.676 275.706 120.404C275.706 120.815 275.855 121.146 276.154 121.398C276.452 121.65 276.854 121.776 277.358 121.776C278.048 121.776 278.646 121.524 279.15 121.02C279.654 120.507 279.906 119.774 279.906 118.822ZM283.2 122V112.2H283.606V122H283.2ZM114.34 138.73V135.804C114.34 135.58 114.35 135.356 114.368 135.132C114.378 135.076 114.429 134.833 114.522 134.404H114.2C114.051 134.908 113.776 135.328 113.374 135.664C112.973 136 112.483 136.168 111.904 136.168C111.111 136.168 110.439 135.855 109.888 135.23C109.338 134.595 109.062 133.709 109.062 132.57C109.062 131.431 109.338 130.549 109.888 129.924C110.439 129.289 111.111 128.972 111.904 128.972C112.474 128.972 112.959 129.145 113.36 129.49C113.771 129.826 114.051 130.241 114.2 130.736H114.536C114.452 130.344 114.401 130.092 114.382 129.98C114.364 129.737 114.354 129.457 114.354 129.14H114.746V138.73H114.34ZM113.682 134.95C114.14 134.399 114.368 133.606 114.368 132.57C114.368 131.534 114.14 130.741 113.682 130.19C113.225 129.639 112.642 129.364 111.932 129.364C111.232 129.364 110.649 129.644 110.182 130.204C109.725 130.755 109.496 131.543 109.496 132.57C109.496 133.597 109.725 134.39 110.182 134.95C110.649 135.501 111.232 135.776 111.932 135.776C112.642 135.776 113.225 135.501 113.682 134.95ZM117.439 133.424V129.14H117.845V133.284C117.845 134.115 118.023 134.74 118.377 135.16C118.741 135.571 119.25 135.776 119.903 135.776C120.622 135.776 121.196 135.501 121.625 134.95C122.055 134.39 122.269 133.62 122.269 132.64V129.14H122.675V136H122.269C122.269 135.449 122.344 134.875 122.493 134.278H122.171C122.041 134.745 121.812 135.174 121.485 135.566C121.149 135.967 120.627 136.168 119.917 136.168C119.096 136.168 118.475 135.93 118.055 135.454C117.645 134.978 117.439 134.301 117.439 133.424ZM124.949 132.36C124.949 131.324 125.224 130.503 125.775 129.896C126.326 129.28 126.998 128.972 127.791 128.972C128.622 128.972 129.298 129.266 129.821 129.854C130.344 130.433 130.605 131.193 130.605 132.136C130.605 132.257 130.6 132.369 130.591 132.472H125.383C125.383 133.601 125.607 134.437 126.055 134.978C126.512 135.51 127.1 135.776 127.819 135.776C128.398 135.776 128.892 135.617 129.303 135.3C129.723 134.973 130.008 134.581 130.157 134.124L130.549 134.306C130.39 134.791 130.068 135.225 129.583 135.608C129.098 135.981 128.51 136.168 127.819 136.168C126.923 136.168 126.218 135.846 125.705 135.202C125.201 134.558 124.949 133.611 124.949 132.36ZM125.369 132.094H130.199C130.199 131.226 129.966 130.554 129.499 130.078C129.032 129.602 128.463 129.364 127.791 129.364C127.072 129.364 126.494 129.625 126.055 130.148C125.626 130.661 125.397 131.31 125.369 132.094ZM132.725 133.424V129.14H133.131V133.284C133.131 134.115 133.308 134.74 133.663 135.16C134.027 135.571 134.535 135.776 135.189 135.776C135.907 135.776 136.481 135.501 136.911 134.95C137.34 134.39 137.555 133.62 137.555 132.64V129.14H137.961V136H137.555C137.555 135.449 137.629 134.875 137.779 134.278H137.457C137.326 134.745 137.097 135.174 136.771 135.566C136.435 135.967 135.912 136.168 135.203 136.168C134.381 136.168 133.761 135.93 133.341 135.454C132.93 134.978 132.725 134.301 132.725 133.424ZM140.234 132.36C140.234 131.324 140.51 130.503 141.06 129.896C141.611 129.28 142.283 128.972 143.076 128.972C143.907 128.972 144.584 129.266 145.106 129.854C145.629 130.433 145.89 131.193 145.89 132.136C145.89 132.257 145.886 132.369 145.876 132.472H140.668C140.668 133.601 140.892 134.437 141.34 134.978C141.798 135.51 142.386 135.776 143.104 135.776C143.683 135.776 144.178 135.617 144.588 135.3C145.008 134.973 145.293 134.581 145.442 134.124L145.834 134.306C145.676 134.791 145.354 135.225 144.868 135.608C144.383 135.981 143.795 136.168 143.104 136.168C142.208 136.168 141.504 135.846 140.99 135.202C140.486 134.558 140.234 133.611 140.234 132.36ZM140.654 132.094H145.484C145.484 131.226 145.251 130.554 144.784 130.078C144.318 129.602 143.748 129.364 143.076 129.364C142.358 129.364 141.779 129.625 141.34 130.148C140.911 130.661 140.682 131.31 140.654 132.094ZM147.436 134.222L147.842 134.082C147.888 134.53 148.112 134.927 148.514 135.272C148.924 135.608 149.438 135.776 150.054 135.776C150.726 135.776 151.239 135.641 151.594 135.37C151.958 135.099 152.14 134.754 152.14 134.334C152.14 133.951 152 133.629 151.72 133.368C151.449 133.097 151.071 132.901 150.586 132.78L149.55 132.514C148.962 132.355 148.509 132.145 148.192 131.884C147.884 131.623 147.73 131.249 147.73 130.764C147.73 130.251 147.944 129.826 148.374 129.49C148.803 129.145 149.354 128.972 150.026 128.972C150.651 128.972 151.164 129.126 151.566 129.434C151.976 129.733 152.242 130.106 152.364 130.554L151.972 130.722C151.906 130.377 151.701 130.064 151.356 129.784C151.01 129.504 150.567 129.364 150.026 129.364C149.438 129.364 148.976 129.495 148.64 129.756C148.313 130.017 148.15 130.33 148.15 130.694C148.15 131.394 148.588 131.847 149.466 132.052L150.516 132.318C151.888 132.663 152.574 133.335 152.574 134.334C152.574 134.875 152.364 135.319 151.944 135.664C151.524 136 150.894 136.168 150.054 136.168C149.27 136.168 148.654 135.981 148.206 135.608C147.767 135.235 147.51 134.773 147.436 134.222ZM158.281 132.36C158.281 131.324 158.556 130.503 159.107 129.896C159.658 129.28 160.33 128.972 161.123 128.972C161.954 128.972 162.63 129.266 163.153 129.854C163.676 130.433 163.937 131.193 163.937 132.136C163.937 132.257 163.932 132.369 163.923 132.472H158.715C158.715 133.601 158.939 134.437 159.387 134.978C159.844 135.51 160.432 135.776 161.151 135.776C161.73 135.776 162.224 135.617 162.635 135.3C163.055 134.973 163.34 134.581 163.489 134.124L163.881 134.306C163.722 134.791 163.4 135.225 162.915 135.608C162.43 135.981 161.842 136.168 161.151 136.168C160.255 136.168 159.55 135.846 159.037 135.202C158.533 134.558 158.281 133.611 158.281 132.36ZM158.701 132.094H163.531C163.531 131.226 163.298 130.554 162.831 130.078C162.364 129.602 161.795 129.364 161.123 129.364C160.404 129.364 159.826 129.625 159.387 130.148C158.958 130.661 158.729 131.31 158.701 132.094ZM171.576 128.062V129.14H173.676V129.518H171.576V136H171.17V129.518H167.18V136H166.774V129.518H164.912V129.14H166.774V128.02C166.774 126.807 167.427 126.2 168.734 126.2H169.504V126.592H168.65C167.67 126.592 167.18 127.082 167.18 128.062V129.14H171.17V128.02C171.17 126.807 171.823 126.2 173.13 126.2H173.9V126.592H173.046C172.066 126.592 171.576 127.082 171.576 128.062ZM174.482 132.36C174.482 131.324 174.758 130.503 175.308 129.896C175.859 129.28 176.531 128.972 177.324 128.972C178.155 128.972 178.832 129.266 179.354 129.854C179.877 130.433 180.138 131.193 180.138 132.136C180.138 132.257 180.134 132.369 180.124 132.472H174.916C174.916 133.601 175.14 134.437 175.588 134.978C176.046 135.51 176.634 135.776 177.352 135.776C177.931 135.776 178.426 135.617 178.836 135.3C179.256 134.973 179.541 134.581 179.69 134.124L180.082 134.306C179.924 134.791 179.602 135.225 179.116 135.608C178.631 135.981 178.043 136.168 177.352 136.168C176.456 136.168 175.752 135.846 175.238 135.202C174.734 134.558 174.482 133.611 174.482 132.36ZM174.902 132.094H179.732C179.732 131.226 179.499 130.554 179.032 130.078C178.566 129.602 177.996 129.364 177.324 129.364C176.606 129.364 176.027 129.625 175.588 130.148C175.159 130.661 174.93 131.31 174.902 132.094ZM181.824 132.556C181.824 131.529 182.094 130.675 182.636 129.994C183.177 129.313 183.882 128.972 184.75 128.972C185.44 128.972 186.024 129.159 186.5 129.532C186.976 129.896 187.284 130.339 187.424 130.862L187.004 130.988C186.873 130.512 186.607 130.125 186.206 129.826C185.814 129.518 185.328 129.364 184.75 129.364C184.05 129.364 183.457 129.649 182.972 130.218C182.496 130.787 182.258 131.567 182.258 132.556C182.258 133.555 182.491 134.343 182.958 134.922C183.434 135.491 184.04 135.776 184.778 135.776C185.403 135.776 185.912 135.589 186.304 135.216C186.696 134.833 186.948 134.39 187.06 133.886L187.48 134.012C187.321 134.647 186.999 135.165 186.514 135.566C186.038 135.967 185.459 136.168 184.778 136.168C183.9 136.168 183.186 135.841 182.636 135.188C182.094 134.525 181.824 133.648 181.824 132.556ZM190.233 134.18V129.518H188.385V129.14H190.233V127.166H190.639V129.14H192.725V129.518H190.639V134.138C190.639 135.118 191.129 135.608 192.109 135.608H192.963V136H192.193C190.887 136 190.233 135.393 190.233 134.18ZM194.606 127.432V126.2H195.012V127.432H194.606ZM194.606 136V129.14H195.012L195.026 136H194.606ZM199.821 136L196.993 129.14H197.441L199.387 133.844C199.601 134.32 199.741 134.684 199.807 134.936C199.881 135.197 199.933 135.454 199.961 135.706H200.269C200.297 135.398 200.343 135.141 200.409 134.936C200.483 134.693 200.609 134.343 200.787 133.886L202.649 129.14H203.083L200.395 136H199.821ZM204.41 132.36C204.41 131.324 204.685 130.503 205.236 129.896C205.787 129.28 206.459 128.972 207.252 128.972C208.083 128.972 208.759 129.266 209.282 129.854C209.805 130.433 210.066 131.193 210.066 132.136C210.066 132.257 210.061 132.369 210.052 132.472H204.844C204.844 133.601 205.068 134.437 205.516 134.978C205.973 135.51 206.561 135.776 207.28 135.776C207.859 135.776 208.353 135.617 208.764 135.3C209.184 134.973 209.469 134.581 209.618 134.124L210.01 134.306C209.851 134.791 209.529 135.225 209.044 135.608C208.559 135.981 207.971 136.168 207.28 136.168C206.384 136.168 205.679 135.846 205.166 135.202C204.662 134.558 204.41 133.611 204.41 132.36ZM204.83 132.094H209.66C209.66 131.226 209.427 130.554 208.96 130.078C208.493 129.602 207.924 129.364 207.252 129.364C206.533 129.364 205.955 129.625 205.516 130.148C205.087 130.661 204.858 131.31 204.83 132.094ZM212.297 136V126.2H212.703V136H212.297ZM220.005 129.14H220.453L217.513 137.12C217.298 137.717 217.051 138.133 216.771 138.366C216.5 138.609 216.075 138.73 215.497 138.73H214.741V138.338H215.497C215.917 138.338 216.248 138.245 216.491 138.058C216.743 137.881 216.962 137.535 217.149 137.022L217.639 135.692L214.643 129.14H215.091L217.177 133.69C217.251 133.83 217.354 134.073 217.485 134.418C217.615 134.763 217.676 135.039 217.667 135.244H218.003C218.012 134.824 218.129 134.306 218.353 133.69L220.005 129.14ZM220.946 136V134.824H221.646V136H220.946Z" fill="white"/>
</svg>
