<svg width="331" height="201" viewBox="0 0 331 201" fill="none" xmlns="http://www.w3.org/2000/svg">
<rect width="331" height="201" fill="black"/>
<path d="M49.7749 88.552L53.9989 86.488C55.6309 91.256 58.7669 93.64 63.4069 93.64C65.6789 93.64 67.4549 93.128 68.7349 92.104C70.0149 91.08 70.6549 89.72 70.6549 88.024C70.6549 86.584 70.1429 85.416 69.1189 84.52C68.0949 83.624 66.5269 82.936 64.4149 82.456L59.9029 81.4C57.0869 80.728 54.9749 79.672 53.5669 78.232C52.1589 76.76 51.4549 74.744 51.4549 72.184C51.4549 69.432 52.5109 67.176 54.6229 65.416C56.7669 63.624 59.5189 62.728 62.8789 62.728C65.9829 62.728 68.5589 63.512 70.6069 65.08C72.6869 66.648 74.0309 68.44 74.6389 70.456L70.5109 72.472C69.9669 70.968 69.0709 69.656 67.8229 68.536C66.6069 67.352 64.7829 66.76 62.3509 66.76C60.3349 66.76 58.7189 67.24 57.5029 68.2C56.3189 69.16 55.7269 70.408 55.7269 71.944C55.7269 73.352 56.1429 74.44 56.9749 75.208C57.8389 75.976 59.2629 76.6 61.2469 77.08L65.9509 78.184C68.8309 78.856 71.0869 80.008 72.7189 81.64C74.3509 83.272 75.1669 85.272 75.1669 87.64C75.1669 90.68 74.0949 93.112 71.9509 94.936C69.8069 96.76 66.8629 97.672 63.1189 97.672C59.7269 97.672 56.8629 96.84 54.5269 95.176C52.1909 93.512 50.6069 91.304 49.7749 88.552ZM81.2741 88.744V73.24H85.3541V87.784C85.3541 91.976 87.0661 94.072 90.4901 94.072C92.4421 94.072 93.8981 93.48 94.8581 92.296C95.7541 91.208 96.3301 89.976 96.5861 88.6C96.8741 87.192 97.0181 85.432 97.0181 83.32V73.24H101.098V97H97.2101C97.2421 95.528 97.9621 93.672 99.3701 91.432H97.0181C95.4821 95.592 92.9381 97.672 89.3861 97.672C86.7301 97.672 84.7141 96.888 83.3381 95.32C81.9621 93.752 81.2741 91.56 81.2741 88.744ZM109.173 97V63.4H113.253V97H109.173ZM121.313 97V63.4H125.393V97H121.313ZM133.31 68.584V63.4H137.63V68.584H133.31ZM133.454 97V73.24H137.534V97H133.454ZM144.059 90.856C144.059 87.848 145.435 85.624 148.187 84.184C150.971 82.68 154.587 81.768 159.035 81.448V80.776C159.035 77.704 157.291 76.168 153.803 76.168C150.507 76.168 148.379 77.624 147.419 80.536L143.531 79.096C144.075 77.272 145.227 75.736 146.987 74.488C148.747 73.208 151.035 72.568 153.851 72.568C156.859 72.568 159.147 73.288 160.715 74.728C162.315 76.168 163.115 78.168 163.115 80.728V92.008C163.115 92.552 163.211 92.92 163.403 93.112C163.595 93.304 163.963 93.4 164.507 93.4H167.003V97H165.179C163.451 97 162.283 96.664 161.675 95.992C161.067 95.288 160.763 93.96 160.763 92.008H159.035C158.619 93.704 157.755 95.08 156.443 96.136C155.131 97.16 153.531 97.672 151.643 97.672C149.275 97.672 147.419 97.064 146.075 95.848C144.731 94.632 144.059 92.968 144.059 90.856ZM159.035 87.16V84.52C151.867 85.32 148.283 87.32 148.283 90.52C148.283 91.672 148.651 92.584 149.387 93.256C150.155 93.896 151.259 94.216 152.699 94.216C154.427 94.216 155.915 93.608 157.163 92.392C158.411 91.144 159.035 89.4 159.035 87.16ZM204.35 97L201.134 87.928H186.158L182.894 97H178.238L190.814 63.4H196.91L209.198 97H204.35ZM187.598 83.848H199.694L196.334 74.344C195.694 72.488 195.262 71.112 195.038 70.216C194.782 69.128 194.654 67.928 194.654 66.616H192.734C192.702 67.832 192.542 69.08 192.254 70.36C191.998 71.48 191.598 72.808 191.054 74.344L187.598 83.848ZM213.274 88.744V73.24H217.354V87.784C217.354 91.976 219.066 94.072 222.49 94.072C224.442 94.072 225.898 93.48 226.858 92.296C227.754 91.208 228.33 89.976 228.586 88.6C228.874 87.192 229.018 85.432 229.018 83.32V73.24H233.098V97H229.21C229.242 95.528 229.962 93.672 231.37 91.432H229.018C227.482 95.592 224.938 97.672 221.386 97.672C218.73 97.672 216.714 96.888 215.338 95.32C213.962 93.752 213.274 91.56 213.274 88.744ZM243.477 91.24V76.696H237.957V73.24H243.477V65.8H247.557V73.24H254.037V76.696H247.557V91C247.557 91.832 247.749 92.44 248.133 92.824C248.517 93.208 249.125 93.4 249.957 93.4H254.901V97H249.429C245.461 97 243.477 95.08 243.477 91.24ZM257.723 85.144C257.723 81.56 258.763 78.568 260.843 76.168C262.955 73.768 265.595 72.568 268.763 72.568C271.931 72.568 274.555 73.768 276.635 76.168C278.747 78.568 279.802 81.56 279.802 85.144C279.802 88.696 278.731 91.672 276.587 94.072C274.475 96.472 271.867 97.672 268.763 97.672C265.691 97.736 263.067 96.536 260.891 94.072C258.715 91.608 257.659 88.632 257.723 85.144ZM275.579 85.192C275.579 82.28 274.955 80.056 273.707 78.52C272.491 76.952 270.843 76.168 268.763 76.168C266.651 76.168 264.987 76.952 263.771 78.52C262.555 80.056 261.947 82.28 261.947 85.192C261.947 88.072 262.555 90.28 263.771 91.816C264.987 93.32 266.651 94.072 268.763 94.072C270.875 94.072 272.539 93.32 273.755 91.816C274.971 90.28 275.579 88.072 275.579 85.192Z" fill="white"/>
<path d="M60.3951 122L59.1911 118.766H54.5291L53.3251 122H52.8491L56.5731 112.2H57.1331L60.8851 122H60.3951ZM54.6691 118.374H59.0371L57.2731 113.67C57.1144 113.25 57.0351 112.853 57.0351 112.48H56.6711C56.6524 112.872 56.5684 113.269 56.4191 113.67L54.6691 118.374ZM66.1861 124.73V115.14H66.5781C66.5781 115.513 66.5641 115.793 66.5361 115.98C66.5268 116.092 66.4801 116.344 66.3961 116.736H66.7321C66.8815 116.241 67.1568 115.826 67.5581 115.49C67.9688 115.145 68.4588 114.972 69.0281 114.972C69.8215 114.972 70.4935 115.285 71.0441 115.91C71.5948 116.535 71.8701 117.422 71.8701 118.57C71.8701 119.718 71.5948 120.605 71.0441 121.23C70.4935 121.855 69.8215 122.168 69.0281 122.168C68.4495 122.168 67.9595 122 67.5581 121.664C67.1568 121.328 66.8815 120.908 66.7321 120.404H66.4101C66.5035 120.759 66.5548 121.001 66.5641 121.132C66.5828 121.356 66.5921 121.58 66.5921 121.804V124.73H66.1861ZM70.7361 120.95C71.2028 120.39 71.4361 119.597 71.4361 118.57C71.4361 117.543 71.2028 116.755 70.7361 116.204C70.2695 115.644 69.6908 115.364 69.0001 115.364C68.2815 115.364 67.6935 115.639 67.2361 116.19C66.7881 116.741 66.5641 117.534 66.5641 118.57C66.5641 119.606 66.7881 120.399 67.2361 120.95C67.6935 121.501 68.2815 121.776 69.0001 121.776C69.6908 121.776 70.2695 121.501 70.7361 120.95ZM74.1432 122V112.2H74.5492V122H74.1432ZM76.8244 120.404C76.8244 119.564 77.2584 118.901 78.1264 118.416C79.0037 117.921 80.1144 117.651 81.4584 117.604V117.114C81.4584 116.601 81.2857 116.181 80.9404 115.854C80.6044 115.527 80.1097 115.364 79.4564 115.364C78.243 115.364 77.4684 115.835 77.1324 116.778L76.7404 116.61C76.871 116.181 77.1697 115.803 77.6364 115.476C78.103 115.14 78.7097 114.972 79.4564 114.972C80.287 114.972 80.8937 115.182 81.2764 115.602C81.6684 116.013 81.8644 116.545 81.8644 117.198V120.74C81.8644 121.02 81.9297 121.235 82.0604 121.384C82.2004 121.533 82.3824 121.608 82.6064 121.608H83.1804V122H82.6624C82.261 122 81.9717 121.893 81.7944 121.678C81.6264 121.454 81.5517 121.071 81.5704 120.53H81.2764C80.819 121.622 80.021 122.168 78.8824 122.168C78.257 122.168 77.7577 122.014 77.3844 121.706C77.011 121.389 76.8244 120.955 76.8244 120.404ZM81.4584 118.822V117.968C80.2077 118.024 79.195 118.262 78.4204 118.682C77.6457 119.102 77.2584 119.676 77.2584 120.404C77.2584 120.815 77.4077 121.146 77.7064 121.398C78.005 121.65 78.4064 121.776 78.9104 121.776C79.601 121.776 80.1984 121.524 80.7024 121.02C81.2064 120.507 81.4584 119.774 81.4584 118.822ZM85.0284 120.18V115.518H83.1804V115.14H85.0284V113.166H85.4344V115.14H87.5204V115.518H85.4344V120.138C85.4344 121.118 85.9244 121.608 86.9044 121.608H87.7584V122H86.9884C85.6817 122 85.0284 121.393 85.0284 120.18ZM90.143 122V115.518H88.281V115.14H90.143V114.02C90.143 112.807 90.7963 112.2 92.103 112.2H92.873V112.592H92.019C91.039 112.592 90.549 113.082 90.549 114.062V115.14H92.649V115.518H90.549V122H90.143ZM93.4211 118.584C93.4211 117.464 93.7337 116.582 94.3591 115.938C94.9844 115.294 95.7171 114.972 96.5571 114.972C97.3971 114.972 98.1297 115.294 98.7551 115.938C99.3804 116.582 99.6931 117.464 99.6931 118.584C99.6931 119.713 99.3804 120.595 98.7551 121.23C98.1391 121.855 97.4064 122.168 96.5571 122.168C95.7077 122.168 94.9704 121.855 94.3451 121.23C93.7291 120.595 93.4211 119.713 93.4211 118.584ZM99.2591 118.584C99.2591 117.604 98.9931 116.825 98.4611 116.246C97.9291 115.658 97.2944 115.364 96.5571 115.364C95.8197 115.364 95.1851 115.658 94.6531 116.246C94.1211 116.825 93.8551 117.604 93.8551 118.584C93.8551 119.573 94.1211 120.353 94.6531 120.922C95.1851 121.491 95.8197 121.776 96.5571 121.776C97.2944 121.776 97.9291 121.491 98.4611 120.922C98.9931 120.353 99.2591 119.573 99.2591 118.584ZM101.938 122V115.14H102.33C102.33 115.747 102.269 116.344 102.148 116.932H102.47C102.582 116.372 102.815 115.919 103.17 115.574C103.525 115.229 103.996 115.056 104.584 115.056C105.013 115.056 105.368 115.103 105.648 115.196V115.602C105.265 115.518 104.906 115.476 104.57 115.476C103.823 115.476 103.263 115.803 102.89 116.456C102.517 117.1 102.33 117.903 102.33 118.864V122H101.938ZM107.325 122V115.14H107.731C107.731 115.653 107.661 116.106 107.521 116.498H107.871C107.955 116.125 108.169 115.779 108.515 115.462C108.869 115.135 109.369 114.972 110.013 114.972C110.591 114.972 111.077 115.14 111.469 115.476C111.861 115.803 112.099 116.232 112.183 116.764H112.519C112.603 116.288 112.827 115.873 113.191 115.518C113.564 115.154 114.082 114.972 114.745 114.972C115.538 114.972 116.159 115.21 116.607 115.686C117.055 116.153 117.279 116.773 117.279 117.548V122H116.873V117.66C116.873 116.923 116.677 116.358 116.285 115.966C115.893 115.565 115.379 115.364 114.745 115.364C113.811 115.364 113.2 115.672 112.911 116.288C112.631 116.885 112.491 117.553 112.491 118.29V122H112.085V117.73C112.085 116.965 111.893 116.381 111.511 115.98C111.128 115.569 110.629 115.364 110.013 115.364C109.322 115.364 108.809 115.541 108.473 115.896C108.165 116.223 107.964 116.591 107.871 117.002C107.777 117.413 107.731 117.959 107.731 118.64V122H107.325ZM123.36 120.222L123.766 120.082C123.812 120.53 124.036 120.927 124.438 121.272C124.848 121.608 125.362 121.776 125.978 121.776C126.65 121.776 127.163 121.641 127.518 121.37C127.882 121.099 128.064 120.754 128.064 120.334C128.064 119.951 127.924 119.629 127.644 119.368C127.373 119.097 126.995 118.901 126.51 118.78L125.474 118.514C124.886 118.355 124.433 118.145 124.116 117.884C123.808 117.623 123.654 117.249 123.654 116.764C123.654 116.251 123.868 115.826 124.298 115.49C124.727 115.145 125.278 114.972 125.95 114.972C126.575 114.972 127.088 115.126 127.49 115.434C127.9 115.733 128.166 116.106 128.288 116.554L127.896 116.722C127.83 116.377 127.625 116.064 127.28 115.784C126.934 115.504 126.491 115.364 125.95 115.364C125.362 115.364 124.9 115.495 124.564 115.756C124.237 116.017 124.074 116.33 124.074 116.694C124.074 117.394 124.512 117.847 125.39 118.052L126.44 118.318C127.812 118.663 128.498 119.335 128.498 120.334C128.498 120.875 128.288 121.319 127.868 121.664C127.448 122 126.818 122.168 125.978 122.168C125.194 122.168 124.578 121.981 124.13 121.608C123.691 121.235 123.434 120.773 123.36 120.222ZM130.131 118.36C130.131 117.324 130.406 116.503 130.957 115.896C131.507 115.28 132.179 114.972 132.973 114.972C133.803 114.972 134.48 115.266 135.003 115.854C135.525 116.433 135.787 117.193 135.787 118.136C135.787 118.257 135.782 118.369 135.773 118.472H130.565C130.565 119.601 130.789 120.437 131.237 120.978C131.694 121.51 132.282 121.776 133.001 121.776C133.579 121.776 134.074 121.617 134.485 121.3C134.905 120.973 135.189 120.581 135.339 120.124L135.731 120.306C135.572 120.791 135.25 121.225 134.765 121.608C134.279 121.981 133.691 122.168 133.001 122.168C132.105 122.168 131.4 121.846 130.887 121.202C130.383 120.558 130.131 119.611 130.131 118.36ZM130.551 118.094H135.381C135.381 117.226 135.147 116.554 134.681 116.078C134.214 115.602 133.645 115.364 132.973 115.364C132.254 115.364 131.675 115.625 131.237 116.148C130.807 116.661 130.579 117.31 130.551 118.094ZM138.018 122V115.14H138.41C138.41 115.747 138.349 116.344 138.228 116.932H138.55C138.662 116.372 138.895 115.919 139.25 115.574C139.605 115.229 140.076 115.056 140.664 115.056C141.093 115.056 141.448 115.103 141.728 115.196V115.602C141.345 115.518 140.986 115.476 140.65 115.476C139.903 115.476 139.343 115.803 138.97 116.456C138.597 117.1 138.41 117.903 138.41 118.864V122H138.018ZM145.393 122L142.565 115.14H143.013L144.959 119.844C145.174 120.32 145.314 120.684 145.379 120.936C145.454 121.197 145.505 121.454 145.533 121.706H145.841C145.869 121.398 145.916 121.141 145.981 120.936C146.056 120.693 146.182 120.343 146.359 119.886L148.221 115.14H148.655L145.967 122H145.393ZM150.678 113.432V112.2H151.084V113.432H150.678ZM150.678 122V115.14H151.084L151.098 122H150.678ZM153.359 118.556C153.359 117.529 153.63 116.675 154.171 115.994C154.712 115.313 155.417 114.972 156.285 114.972C156.976 114.972 157.559 115.159 158.035 115.532C158.511 115.896 158.819 116.339 158.959 116.862L158.539 116.988C158.408 116.512 158.142 116.125 157.741 115.826C157.349 115.518 156.864 115.364 156.285 115.364C155.585 115.364 154.992 115.649 154.507 116.218C154.031 116.787 153.793 117.567 153.793 118.556C153.793 119.555 154.026 120.343 154.493 120.922C154.969 121.491 155.576 121.776 156.313 121.776C156.938 121.776 157.447 121.589 157.839 121.216C158.231 120.833 158.483 120.39 158.595 119.886L159.015 120.012C158.856 120.647 158.534 121.165 158.049 121.566C157.573 121.967 156.994 122.168 156.313 122.168C155.436 122.168 154.722 121.841 154.171 121.188C153.63 120.525 153.359 119.648 153.359 118.556ZM160.551 118.36C160.551 117.324 160.826 116.503 161.377 115.896C161.927 115.28 162.599 114.972 163.393 114.972C164.223 114.972 164.9 115.266 165.423 115.854C165.945 116.433 166.207 117.193 166.207 118.136C166.207 118.257 166.202 118.369 166.193 118.472H160.985C160.985 119.601 161.209 120.437 161.657 120.978C162.114 121.51 162.702 121.776 163.421 121.776C163.999 121.776 164.494 121.617 164.905 121.3C165.325 120.973 165.609 120.581 165.759 120.124L166.151 120.306C165.992 120.791 165.67 121.225 165.185 121.608C164.699 121.981 164.111 122.168 163.421 122.168C162.525 122.168 161.82 121.846 161.307 121.202C160.803 120.558 160.551 119.611 160.551 118.36ZM160.971 118.094H165.801C165.801 117.226 165.567 116.554 165.101 116.078C164.634 115.602 164.065 115.364 163.393 115.364C162.674 115.364 162.095 115.625 161.657 116.148C161.227 116.661 160.999 117.31 160.971 118.094ZM172.405 120.18V115.518H170.557V115.14H172.405V113.166H172.811V115.14H174.897V115.518H172.811V120.138C172.811 121.118 173.301 121.608 174.281 121.608H175.135V122H174.365C173.059 122 172.405 121.393 172.405 120.18ZM176.081 118.584C176.081 117.464 176.394 116.582 177.019 115.938C177.645 115.294 178.377 114.972 179.217 114.972C180.057 114.972 180.79 115.294 181.415 115.938C182.041 116.582 182.353 117.464 182.353 118.584C182.353 119.713 182.041 120.595 181.415 121.23C180.799 121.855 180.067 122.168 179.217 122.168C178.368 122.168 177.631 121.855 177.005 121.23C176.389 120.595 176.081 119.713 176.081 118.584ZM181.919 118.584C181.919 117.604 181.653 116.825 181.121 116.246C180.589 115.658 179.955 115.364 179.217 115.364C178.48 115.364 177.845 115.658 177.313 116.246C176.781 116.825 176.515 117.604 176.515 118.584C176.515 119.573 176.781 120.353 177.313 120.922C177.845 121.491 178.48 121.776 179.217 121.776C179.955 121.776 180.589 121.491 181.121 120.922C181.653 120.353 181.919 119.573 181.919 118.584ZM188.126 118.556C188.126 117.529 188.397 116.675 188.938 115.994C189.48 115.313 190.184 114.972 191.052 114.972C191.743 114.972 192.326 115.159 192.802 115.532C193.278 115.896 193.586 116.339 193.726 116.862L193.306 116.988C193.176 116.512 192.91 116.125 192.508 115.826C192.116 115.518 191.631 115.364 191.052 115.364C190.352 115.364 189.76 115.649 189.274 116.218C188.798 116.787 188.56 117.567 188.56 118.556C188.56 119.555 188.794 120.343 189.26 120.922C189.736 121.491 190.343 121.776 191.08 121.776C191.706 121.776 192.214 121.589 192.606 121.216C192.998 120.833 193.25 120.39 193.362 119.886L193.782 120.012C193.624 120.647 193.302 121.165 192.816 121.566C192.34 121.967 191.762 122.168 191.08 122.168C190.203 122.168 189.489 121.841 188.938 121.188C188.397 120.525 188.126 119.648 188.126 118.556ZM195.332 120.404C195.332 119.564 195.766 118.901 196.634 118.416C197.512 117.921 198.622 117.651 199.966 117.604V117.114C199.966 116.601 199.794 116.181 199.448 115.854C199.112 115.527 198.618 115.364 197.964 115.364C196.751 115.364 195.976 115.835 195.64 116.778L195.248 116.61C195.379 116.181 195.678 115.803 196.144 115.476C196.611 115.14 197.218 114.972 197.964 114.972C198.795 114.972 199.402 115.182 199.784 115.602C200.176 116.013 200.372 116.545 200.372 117.198V120.74C200.372 121.02 200.438 121.235 200.568 121.384C200.708 121.533 200.89 121.608 201.114 121.608H201.688V122H201.17C200.769 122 200.48 121.893 200.302 121.678C200.134 121.454 200.06 121.071 200.078 120.53H199.784C199.327 121.622 198.529 122.168 197.39 122.168C196.765 122.168 196.266 122.014 195.892 121.706C195.519 121.389 195.332 120.955 195.332 120.404ZM199.966 118.822V117.968C198.716 118.024 197.703 118.262 196.928 118.682C196.154 119.102 195.766 119.676 195.766 120.404C195.766 120.815 195.916 121.146 196.214 121.398C196.513 121.65 196.914 121.776 197.418 121.776C198.109 121.776 198.706 121.524 199.21 121.02C199.714 120.507 199.966 119.774 199.966 118.822ZM203.26 122V112.2H203.666V122H203.26ZM206.46 122V112.2H206.866V122H206.46ZM213.733 113.432V112.2H214.139V113.432H213.733ZM213.733 122V115.14H214.139L214.153 122H213.733ZM216.96 122V115.14H217.366C217.366 115.653 217.296 116.106 217.156 116.498H217.506C217.59 116.125 217.804 115.779 218.15 115.462C218.504 115.135 219.004 114.972 219.648 114.972C220.226 114.972 220.712 115.14 221.104 115.476C221.496 115.803 221.734 116.232 221.818 116.764H222.154C222.238 116.288 222.462 115.873 222.826 115.518C223.199 115.154 223.717 114.972 224.38 114.972C225.173 114.972 225.794 115.21 226.242 115.686C226.69 116.153 226.914 116.773 226.914 117.548V122H226.508V117.66C226.508 116.923 226.312 116.358 225.92 115.966C225.528 115.565 225.014 115.364 224.38 115.364C223.446 115.364 222.835 115.672 222.546 116.288C222.266 116.885 222.126 117.553 222.126 118.29V122H221.72V117.73C221.72 116.965 221.528 116.381 221.146 115.98C220.763 115.569 220.264 115.364 219.648 115.364C218.957 115.364 218.444 115.541 218.108 115.896C217.8 116.223 217.599 116.591 217.506 117.002C217.412 117.413 217.366 117.959 217.366 118.64V122H216.96ZM229.606 122V115.14H230.012C230.012 115.653 229.942 116.106 229.802 116.498H230.152C230.236 116.125 230.451 115.779 230.796 115.462C231.151 115.135 231.65 114.972 232.294 114.972C232.873 114.972 233.358 115.14 233.75 115.476C234.142 115.803 234.38 116.232 234.464 116.764H234.8C234.884 116.288 235.108 115.873 235.472 115.518C235.845 115.154 236.363 114.972 237.026 114.972C237.819 114.972 238.44 115.21 238.888 115.686C239.336 116.153 239.56 116.773 239.56 117.548V122H239.154V117.66C239.154 116.923 238.958 116.358 238.566 115.966C238.174 115.565 237.661 115.364 237.026 115.364C236.093 115.364 235.481 115.672 235.192 116.288C234.912 116.885 234.772 117.553 234.772 118.29V122H234.366V117.73C234.366 116.965 234.175 116.381 233.792 115.98C233.409 115.569 232.91 115.364 232.294 115.364C231.603 115.364 231.09 115.541 230.754 115.896C230.446 116.223 230.245 116.591 230.152 117.002C230.059 117.413 230.012 117.959 230.012 118.64V122H229.606ZM241.721 118.36C241.721 117.324 241.996 116.503 242.547 115.896C243.097 115.28 243.769 114.972 244.563 114.972C245.393 114.972 246.07 115.266 246.593 115.854C247.115 116.433 247.377 117.193 247.377 118.136C247.377 118.257 247.372 118.369 247.363 118.472H242.155C242.155 119.601 242.379 120.437 242.827 120.978C243.284 121.51 243.872 121.776 244.591 121.776C245.169 121.776 245.664 121.617 246.075 121.3C246.495 120.973 246.779 120.581 246.929 120.124L247.321 120.306C247.162 120.791 246.84 121.225 246.355 121.608C245.869 121.981 245.281 122.168 244.591 122.168C243.695 122.168 242.99 121.846 242.477 121.202C241.973 120.558 241.721 119.611 241.721 118.36ZM242.141 118.094H246.971C246.971 117.226 246.737 116.554 246.271 116.078C245.804 115.602 245.235 115.364 244.563 115.364C243.844 115.364 243.265 115.625 242.827 116.148C242.397 116.661 242.169 117.31 242.141 118.094ZM249.902 121.23C249.351 120.595 249.076 119.709 249.076 118.57C249.076 117.431 249.351 116.549 249.902 115.924C250.453 115.289 251.125 114.972 251.918 114.972C252.487 114.972 252.973 115.145 253.374 115.49C253.785 115.826 254.065 116.241 254.214 116.736H254.536C254.443 116.307 254.391 116.064 254.382 116.008C254.363 115.784 254.354 115.56 254.354 115.336V112.2H254.76V122H254.368C254.368 121.683 254.377 121.403 254.396 121.16C254.415 121.048 254.466 120.796 254.55 120.404H254.214C254.065 120.908 253.789 121.328 253.388 121.664C252.987 122 252.497 122.168 251.918 122.168C251.125 122.168 250.453 121.855 249.902 121.23ZM253.696 120.95C254.153 120.399 254.382 119.606 254.382 118.57C254.382 117.534 254.153 116.741 253.696 116.19C253.239 115.639 252.655 115.364 251.946 115.364C251.255 115.364 250.677 115.644 250.21 116.204C249.743 116.764 249.51 117.553 249.51 118.57C249.51 119.597 249.739 120.39 250.196 120.95C250.663 121.501 251.246 121.776 251.946 121.776C252.655 121.776 253.239 121.501 253.696 120.95ZM257.565 113.432V112.2H257.971V113.432H257.565ZM257.565 122V115.14H257.971L257.985 122H257.565ZM260.274 120.404C260.274 119.564 260.708 118.901 261.576 118.416C262.453 117.921 263.564 117.651 264.908 117.604V117.114C264.908 116.601 264.735 116.181 264.39 115.854C264.054 115.527 263.559 115.364 262.906 115.364C261.692 115.364 260.918 115.835 260.582 116.778L260.19 116.61C260.32 116.181 260.619 115.803 261.086 115.476C261.552 115.14 262.159 114.972 262.906 114.972C263.736 114.972 264.343 115.182 264.726 115.602C265.118 116.013 265.314 116.545 265.314 117.198V120.74C265.314 121.02 265.379 121.235 265.51 121.384C265.65 121.533 265.832 121.608 266.056 121.608H266.63V122H266.112C265.71 122 265.421 121.893 265.244 121.678C265.076 121.454 265.001 121.071 265.02 120.53H264.726C264.268 121.622 263.47 122.168 262.332 122.168C261.706 122.168 261.207 122.014 260.834 121.706C260.46 121.389 260.274 120.955 260.274 120.404ZM264.908 118.822V117.968C263.657 118.024 262.644 118.262 261.87 118.682C261.095 119.102 260.708 119.676 260.708 120.404C260.708 120.815 260.857 121.146 261.156 121.398C261.454 121.65 261.856 121.776 262.36 121.776C263.05 121.776 263.648 121.524 264.152 121.02C264.656 120.507 264.908 119.774 264.908 118.822ZM268.478 120.18V115.518H266.63V115.14H268.478V113.166H268.884V115.14H270.97V115.518H268.884V120.138C268.884 121.118 269.374 121.608 270.354 121.608H271.208V122H270.438C269.131 122 268.478 121.393 268.478 120.18ZM272.181 118.36C272.181 117.324 272.457 116.503 273.007 115.896C273.558 115.28 274.23 114.972 275.023 114.972C275.854 114.972 276.531 115.266 277.053 115.854C277.576 116.433 277.837 117.193 277.837 118.136C277.837 118.257 277.833 118.369 277.823 118.472H272.615C272.615 119.601 272.839 120.437 273.287 120.978C273.745 121.51 274.333 121.776 275.051 121.776C275.63 121.776 276.125 121.617 276.535 121.3C276.955 120.973 277.24 120.581 277.389 120.124L277.781 120.306C277.623 120.791 277.301 121.225 276.815 121.608C276.33 121.981 275.742 122.168 275.051 122.168C274.155 122.168 273.451 121.846 272.937 121.202C272.433 120.558 272.181 119.611 272.181 118.36ZM272.601 118.094H277.431C277.431 117.226 277.198 116.554 276.731 116.078C276.265 115.602 275.695 115.364 275.023 115.364C274.305 115.364 273.726 115.625 273.287 116.148C272.858 116.661 272.629 117.31 272.601 118.094ZM126.754 134.404C126.754 133.564 127.188 132.901 128.056 132.416C128.933 131.921 130.044 131.651 131.388 131.604V131.114C131.388 130.601 131.215 130.181 130.87 129.854C130.534 129.527 130.039 129.364 129.386 129.364C128.173 129.364 127.398 129.835 127.062 130.778L126.67 130.61C126.801 130.181 127.099 129.803 127.566 129.476C128.033 129.14 128.639 128.972 129.386 128.972C130.217 128.972 130.823 129.182 131.206 129.602C131.598 130.013 131.794 130.545 131.794 131.198V134.74C131.794 135.02 131.859 135.235 131.99 135.384C132.13 135.533 132.312 135.608 132.536 135.608H133.11V136H132.592C132.191 136 131.901 135.893 131.724 135.678C131.556 135.454 131.481 135.071 131.5 134.53H131.206C130.749 135.622 129.951 136.168 128.812 136.168C128.187 136.168 127.687 136.014 127.314 135.706C126.941 135.389 126.754 134.955 126.754 134.404ZM131.388 132.822V131.968C130.137 132.024 129.125 132.262 128.35 132.682C127.575 133.102 127.188 133.676 127.188 134.404C127.188 134.815 127.337 135.146 127.636 135.398C127.935 135.65 128.336 135.776 128.84 135.776C129.531 135.776 130.128 135.524 130.632 135.02C131.136 134.507 131.388 133.774 131.388 132.822ZM134.57 133.424V129.14H134.976V133.284C134.976 134.115 135.154 134.74 135.508 135.16C135.872 135.571 136.381 135.776 137.034 135.776C137.753 135.776 138.327 135.501 138.756 134.95C139.186 134.39 139.4 133.62 139.4 132.64V129.14H139.806V136H139.4C139.4 135.449 139.475 134.875 139.624 134.278H139.302C139.172 134.745 138.943 135.174 138.616 135.566C138.28 135.967 137.758 136.168 137.048 136.168C136.227 136.168 135.606 135.93 135.186 135.454C134.776 134.978 134.57 134.301 134.57 133.424ZM143.298 134.18V129.518H141.45V129.14H143.298V127.166H143.704V129.14H145.79V129.518H143.704V134.138C143.704 135.118 144.194 135.608 145.174 135.608H146.028V136H145.258C143.951 136 143.298 135.393 143.298 134.18ZM146.974 132.584C146.974 131.464 147.286 130.582 147.912 129.938C148.537 129.294 149.27 128.972 150.11 128.972C150.95 128.972 151.682 129.294 152.308 129.938C152.933 130.582 153.246 131.464 153.246 132.584C153.246 133.713 152.933 134.595 152.308 135.23C151.692 135.855 150.959 136.168 150.11 136.168C149.26 136.168 148.523 135.855 147.898 135.23C147.282 134.595 146.974 133.713 146.974 132.584ZM152.812 132.584C152.812 131.604 152.546 130.825 152.014 130.246C151.482 129.658 150.847 129.364 150.11 129.364C149.372 129.364 148.738 129.658 148.206 130.246C147.674 130.825 147.408 131.604 147.408 132.584C147.408 133.573 147.674 134.353 148.206 134.922C148.738 135.491 149.372 135.776 150.11 135.776C150.847 135.776 151.482 135.491 152.014 134.922C152.546 134.353 152.812 133.573 152.812 132.584ZM159.565 127.432V126.2H159.971V127.432H159.565ZM159.565 136V129.14H159.971L159.985 136H159.565ZM162.792 136V129.14H163.184C163.184 129.821 163.109 130.4 162.96 130.876H163.296C163.445 130.353 163.697 129.905 164.052 129.532C164.397 129.159 164.929 128.972 165.648 128.972C166.497 128.972 167.132 129.233 167.552 129.756C167.972 130.279 168.182 130.96 168.182 131.8V136H167.762V131.912C167.762 131.1 167.575 130.475 167.202 130.036C166.828 129.588 166.301 129.364 165.62 129.364C165.172 129.355 164.78 129.453 164.444 129.658C164.117 129.854 163.865 130.12 163.688 130.456C163.52 130.783 163.394 131.114 163.31 131.45C163.235 131.786 163.198 132.127 163.198 132.472V136H162.792ZM174.26 134.222L174.666 134.082C174.713 134.53 174.937 134.927 175.338 135.272C175.749 135.608 176.262 135.776 176.878 135.776C177.55 135.776 178.063 135.641 178.418 135.37C178.782 135.099 178.964 134.754 178.964 134.334C178.964 133.951 178.824 133.629 178.544 133.368C178.273 133.097 177.895 132.901 177.41 132.78L176.374 132.514C175.786 132.355 175.333 132.145 175.016 131.884C174.708 131.623 174.554 131.249 174.554 130.764C174.554 130.251 174.769 129.826 175.198 129.49C175.627 129.145 176.178 128.972 176.85 128.972C177.475 128.972 177.989 129.126 178.39 129.434C178.801 129.733 179.067 130.106 179.188 130.554L178.796 130.722C178.731 130.377 178.525 130.064 178.18 129.784C177.835 129.504 177.391 129.364 176.85 129.364C176.262 129.364 175.8 129.495 175.464 129.756C175.137 130.017 174.974 130.33 174.974 130.694C174.974 131.394 175.413 131.847 176.29 132.052L177.34 132.318C178.712 132.663 179.398 133.335 179.398 134.334C179.398 134.875 179.188 135.319 178.768 135.664C178.348 136 177.718 136.168 176.878 136.168C176.094 136.168 175.478 135.981 175.03 135.608C174.591 135.235 174.335 134.773 174.26 134.222ZM181.451 133.424V129.14H181.857V133.284C181.857 134.115 182.034 134.74 182.389 135.16C182.753 135.571 183.262 135.776 183.915 135.776C184.634 135.776 185.208 135.501 185.637 134.95C186.066 134.39 186.281 133.62 186.281 132.64V129.14H186.687V136H186.281C186.281 135.449 186.356 134.875 186.505 134.278H186.183C186.052 134.745 185.824 135.174 185.497 135.566C185.161 135.967 184.638 136.168 183.929 136.168C183.108 136.168 182.487 135.93 182.067 135.454C181.656 134.978 181.451 134.301 181.451 133.424ZM189.493 136V126.2H189.899V136H189.493ZM192.692 136V126.2H193.098V136H192.692ZM195.891 127.432V126.2H196.297V127.432H195.891ZM195.891 136V129.14H196.297L196.311 136H195.891ZM198.6 134.404C198.6 133.564 199.034 132.901 199.902 132.416C200.779 131.921 201.89 131.651 203.234 131.604V131.114C203.234 130.601 203.061 130.181 202.716 129.854C202.38 129.527 201.885 129.364 201.232 129.364C200.018 129.364 199.244 129.835 198.908 130.778L198.516 130.61C198.646 130.181 198.945 129.803 199.412 129.476C199.878 129.14 200.485 128.972 201.232 128.972C202.062 128.972 202.669 129.182 203.052 129.602C203.444 130.013 203.64 130.545 203.64 131.198V134.74C203.64 135.02 203.705 135.235 203.836 135.384C203.976 135.533 204.158 135.608 204.382 135.608H204.956V136H204.438C204.036 136 203.747 135.893 203.57 135.678C203.402 135.454 203.327 135.071 203.346 134.53H203.052C202.594 135.622 201.796 136.168 200.658 136.168C200.032 136.168 199.533 136.014 199.16 135.706C198.786 135.389 198.6 134.955 198.6 134.404ZM203.234 132.822V131.968C201.983 132.024 200.97 132.262 200.196 132.682C199.421 133.102 199.034 133.676 199.034 134.404C199.034 134.815 199.183 135.146 199.482 135.398C199.78 135.65 200.182 135.776 200.686 135.776C201.376 135.776 201.974 135.524 202.478 135.02C202.982 134.507 203.234 133.774 203.234 132.822Z" fill="white"/>
</svg>
