<svg width="240" height="27" viewBox="0 0 240 27" fill="none" xmlns="http://www.w3.org/2000/svg">
<path d="M-0.000175714 9.80005V4.81606e-05H3.45782C4.40982 4.81606e-05 5.14716 0.256715 5.66982 0.770048C6.19249 1.28338 6.45382 1.93672 6.45382 2.73005C6.45382 3.53272 6.18782 4.19072 5.65582 4.70405C5.13316 5.21738 4.38649 5.47405 3.41582 5.47405H0.419824V9.80005H-0.000175714ZM0.419824 5.08205H3.34582C4.21382 5.08205 4.87182 4.85805 5.31982 4.41005C5.77716 3.96205 6.00582 3.40205 6.00582 2.73005C6.00582 2.05805 5.78182 1.50272 5.33382 1.06405C4.88582 0.616048 4.22316 0.392048 3.34582 0.392048H0.419824V5.08205ZM7.49967 6.38405C7.49967 5.26405 7.81233 4.38205 8.43767 3.73805C9.063 3.09405 9.79567 2.77205 10.6357 2.77205C11.4757 2.77205 12.2083 3.09405 12.8337 3.73805C13.459 4.38205 13.7717 5.26405 13.7717 6.38405C13.7717 7.51338 13.459 8.39538 12.8337 9.03005C12.2177 9.65538 11.485 9.96805 10.6357 9.96805C9.78633 9.96805 9.049 9.65538 8.42367 9.03005C7.80767 8.39538 7.49967 7.51338 7.49967 6.38405ZM13.3377 6.38405C13.3377 5.40405 13.0717 4.62472 12.5397 4.04605C12.0077 3.45805 11.373 3.16405 10.6357 3.16405C9.89833 3.16405 9.26367 3.45805 8.73167 4.04605C8.19967 4.62472 7.93367 5.40405 7.93367 6.38405C7.93367 7.37338 8.19967 8.15272 8.73167 8.72205C9.26367 9.29138 9.89833 9.57605 10.6357 9.57605C11.373 9.57605 12.0077 9.29138 12.5397 8.72205C13.0717 8.15272 13.3377 7.37338 13.3377 6.38405ZM17.5987 9.80005L15.2187 2.94005H15.6527L17.2207 7.49005C17.5474 8.40472 17.7154 9.08138 17.7247 9.52005H18.0467C18.0934 8.98805 18.252 8.31138 18.5227 7.49005L19.9787 2.94005H20.4547L21.8967 7.49005C22.2047 8.49805 22.3634 9.17472 22.3727 9.52005H22.7087C22.746 8.99738 22.9047 8.31605 23.1847 7.47605L24.7667 2.94005H25.2007L22.8207 9.80005H22.2327L20.7767 5.20805C20.6367 4.76938 20.534 4.41472 20.4687 4.14405C20.4314 3.91072 20.4034 3.64938 20.3847 3.36005H20.0487C20.03 3.68672 19.9974 3.95738 19.9507 4.17205C19.8947 4.43338 19.7967 4.77872 19.6567 5.20805L18.1727 9.80005H17.5987ZM26.6683 6.16005C26.6683 5.12405 26.9436 4.30272 27.4943 3.69605C28.045 3.08005 28.717 2.77205 29.5103 2.77205C30.341 2.77205 31.0176 3.06605 31.5403 3.65405C32.063 4.23272 32.3243 4.99338 32.3243 5.93605C32.3243 6.05738 32.3196 6.16938 32.3103 6.27205H27.1023C27.1023 7.40138 27.3263 8.23672 27.7743 8.77805C28.2316 9.31005 28.8196 9.57605 29.5383 9.57605C30.117 9.57605 30.6116 9.41738 31.0223 9.10005C31.4423 8.77338 31.727 8.38138 31.8763 7.92405L32.2683 8.10605C32.1096 8.59138 31.7876 9.02538 31.3023 9.40805C30.817 9.78138 30.229 9.96805 29.5383 9.96805C28.6423 9.96805 27.9376 9.64605 27.4243 9.00205C26.9203 8.35805 26.6683 7.41072 26.6683 6.16005ZM27.0883 5.89405H31.9183C31.9183 5.02605 31.685 4.35405 31.2183 3.87805C30.7516 3.40205 30.1823 3.16405 29.5103 3.16405C28.7916 3.16405 28.213 3.42538 27.7743 3.94805C27.345 4.46138 27.1163 5.11005 27.0883 5.89405ZM34.5558 9.80005V2.94005H34.9478C34.9478 3.54672 34.8871 4.14405 34.7658 4.73205H35.0878C35.1998 4.17205 35.4331 3.71938 35.7878 3.37405C36.1424 3.02872 36.6138 2.85605 37.2018 2.85605C37.6311 2.85605 37.9858 2.90272 38.2658 2.99605V3.40205C37.8831 3.31805 37.5238 3.27605 37.1878 3.27605C36.4411 3.27605 35.8811 3.60272 35.5078 4.25605C35.1344 4.90005 34.9478 5.70272 34.9478 6.66405V9.80005H34.5558ZM40.6845 9.80005V3.31805H38.8225V2.94005H40.6845V1.82005C40.6845 0.606715 41.3378 4.81606e-05 42.6445 4.81606e-05H43.4145V0.392048H42.5605C41.5805 0.392048 41.0905 0.882048 41.0905 1.86205V2.94005H43.1905V3.31805H41.0905V9.80005H40.6845ZM44.7387 7.22405V2.94005H45.1447V7.08405C45.1447 7.91472 45.322 8.54005 45.6767 8.96005C46.0407 9.37072 46.5494 9.57605 47.2027 9.57605C47.9214 9.57605 48.4954 9.30072 48.9247 8.75005C49.354 8.19005 49.5687 7.42005 49.5687 6.44005V2.94005H49.9747V9.80005H49.5687C49.5687 9.24938 49.6434 8.67538 49.7927 8.07805H49.4707C49.34 8.54472 49.1114 8.97405 48.7847 9.36605C48.4487 9.76738 47.926 9.96805 47.2167 9.96805C46.3954 9.96805 45.7747 9.73005 45.3547 9.25405C44.944 8.77805 44.7387 8.10138 44.7387 7.22405ZM52.7804 9.80005V4.81606e-05H53.1864V9.80005H52.7804ZM66.0342 9.80005L64.8302 6.56605H60.1682L58.9642 9.80005H58.4882L62.2122 4.81606e-05H62.7722L66.5242 9.80005H66.0342ZM60.3082 6.17405H64.6762L62.9122 1.47005C62.7535 1.05005 62.6742 0.653382 62.6742 0.280049H62.3102C62.2915 0.672049 62.2075 1.06872 62.0582 1.47005L60.3082 6.17405ZM68.7147 9.80005V4.81606e-05H69.1347V9.80005H68.7147ZM76.1754 7.98005V3.31805H74.3274V2.94005H76.1754V0.966048H76.5814V2.94005H78.6674V3.31805H76.5814V7.93805C76.5814 8.91805 77.0714 9.40805 78.0514 9.40805H78.9054V9.80005H78.1354C76.8287 9.80005 76.1754 9.19338 76.1754 7.98005ZM79.8512 6.38405C79.8512 5.26405 80.1639 4.38205 80.7892 3.73805C81.4146 3.09405 82.1472 2.77205 82.9872 2.77205C83.8272 2.77205 84.5599 3.09405 85.1852 3.73805C85.8106 4.38205 86.1232 5.26405 86.1232 6.38405C86.1232 7.51338 85.8106 8.39538 85.1852 9.03005C84.5692 9.65538 83.8366 9.96805 82.9872 9.96805C82.1379 9.96805 81.4006 9.65538 80.7752 9.03005C80.1592 8.39538 79.8512 7.51338 79.8512 6.38405ZM85.6892 6.38405C85.6892 5.40405 85.4232 4.62472 84.8912 4.04605C84.3592 3.45805 83.7246 3.16405 82.9872 3.16405C82.2499 3.16405 81.6152 3.45805 81.0832 4.04605C80.5512 4.62472 80.2852 5.40405 80.2852 6.38405C80.2852 7.37338 80.5512 8.15272 81.0832 8.72205C81.6152 9.29138 82.2499 9.57605 82.9872 9.57605C83.7246 9.57605 84.3592 9.29138 84.8912 8.72205C85.4232 8.15272 85.6892 7.37338 85.6892 6.38405ZM87.8083 6.38405C87.8083 5.26405 88.1209 4.38205 88.7463 3.73805C89.3716 3.09405 90.1043 2.77205 90.9443 2.77205C91.7843 2.77205 92.5169 3.09405 93.1423 3.73805C93.7676 4.38205 94.0803 5.26405 94.0803 6.38405C94.0803 7.51338 93.7676 8.39538 93.1423 9.03005C92.5263 9.65538 91.7936 9.96805 90.9443 9.96805C90.0949 9.96805 89.3576 9.65538 88.7323 9.03005C88.1163 8.39538 87.8083 7.51338 87.8083 6.38405ZM93.6463 6.38405C93.6463 5.40405 93.3803 4.62472 92.8483 4.04605C92.3163 3.45805 91.6816 3.16405 90.9443 3.16405C90.2069 3.16405 89.5723 3.45805 89.0403 4.04605C88.5083 4.62472 88.2423 5.40405 88.2423 6.38405C88.2423 7.37338 88.5083 8.15272 89.0403 8.72205C89.5723 9.29138 90.2069 9.57605 90.9443 9.57605C91.6816 9.57605 92.3163 9.29138 92.8483 8.72205C93.3803 8.15272 93.6463 7.37338 93.6463 6.38405ZM96.3253 9.80005V4.81606e-05H96.7313V9.80005H96.3253ZM98.8385 8.02205L99.2445 7.88205C99.2912 8.33005 99.5152 8.72672 99.9165 9.07205C100.327 9.40805 100.841 9.57605 101.457 9.57605C102.129 9.57605 102.642 9.44072 102.997 9.17005C103.361 8.89938 103.543 8.55405 103.543 8.13405C103.543 7.75138 103.403 7.42938 103.123 7.16805C102.852 6.89738 102.474 6.70138 101.989 6.58005L100.953 6.31405C100.365 6.15538 99.9118 5.94538 99.5945 5.68405C99.2865 5.42272 99.1325 5.04938 99.1325 4.56405C99.1325 4.05072 99.3472 3.62605 99.7765 3.29005C100.206 2.94472 100.757 2.77205 101.429 2.77205C102.054 2.77205 102.567 2.92605 102.969 3.23405C103.379 3.53272 103.645 3.90605 103.767 4.35405L103.375 4.52205C103.309 4.17672 103.104 3.86405 102.759 3.58405C102.413 3.30405 101.97 3.16405 101.429 3.16405C100.841 3.16405 100.379 3.29472 100.043 3.55605C99.7158 3.81738 99.5525 4.13005 99.5525 4.49405C99.5525 5.19405 99.9912 5.64672 100.869 5.85205L101.919 6.11805C103.291 6.46338 103.977 7.13538 103.977 8.13405C103.977 8.67538 103.767 9.11872 103.347 9.46405C102.927 9.80005 102.297 9.96805 101.457 9.96805C100.673 9.96805 100.057 9.78138 99.6085 9.40805C99.1698 9.03472 98.9132 8.57272 98.8385 8.02205ZM110.192 9.80005V3.31805H108.33V2.94005H110.192V1.82005C110.192 0.606715 110.846 4.81606e-05 112.152 4.81606e-05H112.922V0.392048H112.068C111.088 0.392048 110.598 0.882048 110.598 1.86205V2.94005H112.698V3.31805H110.598V9.80005H110.192ZM113.47 6.38405C113.47 5.26405 113.783 4.38205 114.408 3.73805C115.034 3.09405 115.766 2.77205 116.606 2.77205C117.446 2.77205 118.179 3.09405 118.804 3.73805C119.43 4.38205 119.742 5.26405 119.742 6.38405C119.742 7.51338 119.43 8.39538 118.804 9.03005C118.188 9.65538 117.456 9.96805 116.606 9.96805C115.757 9.96805 115.02 9.65538 114.394 9.03005C113.778 8.39538 113.47 7.51338 113.47 6.38405ZM119.308 6.38405C119.308 5.40405 119.042 4.62472 118.51 4.04605C117.978 3.45805 117.344 3.16405 116.606 3.16405C115.869 3.16405 115.234 3.45805 114.702 4.04605C114.17 4.62472 113.904 5.40405 113.904 6.38405C113.904 7.37338 114.17 8.15272 114.702 8.72205C115.234 9.29138 115.869 9.57605 116.606 9.57605C117.344 9.57605 117.978 9.29138 118.51 8.72205C119.042 8.15272 119.308 7.37338 119.308 6.38405ZM121.987 9.80005V2.94005H122.379C122.379 3.54672 122.319 4.14405 122.197 4.73205H122.519C122.631 4.17205 122.865 3.71938 123.219 3.37405C123.574 3.02872 124.045 2.85605 124.633 2.85605C125.063 2.85605 125.417 2.90272 125.697 2.99605V3.40205C125.315 3.31805 124.955 3.27605 124.619 3.27605C123.873 3.27605 123.313 3.60272 122.939 4.25605C122.566 4.90005 122.379 5.70272 122.379 6.66405V9.80005H121.987ZM130.548 7.98005V3.31805H128.7V2.94005H130.548V0.966048H130.954V2.94005H133.04V3.31805H130.954V7.93805C130.954 8.91805 131.444 9.40805 132.424 9.40805H133.278V9.80005H132.508C131.202 9.80005 130.548 9.19338 130.548 7.98005ZM134.252 6.16005C134.252 5.12405 134.528 4.30272 135.078 3.69605C135.629 3.08005 136.301 2.77205 137.094 2.77205C137.925 2.77205 138.602 3.06605 139.124 3.65405C139.647 4.23272 139.908 4.99338 139.908 5.93605C139.908 6.05738 139.904 6.16938 139.894 6.27205H134.686C134.686 7.40138 134.91 8.23672 135.358 8.77805C135.816 9.31005 136.404 9.57605 137.122 9.57605C137.701 9.57605 138.196 9.41738 138.606 9.10005C139.026 8.77338 139.311 8.38138 139.46 7.92405L139.852 8.10605C139.694 8.59138 139.372 9.02538 138.886 9.40805C138.401 9.78138 137.813 9.96805 137.122 9.96805C136.226 9.96805 135.522 9.64605 135.008 9.00205C134.504 8.35805 134.252 7.41072 134.252 6.16005ZM134.672 5.89405H139.502C139.502 5.02605 139.269 4.35405 138.802 3.87805C138.336 3.40205 137.766 3.16405 137.094 3.16405C136.376 3.16405 135.797 3.42538 135.358 3.94805C134.929 4.46138 134.7 5.11005 134.672 5.89405ZM141.16 9.80005L143.68 6.23005L141.398 2.94005H141.888L143.246 4.90005C143.507 5.28272 143.68 5.66538 143.764 6.04805H144.072C144.118 5.70272 144.286 5.32472 144.576 4.91405L145.976 2.94005H146.48L144.17 6.21605L146.69 9.80005H146.172L144.632 7.58805C144.305 7.14005 144.118 6.73872 144.072 6.38405H143.764C143.698 6.76672 143.526 7.16338 143.246 7.57405L141.664 9.80005H141.16ZM149.211 7.98005V3.31805H147.363V2.94005H149.211V0.966048H149.617V2.94005H151.703V3.31805H149.617V7.93805C149.617 8.91805 150.107 9.40805 151.087 9.40805H151.941V9.80005H151.171C149.864 9.80005 149.211 9.19338 149.211 7.98005ZM153.079 11.298L153.835 9.80005H153.471V8.62405H154.171V9.80005L153.457 11.298H153.079ZM160.857 1.23205V4.81606e-05H161.263V1.23205H160.857ZM160.857 9.80005V2.94005H161.263L161.277 9.80005H160.857ZM164.083 9.80005V2.94005H164.489C164.489 3.45338 164.419 3.90605 164.279 4.29805H164.629C164.713 3.92472 164.928 3.57938 165.273 3.26205C165.628 2.93538 166.127 2.77205 166.771 2.77205C167.35 2.77205 167.835 2.94005 168.227 3.27605C168.619 3.60272 168.857 4.03205 168.941 4.56405H169.277C169.361 4.08805 169.585 3.67272 169.949 3.31805C170.322 2.95405 170.84 2.77205 171.503 2.77205C172.296 2.77205 172.917 3.01005 173.365 3.48605C173.813 3.95272 174.037 4.57338 174.037 5.34805V9.80005H173.631V5.46005C173.631 4.72272 173.435 4.15805 173.043 3.76605C172.651 3.36472 172.138 3.16405 171.503 3.16405C170.57 3.16405 169.958 3.47205 169.669 4.08805C169.389 4.68538 169.249 5.35272 169.249 6.09005V9.80005H168.843V5.53005C168.843 4.76472 168.652 4.18138 168.269 3.78005C167.886 3.36938 167.387 3.16405 166.771 3.16405C166.08 3.16405 165.567 3.34138 165.231 3.69605C164.923 4.02272 164.722 4.39138 164.629 4.80205C164.536 5.21272 164.489 5.75872 164.489 6.44005V9.80005H164.083ZM176.212 8.20405C176.212 7.36405 176.646 6.70138 177.514 6.21605C178.391 5.72138 179.502 5.45072 180.846 5.40405V4.91405C180.846 4.40072 180.673 3.98072 180.328 3.65405C179.992 3.32738 179.497 3.16405 178.844 3.16405C177.63 3.16405 176.856 3.63538 176.52 4.57805L176.128 4.41005C176.258 3.98072 176.557 3.60272 177.024 3.27605C177.49 2.94005 178.097 2.77205 178.844 2.77205C179.674 2.77205 180.281 2.98205 180.664 3.40205C181.056 3.81272 181.252 4.34472 181.252 4.99805V8.54005C181.252 8.82005 181.317 9.03472 181.448 9.18405C181.588 9.33338 181.77 9.40805 181.994 9.40805H182.568V9.80005H182.05C181.648 9.80005 181.359 9.69272 181.182 9.47805C181.014 9.25405 180.939 8.87138 180.958 8.33005H180.664C180.206 9.42205 179.408 9.96805 178.27 9.96805C177.644 9.96805 177.145 9.81405 176.772 9.50605C176.398 9.18872 176.212 8.75472 176.212 8.20405ZM180.846 6.62205V5.76805C179.595 5.82405 178.582 6.06205 177.808 6.48205C177.033 6.90205 176.646 7.47605 176.646 8.20405C176.646 8.61472 176.795 8.94605 177.094 9.19805C177.392 9.45005 177.794 9.57605 178.298 9.57605C178.988 9.57605 179.586 9.32405 180.09 8.82005C180.594 8.30672 180.846 7.57405 180.846 6.62205ZM183.314 11.242C183.314 10.6167 183.65 10.1594 184.322 9.87005V9.54805C183.874 9.43605 183.65 9.18405 183.65 8.79205C183.65 8.21338 184.028 7.76538 184.784 7.44805V7.14005C184.177 6.64538 183.874 6.01072 183.874 5.23605C183.874 4.53605 184.107 3.95272 184.574 3.48605C185.04 3.01005 185.652 2.77205 186.408 2.77205C186.902 2.77205 187.332 2.89805 187.696 3.15005C188.069 3.39272 188.34 3.74272 188.508 4.20005H188.83C188.811 3.78938 188.89 3.47672 189.068 3.26205C189.254 3.04738 189.52 2.94005 189.866 2.94005H190.37V3.33205H189.978C189.838 3.33205 189.716 3.34605 189.614 3.37405C189.52 3.39272 189.418 3.44405 189.306 3.52805C189.194 3.60272 189.11 3.72872 189.054 3.90605C188.998 4.08338 188.97 4.30738 188.97 4.57805V5.18005C188.97 5.95472 188.727 6.58005 188.242 7.05605C187.756 7.52272 187.136 7.75605 186.38 7.75605C185.894 7.75605 185.47 7.65805 185.106 7.46205C184.798 7.60205 184.546 7.78872 184.35 8.02205C184.163 8.25538 184.07 8.49338 184.07 8.73605C184.07 9.19338 184.368 9.42205 184.966 9.42205H188.158C188.727 9.42205 189.189 9.56205 189.544 9.84205C189.908 10.122 190.09 10.5 190.09 10.976C190.09 11.4894 189.926 11.8767 189.6 12.138C189.273 12.3994 188.844 12.53 188.312 12.53H184.966C183.864 12.53 183.314 12.1007 183.314 11.242ZM188.55 5.26405C188.55 4.66672 188.344 4.16738 187.934 3.76605C187.523 3.36472 187.014 3.16405 186.408 3.16405C185.773 3.16405 185.26 3.36472 184.868 3.76605C184.476 4.15805 184.28 4.65738 184.28 5.26405C184.28 5.88005 184.466 6.38872 184.84 6.79005C185.222 7.18205 185.736 7.37805 186.38 7.37805C187.014 7.37805 187.532 7.18205 187.934 6.79005C188.344 6.38872 188.55 5.88005 188.55 5.26405ZM185.12 12.152H188.242C189.184 12.152 189.656 11.76 189.656 10.976C189.656 10.5934 189.511 10.2994 189.222 10.094C188.942 9.89805 188.545 9.80005 188.032 9.80005H184.728C184.494 9.91205 184.266 10.1034 184.042 10.374C183.827 10.6447 183.72 10.9154 183.72 11.186C183.72 11.5034 183.822 11.7414 184.028 11.9C184.242 12.068 184.606 12.152 185.12 12.152ZM191.182 6.16005C191.182 5.12405 191.457 4.30272 192.008 3.69605C192.559 3.08005 193.231 2.77205 194.024 2.77205C194.855 2.77205 195.531 3.06605 196.054 3.65405C196.577 4.23272 196.838 4.99338 196.838 5.93605C196.838 6.05738 196.833 6.16938 196.824 6.27205H191.616C191.616 7.40138 191.84 8.23672 192.288 8.77805C192.745 9.31005 193.333 9.57605 194.052 9.57605C194.631 9.57605 195.125 9.41738 195.536 9.10005C195.956 8.77338 196.241 8.38138 196.39 7.92405L196.782 8.10605C196.623 8.59138 196.301 9.02538 195.816 9.40805C195.331 9.78138 194.743 9.96805 194.052 9.96805C193.156 9.96805 192.451 9.64605 191.938 9.00205C191.434 8.35805 191.182 7.41072 191.182 6.16005ZM191.602 5.89405H196.432C196.432 5.02605 196.199 4.35405 195.732 3.87805C195.265 3.40205 194.696 3.16405 194.024 3.16405C193.305 3.16405 192.727 3.42538 192.288 3.94805C191.859 4.46138 191.63 5.11005 191.602 5.89405ZM198.565 11.298L199.321 9.80005H198.957V8.62405H199.657V9.80005L198.943 11.298H198.565ZM207.729 9.80005L204.901 2.94005H205.349L207.295 7.64405C207.51 8.12005 207.65 8.48405 207.715 8.73605C207.79 8.99738 207.841 9.25405 207.869 9.50605H208.177C208.205 9.19805 208.252 8.94138 208.317 8.73605C208.392 8.49338 208.518 8.14338 208.695 7.68605L210.557 2.94005H210.991L208.303 9.80005H207.729ZM212.291 6.38405C212.291 5.26405 212.603 4.38205 213.229 3.73805C213.854 3.09405 214.587 2.77205 215.427 2.77205C216.267 2.77205 216.999 3.09405 217.625 3.73805C218.25 4.38205 218.563 5.26405 218.563 6.38405C218.563 7.51338 218.25 8.39538 217.625 9.03005C217.009 9.65538 216.276 9.96805 215.427 9.96805C214.577 9.96805 213.84 9.65538 213.215 9.03005C212.599 8.39538 212.291 7.51338 212.291 6.38405ZM218.129 6.38405C218.129 5.40405 217.863 4.62472 217.331 4.04605C216.799 3.45805 216.164 3.16405 215.427 3.16405C214.689 3.16405 214.055 3.45805 213.523 4.04605C212.991 4.62472 212.725 5.40405 212.725 6.38405C212.725 7.37338 212.991 8.15272 213.523 8.72205C214.055 9.29138 214.689 9.57605 215.427 9.57605C216.164 9.57605 216.799 9.29138 217.331 8.72205C217.863 8.15272 218.129 7.37338 218.129 6.38405ZM220.808 1.23205V4.81606e-05H221.214V1.23205H220.808ZM220.808 9.80005V2.94005H221.214L221.228 9.80005H220.808ZM223.488 6.35605C223.488 5.32938 223.759 4.47538 224.3 3.79405C224.842 3.11272 225.546 2.77205 226.414 2.77205C227.105 2.77205 227.688 2.95872 228.164 3.33205C228.64 3.69605 228.948 4.13938 229.088 4.66205L228.668 4.78805C228.538 4.31205 228.272 3.92472 227.87 3.62605C227.478 3.31805 226.993 3.16405 226.414 3.16405C225.714 3.16405 225.122 3.44872 224.636 4.01805C224.16 4.58738 223.922 5.36672 223.922 6.35605C223.922 7.35472 224.156 8.14338 224.622 8.72205C225.098 9.29138 225.705 9.57605 226.442 9.57605C227.068 9.57605 227.576 9.38938 227.968 9.01605C228.36 8.63338 228.612 8.19005 228.724 7.68605L229.144 7.81205C228.986 8.44672 228.664 8.96472 228.178 9.36605C227.702 9.76738 227.124 9.96805 226.442 9.96805C225.565 9.96805 224.851 9.64138 224.3 8.98805C223.759 8.32538 223.488 7.44805 223.488 6.35605ZM230.68 6.16005C230.68 5.12405 230.955 4.30272 231.506 3.69605C232.057 3.08005 232.729 2.77205 233.522 2.77205C234.353 2.77205 235.029 3.06605 235.552 3.65405C236.075 4.23272 236.336 4.99338 236.336 5.93605C236.336 6.05738 236.331 6.16938 236.322 6.27205H231.114C231.114 7.40138 231.338 8.23672 231.786 8.77805C232.243 9.31005 232.831 9.57605 233.55 9.57605C234.129 9.57605 234.623 9.41738 235.034 9.10005C235.454 8.77338 235.739 8.38138 235.888 7.92405L236.28 8.10605C236.121 8.59138 235.799 9.02538 235.314 9.40805C234.829 9.78138 234.241 9.96805 233.55 9.96805C232.654 9.96805 231.949 9.64605 231.436 9.00205C230.932 8.35805 230.68 7.41072 230.68 6.16005ZM231.1 5.89405H235.93C235.93 5.02605 235.697 4.35405 235.23 3.87805C234.763 3.40205 234.194 3.16405 233.522 3.16405C232.803 3.16405 232.225 3.42538 231.786 3.94805C231.357 4.46138 231.128 5.11005 231.1 5.89405ZM238.063 11.298L238.819 9.80005H238.455V8.62405H239.155V9.80005L238.441 11.298H238.063ZM51.8522 22.204C51.8522 21.364 52.2862 20.7014 53.1542 20.216C54.0315 19.7214 55.1422 19.4507 56.4862 19.404V18.914C56.4862 18.4007 56.3135 17.9807 55.9682 17.654C55.6322 17.3274 55.1375 17.164 54.4842 17.164C53.2709 17.164 52.4962 17.6354 52.1602 18.578L51.7682 18.41C51.8989 17.9807 52.1975 17.6027 52.6642 17.276C53.1309 16.94 53.7375 16.772 54.4842 16.772C55.3149 16.772 55.9215 16.982 56.3042 17.402C56.6962 17.8127 56.8922 18.3447 56.8922 18.998V22.54C56.8922 22.82 56.9575 23.0347 57.0882 23.184C57.2282 23.3334 57.4102 23.408 57.6342 23.408H58.2082V23.8H57.6902C57.2889 23.8 56.9995 23.6927 56.8222 23.478C56.6542 23.254 56.5795 22.8714 56.5982 22.33H56.3042C55.8469 23.422 55.0489 23.968 53.9102 23.968C53.2849 23.968 52.7855 23.814 52.4122 23.506C52.0389 23.1887 51.8522 22.7547 51.8522 22.204ZM56.4862 20.622V19.768C55.2355 19.824 54.2229 20.062 53.4482 20.482C52.6735 20.902 52.2862 21.476 52.2862 22.204C52.2862 22.6147 52.4355 22.946 52.7342 23.198C53.0329 23.45 53.4342 23.576 53.9382 23.576C54.6289 23.576 55.2262 23.324 55.7302 22.82C56.2342 22.3067 56.4862 21.574 56.4862 20.622ZM59.7804 23.8V16.94H60.1724C60.1724 17.6214 60.0977 18.2 59.9484 18.676H60.2844C60.4337 18.1534 60.6857 17.7054 61.0404 17.332C61.3857 16.9587 61.9177 16.772 62.6364 16.772C63.4857 16.772 64.1204 17.0334 64.5404 17.556C64.9604 18.0787 65.1704 18.76 65.1704 19.6V23.8H64.7504V19.712C64.7504 18.9 64.5637 18.2747 64.1904 17.836C63.817 17.388 63.2897 17.164 62.6084 17.164C62.1604 17.1547 61.7684 17.2527 61.4324 17.458C61.1057 17.654 60.8537 17.92 60.6764 18.256C60.5084 18.5827 60.3824 18.914 60.2984 19.25C60.2237 19.586 60.1864 19.9267 60.1864 20.272V23.8H59.7804ZM68.1544 23.03C67.6038 22.3954 67.3284 21.5087 67.3284 20.37C67.3284 19.2314 67.6038 18.3494 68.1544 17.724C68.7051 17.0894 69.3771 16.772 70.1704 16.772C70.7398 16.772 71.2251 16.9447 71.6264 17.29C72.0371 17.626 72.3171 18.0414 72.4664 18.536H72.7884C72.6951 18.1067 72.6438 17.864 72.6344 17.808C72.6158 17.584 72.6064 17.36 72.6064 17.136V14H73.0124V23.8H72.6204C72.6204 23.4827 72.6298 23.2027 72.6484 22.96C72.6671 22.848 72.7184 22.596 72.8024 22.204H72.4664C72.3171 22.708 72.0418 23.128 71.6404 23.464C71.2391 23.8 70.7491 23.968 70.1704 23.968C69.3771 23.968 68.7051 23.6554 68.1544 23.03ZM71.9484 22.75C72.4058 22.1994 72.6344 21.406 72.6344 20.37C72.6344 19.334 72.4058 18.5407 71.9484 17.99C71.4911 17.4394 70.9078 17.164 70.1984 17.164C69.5078 17.164 68.9291 17.444 68.4624 18.004C67.9958 18.564 67.7624 19.3527 67.7624 20.37C67.7624 21.3967 67.9911 22.19 68.4484 22.75C68.9151 23.3007 69.4984 23.576 70.1984 23.576C70.9078 23.576 71.4911 23.3007 71.9484 22.75ZM79.3737 22.204C79.3737 21.364 79.8077 20.7014 80.6757 20.216C81.553 19.7214 82.6637 19.4507 84.0077 19.404V18.914C84.0077 18.4007 83.835 17.9807 83.4897 17.654C83.1537 17.3274 82.659 17.164 82.0057 17.164C80.7924 17.164 80.0177 17.6354 79.6817 18.578L79.2897 18.41C79.4204 17.9807 79.719 17.6027 80.1857 17.276C80.6524 16.94 81.259 16.772 82.0057 16.772C82.8364 16.772 83.443 16.982 83.8257 17.402C84.2177 17.8127 84.4137 18.3447 84.4137 18.998V22.54C84.4137 22.82 84.479 23.0347 84.6097 23.184C84.7497 23.3334 84.9317 23.408 85.1557 23.408H85.7297V23.8H85.2117C84.8104 23.8 84.521 23.6927 84.3437 23.478C84.1757 23.254 84.101 22.8714 84.1197 22.33H83.8257C83.3684 23.422 82.5704 23.968 81.4317 23.968C80.8064 23.968 80.307 23.814 79.9337 23.506C79.5604 23.1887 79.3737 22.7547 79.3737 22.204ZM84.0077 20.622V19.768C82.757 19.824 81.7444 20.062 80.9697 20.482C80.195 20.902 79.8077 21.476 79.8077 22.204C79.8077 22.6147 79.957 22.946 80.2557 23.198C80.5544 23.45 80.9557 23.576 81.4597 23.576C82.1504 23.576 82.7477 23.324 83.2517 22.82C83.7557 22.3067 84.0077 21.574 84.0077 20.622ZM87.1899 21.224V16.94H87.5959V21.084C87.5959 21.9147 87.7732 22.54 88.1279 22.96C88.4919 23.3707 89.0005 23.576 89.6539 23.576C90.3725 23.576 90.9465 23.3007 91.3759 22.75C91.8052 22.19 92.0199 21.42 92.0199 20.44V16.94H92.4259V23.8H92.0199C92.0199 23.2494 92.0945 22.6754 92.2439 22.078H91.9219C91.7912 22.5447 91.5625 22.974 91.2359 23.366C90.8999 23.7674 90.3772 23.968 89.6679 23.968C88.8465 23.968 88.2259 23.73 87.8059 23.254C87.3952 22.778 87.1899 22.1014 87.1899 21.224ZM95.5255 23.03C94.9749 22.3954 94.6995 21.5087 94.6995 20.37C94.6995 19.2314 94.9749 18.3494 95.5255 17.724C96.0762 17.0894 96.7482 16.772 97.5415 16.772C98.1109 16.772 98.5962 16.9447 98.9975 17.29C99.4082 17.626 99.6882 18.0414 99.8375 18.536H100.16C100.066 18.1067 100.015 17.864 100.006 17.808C99.9869 17.584 99.9775 17.36 99.9775 17.136V14H100.384V23.8H99.9915C99.9915 23.4827 100.001 23.2027 100.02 22.96C100.038 22.848 100.09 22.596 100.174 22.204H99.8375C99.6882 22.708 99.4129 23.128 99.0115 23.464C98.6102 23.8 98.1202 23.968 97.5415 23.968C96.7482 23.968 96.0762 23.6554 95.5255 23.03ZM99.3195 22.75C99.7769 22.1994 100.006 21.406 100.006 20.37C100.006 19.334 99.7769 18.5407 99.3195 17.99C98.8622 17.4394 98.2789 17.164 97.5695 17.164C96.8789 17.164 96.3002 17.444 95.8335 18.004C95.3669 18.564 95.1335 19.3527 95.1335 20.37C95.1335 21.3967 95.3622 22.19 95.8195 22.75C96.2862 23.3007 96.8695 23.576 97.5695 23.576C98.2789 23.576 98.8622 23.3007 99.3195 22.75ZM103.189 15.232V14H103.595V15.232H103.189ZM103.189 23.8V16.94H103.595L103.609 23.8H103.189ZM105.855 20.384C105.855 19.264 106.168 18.382 106.793 17.738C107.418 17.094 108.151 16.772 108.991 16.772C109.831 16.772 110.564 17.094 111.189 17.738C111.814 18.382 112.127 19.264 112.127 20.384C112.127 21.5134 111.814 22.3954 111.189 23.03C110.573 23.6554 109.84 23.968 108.991 23.968C108.142 23.968 107.404 23.6554 106.779 23.03C106.163 22.3954 105.855 21.5134 105.855 20.384ZM111.693 20.384C111.693 19.404 111.427 18.6247 110.895 18.046C110.363 17.458 109.728 17.164 108.991 17.164C108.254 17.164 107.619 17.458 107.087 18.046C106.555 18.6247 106.289 19.404 106.289 20.384C106.289 21.3734 106.555 22.1527 107.087 22.722C107.619 23.2914 108.254 23.576 108.991 23.576C109.728 23.576 110.363 23.2914 110.895 22.722C111.427 22.1527 111.693 21.3734 111.693 20.384ZM118.446 26.53V16.94H118.838C118.838 17.3134 118.824 17.5934 118.796 17.78C118.787 17.892 118.74 18.144 118.656 18.536H118.992C119.142 18.0414 119.417 17.626 119.818 17.29C120.229 16.9447 120.719 16.772 121.288 16.772C122.082 16.772 122.754 17.0847 123.304 17.71C123.855 18.3354 124.13 19.222 124.13 20.37C124.13 21.518 123.855 22.4047 123.304 23.03C122.754 23.6554 122.082 23.968 121.288 23.968C120.71 23.968 120.22 23.8 119.818 23.464C119.417 23.128 119.142 22.708 118.992 22.204H118.67C118.764 22.5587 118.815 22.8014 118.824 22.932C118.843 23.156 118.852 23.38 118.852 23.604V26.53H118.446ZM122.996 22.75C123.463 22.19 123.696 21.3967 123.696 20.37C123.696 19.3434 123.463 18.5547 122.996 18.004C122.53 17.444 121.951 17.164 121.26 17.164C120.542 17.164 119.954 17.4394 119.496 17.99C119.048 18.5407 118.824 19.334 118.824 20.37C118.824 21.406 119.048 22.1994 119.496 22.75C119.954 23.3007 120.542 23.576 121.26 23.576C121.951 23.576 122.53 23.3007 122.996 22.75ZM126.403 23.8V16.94H126.795C126.795 17.5467 126.735 18.144 126.613 18.732H126.935C127.047 18.172 127.281 17.7194 127.635 17.374C127.99 17.0287 128.461 16.856 129.049 16.856C129.479 16.856 129.833 16.9027 130.113 16.996V17.402C129.731 17.318 129.371 17.276 129.035 17.276C128.289 17.276 127.729 17.6027 127.355 18.256C126.982 18.9 126.795 19.7027 126.795 20.664V23.8H126.403ZM130.656 20.384C130.656 19.264 130.969 18.382 131.594 17.738C132.219 17.094 132.952 16.772 133.792 16.772C134.632 16.772 135.365 17.094 135.99 17.738C136.615 18.382 136.928 19.264 136.928 20.384C136.928 21.5134 136.615 22.3954 135.99 23.03C135.374 23.6554 134.641 23.968 133.792 23.968C132.943 23.968 132.205 23.6554 131.58 23.03C130.964 22.3954 130.656 21.5134 130.656 20.384ZM136.494 20.384C136.494 19.404 136.228 18.6247 135.696 18.046C135.164 17.458 134.529 17.164 133.792 17.164C133.055 17.164 132.42 17.458 131.888 18.046C131.356 18.6247 131.09 19.404 131.09 20.384C131.09 21.3734 131.356 22.1527 131.888 22.722C132.42 23.2914 133.055 23.576 133.792 23.576C134.529 23.576 135.164 23.2914 135.696 22.722C136.228 22.1527 136.494 21.3734 136.494 20.384ZM138.627 20.356C138.627 19.3294 138.898 18.4754 139.439 17.794C139.98 17.1127 140.685 16.772 141.553 16.772C142.244 16.772 142.827 16.9587 143.303 17.332C143.779 17.696 144.087 18.1394 144.227 18.662L143.807 18.788C143.676 18.312 143.41 17.9247 143.009 17.626C142.617 17.318 142.132 17.164 141.553 17.164C140.853 17.164 140.26 17.4487 139.775 18.018C139.299 18.5874 139.061 19.3667 139.061 20.356C139.061 21.3547 139.294 22.1434 139.761 22.722C140.237 23.2914 140.844 23.576 141.581 23.576C142.206 23.576 142.715 23.3894 143.107 23.016C143.499 22.6334 143.751 22.19 143.863 21.686L144.283 21.812C144.124 22.4467 143.802 22.9647 143.317 23.366C142.841 23.7674 142.262 23.968 141.581 23.968C140.704 23.968 139.99 23.6414 139.439 22.988C138.898 22.3254 138.627 21.448 138.627 20.356ZM145.819 20.16C145.819 19.124 146.094 18.3027 146.645 17.696C147.195 17.08 147.867 16.772 148.661 16.772C149.491 16.772 150.168 17.066 150.691 17.654C151.213 18.2327 151.475 18.9934 151.475 19.936C151.475 20.0574 151.47 20.1694 151.461 20.272H146.253C146.253 21.4014 146.477 22.2367 146.925 22.778C147.382 23.31 147.97 23.576 148.689 23.576C149.267 23.576 149.762 23.4174 150.173 23.1C150.593 22.7734 150.877 22.3814 151.027 21.924L151.419 22.106C151.26 22.5914 150.938 23.0254 150.453 23.408C149.967 23.7814 149.379 23.968 148.689 23.968C147.793 23.968 147.088 23.646 146.575 23.002C146.071 22.358 145.819 21.4107 145.819 20.16ZM146.239 19.894H151.069C151.069 19.026 150.835 18.354 150.369 17.878C149.902 17.402 149.333 17.164 148.661 17.164C147.942 17.164 147.363 17.4254 146.925 17.948C146.495 18.4614 146.267 19.11 146.239 19.894ZM153.02 22.022L153.426 21.882C153.473 22.33 153.697 22.7267 154.098 23.072C154.509 23.408 155.022 23.576 155.638 23.576C156.31 23.576 156.823 23.4407 157.178 23.17C157.542 22.8994 157.724 22.554 157.724 22.134C157.724 21.7514 157.584 21.4294 157.304 21.168C157.033 20.8974 156.655 20.7014 156.17 20.58L155.134 20.314C154.546 20.1554 154.093 19.9454 153.776 19.684C153.468 19.4227 153.314 19.0494 153.314 18.564C153.314 18.0507 153.529 17.626 153.958 17.29C154.387 16.9447 154.938 16.772 155.61 16.772C156.235 16.772 156.749 16.926 157.15 17.234C157.561 17.5327 157.827 17.906 157.948 18.354L157.556 18.522C157.491 18.1767 157.285 17.864 156.94 17.584C156.595 17.304 156.151 17.164 155.61 17.164C155.022 17.164 154.56 17.2947 154.224 17.556C153.897 17.8174 153.734 18.13 153.734 18.494C153.734 19.194 154.173 19.6467 155.05 19.852L156.1 20.118C157.472 20.4634 158.158 21.1354 158.158 22.134C158.158 22.6754 157.948 23.1187 157.528 23.464C157.108 23.8 156.478 23.968 155.638 23.968C154.854 23.968 154.238 23.7814 153.79 23.408C153.351 23.0347 153.095 22.5727 153.02 22.022ZM159.637 22.022L160.043 21.882C160.09 22.33 160.314 22.7267 160.715 23.072C161.126 23.408 161.639 23.576 162.255 23.576C162.927 23.576 163.441 23.4407 163.795 23.17C164.159 22.8994 164.341 22.554 164.341 22.134C164.341 21.7514 164.201 21.4294 163.921 21.168C163.651 20.8974 163.273 20.7014 162.787 20.58L161.751 20.314C161.163 20.1554 160.711 19.9454 160.393 19.684C160.085 19.4227 159.931 19.0494 159.931 18.564C159.931 18.0507 160.146 17.626 160.575 17.29C161.005 16.9447 161.555 16.772 162.227 16.772C162.853 16.772 163.366 16.926 163.767 17.234C164.178 17.5327 164.444 17.906 164.565 18.354L164.173 18.522C164.108 18.1767 163.903 17.864 163.557 17.584C163.212 17.304 162.769 17.164 162.227 17.164C161.639 17.164 161.177 17.2947 160.841 17.556C160.515 17.8174 160.351 18.13 160.351 18.494C160.351 19.194 160.79 19.6467 161.667 19.852L162.717 20.118C164.089 20.4634 164.775 21.1354 164.775 22.134C164.775 22.6754 164.565 23.1187 164.145 23.464C163.725 23.8 163.095 23.968 162.255 23.968C161.471 23.968 160.855 23.7814 160.407 23.408C159.969 23.0347 159.712 22.5727 159.637 22.022ZM166.941 15.232V14H167.347V15.232H166.941ZM166.941 23.8V16.94H167.347L167.361 23.8H166.941ZM170.167 23.8V16.94H170.559C170.559 17.6214 170.484 18.2 170.335 18.676H170.671C170.82 18.1534 171.072 17.7054 171.427 17.332C171.772 16.9587 172.304 16.772 173.023 16.772C173.872 16.772 174.507 17.0334 174.927 17.556C175.347 18.0787 175.557 18.76 175.557 19.6V23.8H175.137V19.712C175.137 18.9 174.95 18.2747 174.577 17.836C174.204 17.388 173.676 17.164 172.995 17.164C172.547 17.1547 172.155 17.2527 171.819 17.458C171.492 17.654 171.24 17.92 171.063 18.256C170.895 18.5827 170.769 18.914 170.685 19.25C170.61 19.586 170.573 19.9267 170.573 20.272V23.8H170.167ZM177.421 25.242C177.421 24.6167 177.757 24.1594 178.429 23.87V23.548C177.981 23.436 177.757 23.184 177.757 22.792C177.757 22.2134 178.135 21.7654 178.891 21.448V21.14C178.285 20.6454 177.981 20.0107 177.981 19.236C177.981 18.536 178.215 17.9527 178.681 17.486C179.148 17.01 179.759 16.772 180.515 16.772C181.01 16.772 181.439 16.898 181.803 17.15C182.177 17.3927 182.447 17.7427 182.615 18.2H182.937C182.919 17.7894 182.998 17.4767 183.175 17.262C183.362 17.0474 183.628 16.94 183.973 16.94H184.477V17.332H184.085C183.945 17.332 183.824 17.346 183.721 17.374C183.628 17.3927 183.525 17.444 183.413 17.528C183.301 17.6027 183.217 17.7287 183.161 17.906C183.105 18.0834 183.077 18.3074 183.077 18.578V19.18C183.077 19.9547 182.835 20.58 182.349 21.056C181.864 21.5227 181.243 21.756 180.487 21.756C180.002 21.756 179.577 21.658 179.213 21.462C178.905 21.602 178.653 21.7887 178.457 22.022C178.271 22.2554 178.177 22.4934 178.177 22.736C178.177 23.1934 178.476 23.422 179.073 23.422H182.265C182.835 23.422 183.297 23.562 183.651 23.842C184.015 24.122 184.197 24.5 184.197 24.976C184.197 25.4894 184.034 25.8767 183.707 26.138C183.381 26.3994 182.951 26.53 182.419 26.53H179.073C177.972 26.53 177.421 26.1007 177.421 25.242ZM182.657 19.264C182.657 18.6667 182.452 18.1674 182.041 17.766C181.631 17.3647 181.122 17.164 180.515 17.164C179.881 17.164 179.367 17.3647 178.975 17.766C178.583 18.158 178.387 18.6574 178.387 19.264C178.387 19.88 178.574 20.3887 178.947 20.79C179.33 21.182 179.843 21.378 180.487 21.378C181.122 21.378 181.64 21.182 182.041 20.79C182.452 20.3887 182.657 19.88 182.657 19.264ZM179.227 26.152H182.349C183.292 26.152 183.763 25.76 183.763 24.976C183.763 24.5934 183.619 24.2994 183.329 24.094C183.049 23.898 182.653 23.8 182.139 23.8H178.835C178.602 23.912 178.373 24.1034 178.149 24.374C177.935 24.6447 177.827 24.9154 177.827 25.186C177.827 25.5034 177.93 25.7414 178.135 25.9C178.35 26.068 178.714 26.152 179.227 26.152ZM185.857 23.8V22.624H186.557V23.8H185.857Z" fill="white"/>
</svg>
