<svg width="331" height="201" viewBox="0 0 331 201" fill="none" xmlns="http://www.w3.org/2000/svg">
<rect width="331" height="201" fill="black"/>
<path d="M108.451 97L97.7469 63.4H102.547L109.651 86.344C110.259 88.232 110.627 90.584 110.755 93.4H112.627C112.787 90.712 113.187 88.376 113.827 86.392L121.027 63.4H125.779L114.931 97H108.451ZM131.13 68.584V63.4H135.45V68.584H131.13ZM131.274 97V73.24H135.354V97H131.274ZM141.111 90.856L145.047 89.56C145.815 92.632 147.943 94.168 151.431 94.168C155.015 94.168 156.807 93.016 156.807 90.712C156.807 89.752 156.455 88.984 155.751 88.408C155.047 87.8 153.879 87.336 152.247 87.016L149.511 86.488C147.047 86.008 145.191 85.256 143.943 84.232C142.727 83.208 142.119 81.704 142.119 79.72C142.119 77.672 142.967 75.976 144.663 74.632C146.359 73.256 148.407 72.568 150.807 72.568C153.399 72.568 155.511 73.128 157.143 74.248C158.775 75.368 159.879 76.856 160.455 78.712L156.759 80.056C155.799 77.304 153.815 75.928 150.807 75.928C149.303 75.928 148.119 76.264 147.255 76.936C146.391 77.576 145.959 78.36 145.959 79.288C145.959 80.152 146.247 80.824 146.823 81.304C147.399 81.784 148.503 82.184 150.135 82.504L152.871 83.032C154.951 83.48 156.791 84.232 158.391 85.288C160.055 86.344 160.887 88.04 160.887 90.376C160.887 92.616 160.039 94.392 158.343 95.704C156.679 97.016 154.375 97.672 151.431 97.672C148.839 97.672 146.599 97.08 144.711 95.896C142.823 94.712 141.623 93.032 141.111 90.856ZM165.121 85.144C165.121 81.56 166.161 78.568 168.241 76.168C170.353 73.768 172.993 72.568 176.161 72.568C179.329 72.568 181.953 73.768 184.033 76.168C186.145 78.568 187.201 81.56 187.201 85.144C187.201 88.696 186.129 91.672 183.985 94.072C181.873 96.472 179.265 97.672 176.161 97.672C173.089 97.736 170.465 96.536 168.289 94.072C166.113 91.608 165.057 88.632 165.121 85.144ZM182.977 85.192C182.977 82.28 182.353 80.056 181.105 78.52C179.889 76.952 178.241 76.168 176.161 76.168C174.049 76.168 172.385 76.952 171.169 78.52C169.953 80.056 169.345 82.28 169.345 85.192C169.345 88.072 169.953 90.28 171.169 91.816C172.385 93.32 174.049 94.072 176.161 94.072C178.273 94.072 179.937 93.32 181.153 91.816C182.369 90.28 182.977 88.072 182.977 85.192ZM193.384 97V73.24H197.416C197.416 75.064 196.536 77.304 194.776 79.96H197.32C197.96 77.656 198.888 75.912 200.104 74.728C201.352 73.512 203.032 72.904 205.144 72.904C206.008 72.904 206.824 73 207.592 73.192V77.368C206.632 77.208 205.784 77.128 205.048 77.128C199.992 77.128 197.464 80.12 197.464 86.104V97H193.384ZM210.504 90.856C210.504 87.848 211.88 85.624 214.632 84.184C217.416 82.68 221.032 81.768 225.48 81.448V80.776C225.48 77.704 223.736 76.168 220.248 76.168C216.952 76.168 214.824 77.624 213.864 80.536L209.976 79.096C210.52 77.272 211.672 75.736 213.432 74.488C215.192 73.208 217.48 72.568 220.296 72.568C223.304 72.568 225.592 73.288 227.16 74.728C228.76 76.168 229.56 78.168 229.56 80.728V92.008C229.56 92.552 229.656 92.92 229.848 93.112C230.04 93.304 230.408 93.4 230.952 93.4H233.448V97H231.624C229.896 97 228.728 96.664 228.12 95.992C227.512 95.288 227.208 93.96 227.208 92.008H225.48C225.064 93.704 224.2 95.08 222.888 96.136C221.576 97.16 219.976 97.672 218.088 97.672C215.72 97.672 213.864 97.064 212.52 95.848C211.176 94.632 210.504 92.968 210.504 90.856ZM225.48 87.16V84.52C218.312 85.32 214.728 87.32 214.728 90.52C214.728 91.672 215.096 92.584 215.832 93.256C216.6 93.896 217.704 94.216 219.144 94.216C220.872 94.216 222.36 93.608 223.608 92.392C224.856 91.144 225.48 89.4 225.48 87.16Z" fill="white"/>
<path d="M46.1566 122V112.2H49.6146C50.5666 112.2 51.3039 112.457 51.8266 112.97C52.3492 113.483 52.6106 114.137 52.6106 114.93C52.6106 115.733 52.3446 116.391 51.8126 116.904C51.2899 117.417 50.5432 117.674 49.5726 117.674H46.5766V122H46.1566ZM46.5766 117.282H49.5026C50.3706 117.282 51.0286 117.058 51.4766 116.61C51.9339 116.162 52.1626 115.602 52.1626 114.93C52.1626 114.258 51.9386 113.703 51.4906 113.264C51.0426 112.816 50.3799 112.592 49.5026 112.592H46.5766V117.282ZM53.6564 118.584C53.6564 117.464 53.9691 116.582 54.5944 115.938C55.2197 115.294 55.9524 114.972 56.7924 114.972C57.6324 114.972 58.3651 115.294 58.9904 115.938C59.6157 116.582 59.9284 117.464 59.9284 118.584C59.9284 119.713 59.6157 120.595 58.9904 121.23C58.3744 121.855 57.6417 122.168 56.7924 122.168C55.9431 122.168 55.2057 121.855 54.5804 121.23C53.9644 120.595 53.6564 119.713 53.6564 118.584ZM59.4944 118.584C59.4944 117.604 59.2284 116.825 58.6964 116.246C58.1644 115.658 57.5297 115.364 56.7924 115.364C56.0551 115.364 55.4204 115.658 54.8884 116.246C54.3564 116.825 54.0904 117.604 54.0904 118.584C54.0904 119.573 54.3564 120.353 54.8884 120.922C55.4204 121.491 56.0551 121.776 56.7924 121.776C57.5297 121.776 58.1644 121.491 58.6964 120.922C59.2284 120.353 59.4944 119.573 59.4944 118.584ZM63.7554 122L61.3754 115.14H61.8094L63.3774 119.69C63.7041 120.605 63.8721 121.281 63.8814 121.72H64.2034C64.2501 121.188 64.4088 120.511 64.6794 119.69L66.1354 115.14H66.6114L68.0534 119.69C68.3614 120.698 68.5201 121.375 68.5294 121.72H68.8654C68.9028 121.197 69.0614 120.516 69.3414 119.676L70.9234 115.14H71.3574L68.9774 122H68.3894L66.9334 117.408C66.7934 116.969 66.6908 116.615 66.6254 116.344C66.5881 116.111 66.5601 115.849 66.5414 115.56H66.2054C66.1868 115.887 66.1541 116.157 66.1074 116.372C66.0514 116.633 65.9534 116.979 65.8134 117.408L64.3294 122H63.7554ZM72.825 118.36C72.825 117.324 73.1004 116.503 73.651 115.896C74.2017 115.28 74.8737 114.972 75.667 114.972C76.4977 114.972 77.1744 115.266 77.697 115.854C78.2197 116.433 78.481 117.193 78.481 118.136C78.481 118.257 78.4764 118.369 78.467 118.472H73.259C73.259 119.601 73.483 120.437 73.931 120.978C74.3884 121.51 74.9764 121.776 75.695 121.776C76.2737 121.776 76.7684 121.617 77.179 121.3C77.599 120.973 77.8837 120.581 78.033 120.124L78.425 120.306C78.2664 120.791 77.9444 121.225 77.459 121.608C76.9737 121.981 76.3857 122.168 75.695 122.168C74.799 122.168 74.0944 121.846 73.581 121.202C73.077 120.558 72.825 119.611 72.825 118.36ZM73.245 118.094H78.075C78.075 117.226 77.8417 116.554 77.375 116.078C76.9084 115.602 76.339 115.364 75.667 115.364C74.9484 115.364 74.3697 115.625 73.931 116.148C73.5017 116.661 73.273 117.31 73.245 118.094ZM80.7125 122V115.14H81.1045C81.1045 115.747 81.0438 116.344 80.9225 116.932H81.2445C81.3565 116.372 81.5898 115.919 81.9445 115.574C82.2992 115.229 82.7705 115.056 83.3585 115.056C83.7878 115.056 84.1425 115.103 84.4225 115.196V115.602C84.0398 115.518 83.6805 115.476 83.3445 115.476C82.5978 115.476 82.0378 115.803 81.6645 116.456C81.2912 117.1 81.1045 117.903 81.1045 118.864V122H80.7125ZM86.8412 122V115.518H84.9792V115.14H86.8412V114.02C86.8412 112.807 87.4946 112.2 88.8012 112.2H89.5712V112.592H88.7172C87.7372 112.592 87.2472 113.082 87.2472 114.062V115.14H89.3472V115.518H87.2472V122H86.8412ZM90.8954 119.424V115.14H91.3014V119.284C91.3014 120.115 91.4788 120.74 91.8334 121.16C92.1974 121.571 92.7061 121.776 93.3594 121.776C94.0781 121.776 94.6521 121.501 95.0814 120.95C95.5108 120.39 95.7254 119.62 95.7254 118.64V115.14H96.1314V122H95.7254C95.7254 121.449 95.8001 120.875 95.9494 120.278H95.6274C95.4968 120.745 95.2681 121.174 94.9414 121.566C94.6054 121.967 94.0828 122.168 93.3734 122.168C92.5521 122.168 91.9314 121.93 91.5114 121.454C91.1008 120.978 90.8954 120.301 90.8954 119.424ZM98.9371 122V112.2H99.3431V122H98.9371ZM112.191 122L110.987 118.766H106.325L105.121 122H104.645L108.369 112.2H108.929L112.681 122H112.191ZM106.465 118.374H110.833L109.069 113.67C108.91 113.25 108.831 112.853 108.831 112.48H108.467C108.448 112.872 108.364 113.269 108.215 113.67L106.465 118.374ZM114.871 122V112.2H115.291V122H114.871ZM122.332 120.18V115.518H120.484V115.14H122.332V113.166H122.738V115.14H124.824V115.518H122.738V120.138C122.738 121.118 123.228 121.608 124.208 121.608H125.062V122H124.292C122.985 122 122.332 121.393 122.332 120.18ZM126.008 118.584C126.008 117.464 126.321 116.582 126.946 115.938C127.571 115.294 128.304 114.972 129.144 114.972C129.984 114.972 130.717 115.294 131.342 115.938C131.967 116.582 132.28 117.464 132.28 118.584C132.28 119.713 131.967 120.595 131.342 121.23C130.726 121.855 129.993 122.168 129.144 122.168C128.295 122.168 127.557 121.855 126.932 121.23C126.316 120.595 126.008 119.713 126.008 118.584ZM131.846 118.584C131.846 117.604 131.58 116.825 131.048 116.246C130.516 115.658 129.881 115.364 129.144 115.364C128.407 115.364 127.772 115.658 127.24 116.246C126.708 116.825 126.442 117.604 126.442 118.584C126.442 119.573 126.708 120.353 127.24 120.922C127.772 121.491 128.407 121.776 129.144 121.776C129.881 121.776 130.516 121.491 131.048 120.922C131.58 120.353 131.846 119.573 131.846 118.584ZM133.965 118.584C133.965 117.464 134.278 116.582 134.903 115.938C135.528 115.294 136.261 114.972 137.101 114.972C137.941 114.972 138.674 115.294 139.299 115.938C139.924 116.582 140.237 117.464 140.237 118.584C140.237 119.713 139.924 120.595 139.299 121.23C138.683 121.855 137.95 122.168 137.101 122.168C136.252 122.168 135.514 121.855 134.889 121.23C134.273 120.595 133.965 119.713 133.965 118.584ZM139.803 118.584C139.803 117.604 139.537 116.825 139.005 116.246C138.473 115.658 137.838 115.364 137.101 115.364C136.364 115.364 135.729 115.658 135.197 116.246C134.665 116.825 134.399 117.604 134.399 118.584C134.399 119.573 134.665 120.353 135.197 120.922C135.729 121.491 136.364 121.776 137.101 121.776C137.838 121.776 138.473 121.491 139.005 120.922C139.537 120.353 139.803 119.573 139.803 118.584ZM142.482 122V112.2H142.888V122H142.482ZM144.995 120.222L145.401 120.082C145.448 120.53 145.672 120.927 146.073 121.272C146.484 121.608 146.997 121.776 147.613 121.776C148.285 121.776 148.799 121.641 149.153 121.37C149.517 121.099 149.699 120.754 149.699 120.334C149.699 119.951 149.559 119.629 149.279 119.368C149.009 119.097 148.631 118.901 148.145 118.78L147.109 118.514C146.521 118.355 146.069 118.145 145.751 117.884C145.443 117.623 145.289 117.249 145.289 116.764C145.289 116.251 145.504 115.826 145.933 115.49C146.363 115.145 146.913 114.972 147.585 114.972C148.211 114.972 148.724 115.126 149.125 115.434C149.536 115.733 149.802 116.106 149.923 116.554L149.531 116.722C149.466 116.377 149.261 116.064 148.915 115.784C148.57 115.504 148.127 115.364 147.585 115.364C146.997 115.364 146.535 115.495 146.199 115.756C145.873 116.017 145.709 116.33 145.709 116.694C145.709 117.394 146.148 117.847 147.025 118.052L148.075 118.318C149.447 118.663 150.133 119.335 150.133 120.334C150.133 120.875 149.923 121.319 149.503 121.664C149.083 122 148.453 122.168 147.613 122.168C146.829 122.168 146.213 121.981 145.765 121.608C145.327 121.235 145.07 120.773 144.995 120.222ZM156.349 122V115.518H154.487V115.14H156.349V114.02C156.349 112.807 157.002 112.2 158.309 112.2H159.079V112.592H158.225C157.245 112.592 156.755 113.082 156.755 114.062V115.14H158.855V115.518H156.755V122H156.349ZM159.627 118.584C159.627 117.464 159.94 116.582 160.565 115.938C161.19 115.294 161.923 114.972 162.763 114.972C163.603 114.972 164.336 115.294 164.961 115.938C165.586 116.582 165.899 117.464 165.899 118.584C165.899 119.713 165.586 120.595 164.961 121.23C164.345 121.855 163.612 122.168 162.763 122.168C161.914 122.168 161.176 121.855 160.551 121.23C159.935 120.595 159.627 119.713 159.627 118.584ZM165.465 118.584C165.465 117.604 165.199 116.825 164.667 116.246C164.135 115.658 163.5 115.364 162.763 115.364C162.026 115.364 161.391 115.658 160.859 116.246C160.327 116.825 160.061 117.604 160.061 118.584C160.061 119.573 160.327 120.353 160.859 120.922C161.391 121.491 162.026 121.776 162.763 121.776C163.5 121.776 164.135 121.491 164.667 120.922C165.199 120.353 165.465 119.573 165.465 118.584ZM168.144 122V115.14H168.536C168.536 115.747 168.475 116.344 168.354 116.932H168.676C168.788 116.372 169.021 115.919 169.376 115.574C169.731 115.229 170.202 115.056 170.79 115.056C171.219 115.056 171.574 115.103 171.854 115.196V115.602C171.471 115.518 171.112 115.476 170.776 115.476C170.029 115.476 169.469 115.803 169.096 116.456C168.723 117.1 168.536 117.903 168.536 118.864V122H168.144ZM176.705 120.18V115.518H174.857V115.14H176.705V113.166H177.111V115.14H179.197V115.518H177.111V120.138C177.111 121.118 177.601 121.608 178.581 121.608H179.435V122H178.665C177.358 122 176.705 121.393 176.705 120.18ZM180.409 118.36C180.409 117.324 180.684 116.503 181.235 115.896C181.786 115.28 182.458 114.972 183.251 114.972C184.082 114.972 184.758 115.266 185.281 115.854C185.804 116.433 186.065 117.193 186.065 118.136C186.065 118.257 186.06 118.369 186.051 118.472H180.843C180.843 119.601 181.067 120.437 181.515 120.978C181.972 121.51 182.56 121.776 183.279 121.776C183.858 121.776 184.352 121.617 184.763 121.3C185.183 120.973 185.468 120.581 185.617 120.124L186.009 120.306C185.85 120.791 185.528 121.225 185.043 121.608C184.558 121.981 183.97 122.168 183.279 122.168C182.383 122.168 181.678 121.846 181.165 121.202C180.661 120.558 180.409 119.611 180.409 118.36ZM180.829 118.094H185.659C185.659 117.226 185.426 116.554 184.959 116.078C184.492 115.602 183.923 115.364 183.251 115.364C182.532 115.364 181.954 115.625 181.515 116.148C181.086 116.661 180.857 117.31 180.829 118.094ZM187.316 122L189.836 118.43L187.554 115.14H188.044L189.402 117.1C189.664 117.483 189.836 117.865 189.92 118.248H190.228C190.275 117.903 190.443 117.525 190.732 117.114L192.132 115.14H192.636L190.326 118.416L192.846 122H192.328L190.788 119.788C190.462 119.34 190.275 118.939 190.228 118.584H189.92C189.855 118.967 189.682 119.363 189.402 119.774L187.82 122H187.316ZM195.367 120.18V115.518H193.519V115.14H195.367V113.166H195.773V115.14H197.859V115.518H195.773V120.138C195.773 121.118 196.263 121.608 197.243 121.608H198.097V122H197.327C196.021 122 195.367 121.393 195.367 120.18ZM199.236 123.498L199.992 122H199.628V120.824H200.328V122L199.614 123.498H199.236ZM207.013 113.432V112.2H207.419V113.432H207.013ZM207.013 122V115.14H207.419L207.433 122H207.013ZM210.24 122V115.14H210.646C210.646 115.653 210.576 116.106 210.436 116.498H210.786C210.87 116.125 211.085 115.779 211.43 115.462C211.785 115.135 212.284 114.972 212.928 114.972C213.507 114.972 213.992 115.14 214.384 115.476C214.776 115.803 215.014 116.232 215.098 116.764H215.434C215.518 116.288 215.742 115.873 216.106 115.518C216.479 115.154 216.997 114.972 217.66 114.972C218.453 114.972 219.074 115.21 219.522 115.686C219.97 116.153 220.194 116.773 220.194 117.548V122H219.788V117.66C219.788 116.923 219.592 116.358 219.2 115.966C218.808 115.565 218.295 115.364 217.66 115.364C216.727 115.364 216.115 115.672 215.826 116.288C215.546 116.885 215.406 117.553 215.406 118.29V122H215V117.73C215 116.965 214.809 116.381 214.426 115.98C214.043 115.569 213.544 115.364 212.928 115.364C212.237 115.364 211.724 115.541 211.388 115.896C211.08 116.223 210.879 116.591 210.786 117.002C210.693 117.413 210.646 117.959 210.646 118.64V122H210.24ZM222.368 120.404C222.368 119.564 222.802 118.901 223.67 118.416C224.548 117.921 225.658 117.651 227.002 117.604V117.114C227.002 116.601 226.83 116.181 226.484 115.854C226.148 115.527 225.654 115.364 225 115.364C223.787 115.364 223.012 115.835 222.676 116.778L222.284 116.61C222.415 116.181 222.714 115.803 223.18 115.476C223.647 115.14 224.254 114.972 225 114.972C225.831 114.972 226.438 115.182 226.82 115.602C227.212 116.013 227.408 116.545 227.408 117.198V120.74C227.408 121.02 227.474 121.235 227.604 121.384C227.744 121.533 227.926 121.608 228.15 121.608H228.724V122H228.206C227.805 122 227.516 121.893 227.338 121.678C227.17 121.454 227.096 121.071 227.114 120.53H226.82C226.363 121.622 225.565 122.168 224.426 122.168C223.801 122.168 223.302 122.014 222.928 121.706C222.555 121.389 222.368 120.955 222.368 120.404ZM227.002 118.822V117.968C225.752 118.024 224.739 118.262 223.964 118.682C223.19 119.102 222.802 119.676 222.802 120.404C222.802 120.815 222.952 121.146 223.25 121.398C223.549 121.65 223.95 121.776 224.454 121.776C225.145 121.776 225.742 121.524 226.246 121.02C226.75 120.507 227.002 119.774 227.002 118.822ZM229.47 123.442C229.47 122.817 229.806 122.359 230.478 122.07V121.748C230.03 121.636 229.806 121.384 229.806 120.992C229.806 120.413 230.184 119.965 230.94 119.648V119.34C230.334 118.845 230.03 118.211 230.03 117.436C230.03 116.736 230.264 116.153 230.73 115.686C231.197 115.21 231.808 114.972 232.564 114.972C233.059 114.972 233.488 115.098 233.852 115.35C234.226 115.593 234.496 115.943 234.664 116.4H234.986C234.968 115.989 235.047 115.677 235.224 115.462C235.411 115.247 235.677 115.14 236.022 115.14H236.526V115.532H236.134C235.994 115.532 235.873 115.546 235.77 115.574C235.677 115.593 235.574 115.644 235.462 115.728C235.35 115.803 235.266 115.929 235.21 116.106C235.154 116.283 235.126 116.507 235.126 116.778V117.38C235.126 118.155 234.884 118.78 234.398 119.256C233.913 119.723 233.292 119.956 232.536 119.956C232.051 119.956 231.626 119.858 231.262 119.662C230.954 119.802 230.702 119.989 230.506 120.222C230.32 120.455 230.226 120.693 230.226 120.936C230.226 121.393 230.525 121.622 231.122 121.622H234.314C234.884 121.622 235.346 121.762 235.7 122.042C236.064 122.322 236.246 122.7 236.246 123.176C236.246 123.689 236.083 124.077 235.756 124.338C235.43 124.599 235 124.73 234.468 124.73H231.122C230.021 124.73 229.47 124.301 229.47 123.442ZM234.706 117.464C234.706 116.867 234.501 116.367 234.09 115.966C233.68 115.565 233.171 115.364 232.564 115.364C231.93 115.364 231.416 115.565 231.024 115.966C230.632 116.358 230.436 116.857 230.436 117.464C230.436 118.08 230.623 118.589 230.996 118.99C231.379 119.382 231.892 119.578 232.536 119.578C233.171 119.578 233.689 119.382 234.09 118.99C234.501 118.589 234.706 118.08 234.706 117.464ZM231.276 124.352H234.398C235.341 124.352 235.812 123.96 235.812 123.176C235.812 122.793 235.668 122.499 235.378 122.294C235.098 122.098 234.702 122 234.188 122H230.884C230.651 122.112 230.422 122.303 230.198 122.574C229.984 122.845 229.876 123.115 229.876 123.386C229.876 123.703 229.979 123.941 230.184 124.1C230.399 124.268 230.763 124.352 231.276 124.352ZM237.339 118.36C237.339 117.324 237.614 116.503 238.165 115.896C238.715 115.28 239.387 114.972 240.181 114.972C241.011 114.972 241.688 115.266 242.211 115.854C242.733 116.433 242.995 117.193 242.995 118.136C242.995 118.257 242.99 118.369 242.981 118.472H237.773C237.773 119.601 237.997 120.437 238.445 120.978C238.902 121.51 239.49 121.776 240.209 121.776C240.787 121.776 241.282 121.617 241.693 121.3C242.113 120.973 242.397 120.581 242.547 120.124L242.939 120.306C242.78 120.791 242.458 121.225 241.973 121.608C241.487 121.981 240.899 122.168 240.209 122.168C239.313 122.168 238.608 121.846 238.095 121.202C237.591 120.558 237.339 119.611 237.339 118.36ZM237.759 118.094H242.589C242.589 117.226 242.355 116.554 241.889 116.078C241.422 115.602 240.853 115.364 240.181 115.364C239.462 115.364 238.883 115.625 238.445 116.148C238.015 116.661 237.787 117.31 237.759 118.094ZM244.722 123.498L245.478 122H245.114V120.824H245.814V122L245.1 123.498H244.722ZM253.886 122L251.058 115.14H251.506L253.452 119.844C253.667 120.32 253.807 120.684 253.872 120.936C253.947 121.197 253.998 121.454 254.026 121.706H254.334C254.362 121.398 254.409 121.141 254.474 120.936C254.549 120.693 254.675 120.343 254.852 119.886L256.714 115.14H257.148L254.46 122H253.886ZM258.447 118.584C258.447 117.464 258.76 116.582 259.385 115.938C260.011 115.294 260.743 114.972 261.583 114.972C262.423 114.972 263.156 115.294 263.781 115.938C264.407 116.582 264.719 117.464 264.719 118.584C264.719 119.713 264.407 120.595 263.781 121.23C263.165 121.855 262.433 122.168 261.583 122.168C260.734 122.168 259.997 121.855 259.371 121.23C258.755 120.595 258.447 119.713 258.447 118.584ZM264.285 118.584C264.285 117.604 264.019 116.825 263.487 116.246C262.955 115.658 262.321 115.364 261.583 115.364C260.846 115.364 260.211 115.658 259.679 116.246C259.147 116.825 258.881 117.604 258.881 118.584C258.881 119.573 259.147 120.353 259.679 120.922C260.211 121.491 260.846 121.776 261.583 121.776C262.321 121.776 262.955 121.491 263.487 120.922C264.019 120.353 264.285 119.573 264.285 118.584ZM266.964 113.432V112.2H267.37V113.432H266.964ZM266.964 122V115.14H267.37L267.384 122H266.964ZM269.645 118.556C269.645 117.529 269.916 116.675 270.457 115.994C270.998 115.313 271.703 114.972 272.571 114.972C273.262 114.972 273.845 115.159 274.321 115.532C274.797 115.896 275.105 116.339 275.245 116.862L274.825 116.988C274.694 116.512 274.428 116.125 274.027 115.826C273.635 115.518 273.15 115.364 272.571 115.364C271.871 115.364 271.278 115.649 270.793 116.218C270.317 116.787 270.079 117.567 270.079 118.556C270.079 119.555 270.312 120.343 270.779 120.922C271.255 121.491 271.862 121.776 272.599 121.776C273.224 121.776 273.733 121.589 274.125 121.216C274.517 120.833 274.769 120.39 274.881 119.886L275.301 120.012C275.142 120.647 274.82 121.165 274.335 121.566C273.859 121.967 273.28 122.168 272.599 122.168C271.722 122.168 271.008 121.841 270.457 121.188C269.916 120.525 269.645 119.648 269.645 118.556ZM276.837 118.36C276.837 117.324 277.112 116.503 277.663 115.896C278.213 115.28 278.885 114.972 279.679 114.972C280.509 114.972 281.186 115.266 281.709 115.854C282.231 116.433 282.493 117.193 282.493 118.136C282.493 118.257 282.488 118.369 282.479 118.472H277.271C277.271 119.601 277.495 120.437 277.943 120.978C278.4 121.51 278.988 121.776 279.707 121.776C280.285 121.776 280.78 121.617 281.191 121.3C281.611 120.973 281.895 120.581 282.045 120.124L282.437 120.306C282.278 120.791 281.956 121.225 281.471 121.608C280.985 121.981 280.397 122.168 279.707 122.168C278.811 122.168 278.106 121.846 277.593 121.202C277.089 120.558 276.837 119.611 276.837 118.36ZM277.257 118.094H282.087C282.087 117.226 281.853 116.554 281.387 116.078C280.92 115.602 280.351 115.364 279.679 115.364C278.96 115.364 278.381 115.625 277.943 116.148C277.513 116.661 277.285 117.31 277.257 118.094ZM284.22 123.498L284.976 122H284.612V120.824H285.312V122L284.598 123.498H284.22ZM98.009 134.404C98.009 133.564 98.443 132.901 99.311 132.416C100.188 131.921 101.299 131.651 102.643 131.604V131.114C102.643 130.601 102.47 130.181 102.125 129.854C101.789 129.527 101.294 129.364 100.641 129.364C99.4276 129.364 98.653 129.835 98.317 130.778L97.925 130.61C98.0556 130.181 98.3543 129.803 98.821 129.476C99.2876 129.14 99.8943 128.972 100.641 128.972C101.472 128.972 102.078 129.182 102.461 129.602C102.853 130.013 103.049 130.545 103.049 131.198V134.74C103.049 135.02 103.114 135.235 103.245 135.384C103.385 135.533 103.567 135.608 103.791 135.608H104.365V136H103.847C103.446 136 103.156 135.893 102.979 135.678C102.811 135.454 102.736 135.071 102.755 134.53H102.461C102.004 135.622 101.206 136.168 100.067 136.168C99.4416 136.168 98.9423 136.014 98.569 135.706C98.1956 135.389 98.009 134.955 98.009 134.404ZM102.643 132.822V131.968C101.392 132.024 100.38 132.262 99.605 132.682C98.8303 133.102 98.443 133.676 98.443 134.404C98.443 134.815 98.5923 135.146 98.891 135.398C99.1896 135.65 99.591 135.776 100.095 135.776C100.786 135.776 101.383 135.524 101.887 135.02C102.391 134.507 102.643 133.774 102.643 132.822ZM105.937 136V129.14H106.329C106.329 129.821 106.254 130.4 106.105 130.876H106.441C106.59 130.353 106.842 129.905 107.197 129.532C107.542 129.159 108.074 128.972 108.793 128.972C109.642 128.972 110.277 129.233 110.697 129.756C111.117 130.279 111.327 130.96 111.327 131.8V136H110.907V131.912C110.907 131.1 110.72 130.475 110.347 130.036C109.974 129.588 109.446 129.364 108.765 129.364C108.317 129.355 107.925 129.453 107.589 129.658C107.262 129.854 107.01 130.12 106.833 130.456C106.665 130.783 106.539 131.114 106.455 131.45C106.38 131.786 106.343 132.127 106.343 132.472V136H105.937ZM114.311 135.23C113.761 134.595 113.485 133.709 113.485 132.57C113.485 131.431 113.761 130.549 114.311 129.924C114.862 129.289 115.534 128.972 116.327 128.972C116.897 128.972 117.382 129.145 117.783 129.49C118.194 129.826 118.474 130.241 118.623 130.736H118.945C118.852 130.307 118.801 130.064 118.791 130.008C118.773 129.784 118.763 129.56 118.763 129.336V126.2H119.169V136H118.777C118.777 135.683 118.787 135.403 118.805 135.16C118.824 135.048 118.875 134.796 118.959 134.404H118.623C118.474 134.908 118.199 135.328 117.797 135.664C117.396 136 116.906 136.168 116.327 136.168C115.534 136.168 114.862 135.855 114.311 135.23ZM118.105 134.95C118.563 134.399 118.791 133.606 118.791 132.57C118.791 131.534 118.563 130.741 118.105 130.19C117.648 129.639 117.065 129.364 116.355 129.364C115.665 129.364 115.086 129.644 114.619 130.204C114.153 130.764 113.919 131.553 113.919 132.57C113.919 133.597 114.148 134.39 114.605 134.95C115.072 135.501 115.655 135.776 116.355 135.776C117.065 135.776 117.648 135.501 118.105 134.95ZM125.53 134.404C125.53 133.564 125.964 132.901 126.832 132.416C127.71 131.921 128.82 131.651 130.164 131.604V131.114C130.164 130.601 129.992 130.181 129.646 129.854C129.31 129.527 128.816 129.364 128.162 129.364C126.949 129.364 126.174 129.835 125.838 130.778L125.446 130.61C125.577 130.181 125.876 129.803 126.342 129.476C126.809 129.14 127.416 128.972 128.162 128.972C128.993 128.972 129.6 129.182 129.982 129.602C130.374 130.013 130.57 130.545 130.57 131.198V134.74C130.57 135.02 130.636 135.235 130.766 135.384C130.906 135.533 131.088 135.608 131.312 135.608H131.886V136H131.368C130.967 136 130.678 135.893 130.5 135.678C130.332 135.454 130.258 135.071 130.276 134.53H129.982C129.525 135.622 128.727 136.168 127.588 136.168C126.963 136.168 126.464 136.014 126.09 135.706C125.717 135.389 125.53 134.955 125.53 134.404ZM130.164 132.822V131.968C128.914 132.024 127.901 132.262 127.126 132.682C126.352 133.102 125.964 133.676 125.964 134.404C125.964 134.815 126.114 135.146 126.412 135.398C126.711 135.65 127.112 135.776 127.616 135.776C128.307 135.776 128.904 135.524 129.408 135.02C129.912 134.507 130.164 133.774 130.164 132.822ZM133.347 133.424V129.14H133.753V133.284C133.753 134.115 133.93 134.74 134.285 135.16C134.649 135.571 135.157 135.776 135.811 135.776C136.529 135.776 137.103 135.501 137.533 134.95C137.962 134.39 138.177 133.62 138.177 132.64V129.14H138.583V136H138.177C138.177 135.449 138.251 134.875 138.401 134.278H138.079C137.948 134.745 137.719 135.174 137.393 135.566C137.057 135.967 136.534 136.168 135.825 136.168C135.003 136.168 134.383 135.93 133.963 135.454C133.552 134.978 133.347 134.301 133.347 133.424ZM141.682 135.23C141.132 134.595 140.856 133.709 140.856 132.57C140.856 131.431 141.132 130.549 141.682 129.924C142.233 129.289 142.905 128.972 143.698 128.972C144.268 128.972 144.753 129.145 145.154 129.49C145.565 129.826 145.845 130.241 145.994 130.736H146.316C146.223 130.307 146.172 130.064 146.162 130.008C146.144 129.784 146.134 129.56 146.134 129.336V126.2H146.54V136H146.148C146.148 135.683 146.158 135.403 146.176 135.16C146.195 135.048 146.246 134.796 146.33 134.404H145.994C145.845 134.908 145.57 135.328 145.168 135.664C144.767 136 144.277 136.168 143.698 136.168C142.905 136.168 142.233 135.855 141.682 135.23ZM145.476 134.95C145.934 134.399 146.162 133.606 146.162 132.57C146.162 131.534 145.934 130.741 145.476 130.19C145.019 129.639 144.436 129.364 143.726 129.364C143.036 129.364 142.457 129.644 141.99 130.204C141.524 130.764 141.29 131.553 141.29 132.57C141.29 133.597 141.519 134.39 141.976 134.95C142.443 135.501 143.026 135.776 143.726 135.776C144.436 135.776 145.019 135.501 145.476 134.95ZM149.345 127.432V126.2H149.751V127.432H149.345ZM149.345 136V129.14H149.751L149.765 136H149.345ZM152.012 132.584C152.012 131.464 152.325 130.582 152.95 129.938C153.575 129.294 154.308 128.972 155.148 128.972C155.988 128.972 156.721 129.294 157.346 129.938C157.971 130.582 158.284 131.464 158.284 132.584C158.284 133.713 157.971 134.595 157.346 135.23C156.73 135.855 155.997 136.168 155.148 136.168C154.299 136.168 153.561 135.855 152.936 135.23C152.32 134.595 152.012 133.713 152.012 132.584ZM157.85 132.584C157.85 131.604 157.584 130.825 157.052 130.246C156.52 129.658 155.885 129.364 155.148 129.364C154.411 129.364 153.776 129.658 153.244 130.246C152.712 130.825 152.446 131.604 152.446 132.584C152.446 133.573 152.712 134.353 153.244 134.922C153.776 135.491 154.411 135.776 155.148 135.776C155.885 135.776 156.52 135.491 157.052 134.922C157.584 134.353 157.85 133.573 157.85 132.584ZM164.603 138.73V129.14H164.995C164.995 129.513 164.981 129.793 164.953 129.98C164.944 130.092 164.897 130.344 164.813 130.736H165.149C165.298 130.241 165.574 129.826 165.975 129.49C166.386 129.145 166.876 128.972 167.445 128.972C168.238 128.972 168.91 129.285 169.461 129.91C170.012 130.535 170.287 131.422 170.287 132.57C170.287 133.718 170.012 134.605 169.461 135.23C168.91 135.855 168.238 136.168 167.445 136.168C166.866 136.168 166.376 136 165.975 135.664C165.574 135.328 165.298 134.908 165.149 134.404H164.827C164.92 134.759 164.972 135.001 164.981 135.132C165 135.356 165.009 135.58 165.009 135.804V138.73H164.603ZM169.153 134.95C169.62 134.39 169.853 133.597 169.853 132.57C169.853 131.543 169.62 130.755 169.153 130.204C168.686 129.644 168.108 129.364 167.417 129.364C166.698 129.364 166.11 129.639 165.653 130.19C165.205 130.741 164.981 131.534 164.981 132.57C164.981 133.606 165.205 134.399 165.653 134.95C166.11 135.501 166.698 135.776 167.417 135.776C168.108 135.776 168.686 135.501 169.153 134.95ZM172.56 136V129.14H172.952C172.952 129.747 172.891 130.344 172.77 130.932H173.092C173.204 130.372 173.437 129.919 173.792 129.574C174.147 129.229 174.618 129.056 175.206 129.056C175.635 129.056 175.99 129.103 176.27 129.196V129.602C175.887 129.518 175.528 129.476 175.192 129.476C174.445 129.476 173.885 129.803 173.512 130.456C173.139 131.1 172.952 131.903 172.952 132.864V136H172.56ZM176.813 132.584C176.813 131.464 177.125 130.582 177.751 129.938C178.376 129.294 179.109 128.972 179.949 128.972C180.789 128.972 181.521 129.294 182.147 129.938C182.772 130.582 183.085 131.464 183.085 132.584C183.085 133.713 182.772 134.595 182.147 135.23C181.531 135.855 180.798 136.168 179.949 136.168C179.099 136.168 178.362 135.855 177.737 135.23C177.121 134.595 176.813 133.713 176.813 132.584ZM182.651 132.584C182.651 131.604 182.385 130.825 181.853 130.246C181.321 129.658 180.686 129.364 179.949 129.364C179.211 129.364 178.577 129.658 178.045 130.246C177.513 130.825 177.247 131.604 177.247 132.584C177.247 133.573 177.513 134.353 178.045 134.922C178.577 135.491 179.211 135.776 179.949 135.776C180.686 135.776 181.321 135.491 181.853 134.922C182.385 134.353 182.651 133.573 182.651 132.584ZM184.784 132.556C184.784 131.529 185.054 130.675 185.596 129.994C186.137 129.313 186.842 128.972 187.71 128.972C188.4 128.972 188.984 129.159 189.46 129.532C189.936 129.896 190.244 130.339 190.384 130.862L189.964 130.988C189.833 130.512 189.567 130.125 189.166 129.826C188.774 129.518 188.288 129.364 187.71 129.364C187.01 129.364 186.417 129.649 185.932 130.218C185.456 130.787 185.218 131.567 185.218 132.556C185.218 133.555 185.451 134.343 185.918 134.922C186.394 135.491 187 135.776 187.738 135.776C188.363 135.776 188.872 135.589 189.264 135.216C189.656 134.833 189.908 134.39 190.02 133.886L190.44 134.012C190.281 134.647 189.959 135.165 189.474 135.566C188.998 135.967 188.419 136.168 187.738 136.168C186.86 136.168 186.146 135.841 185.596 135.188C185.054 134.525 184.784 133.648 184.784 132.556ZM191.975 132.36C191.975 131.324 192.251 130.503 192.801 129.896C193.352 129.28 194.024 128.972 194.817 128.972C195.648 128.972 196.325 129.266 196.847 129.854C197.37 130.433 197.631 131.193 197.631 132.136C197.631 132.257 197.627 132.369 197.617 132.472H192.409C192.409 133.601 192.633 134.437 193.081 134.978C193.539 135.51 194.127 135.776 194.845 135.776C195.424 135.776 195.919 135.617 196.329 135.3C196.749 134.973 197.034 134.581 197.183 134.124L197.575 134.306C197.417 134.791 197.095 135.225 196.609 135.608C196.124 135.981 195.536 136.168 194.845 136.168C193.949 136.168 193.245 135.846 192.731 135.202C192.227 134.558 191.975 133.611 191.975 132.36ZM192.395 132.094H197.225C197.225 131.226 196.992 130.554 196.525 130.078C196.059 129.602 195.489 129.364 194.817 129.364C194.099 129.364 193.52 129.625 193.081 130.148C192.652 130.661 192.423 131.31 192.395 132.094ZM199.177 134.222L199.583 134.082C199.63 134.53 199.854 134.927 200.255 135.272C200.666 135.608 201.179 135.776 201.795 135.776C202.467 135.776 202.98 135.641 203.335 135.37C203.699 135.099 203.881 134.754 203.881 134.334C203.881 133.951 203.741 133.629 203.461 133.368C203.19 133.097 202.812 132.901 202.327 132.78L201.291 132.514C200.703 132.355 200.25 132.145 199.933 131.884C199.625 131.623 199.471 131.249 199.471 130.764C199.471 130.251 199.686 129.826 200.115 129.49C200.544 129.145 201.095 128.972 201.767 128.972C202.392 128.972 202.906 129.126 203.307 129.434C203.718 129.733 203.984 130.106 204.105 130.554L203.713 130.722C203.648 130.377 203.442 130.064 203.097 129.784C202.752 129.504 202.308 129.364 201.767 129.364C201.179 129.364 200.717 129.495 200.381 129.756C200.054 130.017 199.891 130.33 199.891 130.694C199.891 131.394 200.33 131.847 201.207 132.052L202.257 132.318C203.629 132.663 204.315 133.335 204.315 134.334C204.315 134.875 204.105 135.319 203.685 135.664C203.265 136 202.635 136.168 201.795 136.168C201.011 136.168 200.395 135.981 199.947 135.608C199.508 135.235 199.252 134.773 199.177 134.222ZM205.794 134.222L206.2 134.082C206.247 134.53 206.471 134.927 206.872 135.272C207.283 135.608 207.796 135.776 208.412 135.776C209.084 135.776 209.597 135.641 209.952 135.37C210.316 135.099 210.498 134.754 210.498 134.334C210.498 133.951 210.358 133.629 210.078 133.368C209.807 133.097 209.429 132.901 208.944 132.78L207.908 132.514C207.32 132.355 206.867 132.145 206.55 131.884C206.242 131.623 206.088 131.249 206.088 130.764C206.088 130.251 206.303 129.826 206.732 129.49C207.161 129.145 207.712 128.972 208.384 128.972C209.009 128.972 209.523 129.126 209.924 129.434C210.335 129.733 210.601 130.106 210.722 130.554L210.33 130.722C210.265 130.377 210.059 130.064 209.714 129.784C209.369 129.504 208.925 129.364 208.384 129.364C207.796 129.364 207.334 129.495 206.998 129.756C206.671 130.017 206.508 130.33 206.508 130.694C206.508 131.394 206.947 131.847 207.824 132.052L208.874 132.318C210.246 132.663 210.932 133.335 210.932 134.334C210.932 134.875 210.722 135.319 210.302 135.664C209.882 136 209.252 136.168 208.412 136.168C207.628 136.168 207.012 135.981 206.564 135.608C206.125 135.235 205.869 134.773 205.794 134.222ZM213.097 127.432V126.2H213.503V127.432H213.097ZM213.097 136V129.14H213.503L213.517 136H213.097ZM216.324 136V129.14H216.716C216.716 129.821 216.641 130.4 216.492 130.876H216.828C216.977 130.353 217.229 129.905 217.584 129.532C217.929 129.159 218.461 128.972 219.18 128.972C220.029 128.972 220.664 129.233 221.084 129.756C221.504 130.279 221.714 130.96 221.714 131.8V136H221.294V131.912C221.294 131.1 221.107 130.475 220.734 130.036C220.36 129.588 219.833 129.364 219.152 129.364C218.704 129.355 218.312 129.453 217.976 129.658C217.649 129.854 217.397 130.12 217.22 130.456C217.052 130.783 216.926 131.114 216.842 131.45C216.767 131.786 216.73 132.127 216.73 132.472V136H216.324ZM223.578 137.442C223.578 136.817 223.914 136.359 224.586 136.07V135.748C224.138 135.636 223.914 135.384 223.914 134.992C223.914 134.413 224.292 133.965 225.048 133.648V133.34C224.441 132.845 224.138 132.211 224.138 131.436C224.138 130.736 224.371 130.153 224.838 129.686C225.305 129.21 225.916 128.972 226.672 128.972C227.167 128.972 227.596 129.098 227.96 129.35C228.333 129.593 228.604 129.943 228.772 130.4H229.094C229.075 129.989 229.155 129.677 229.332 129.462C229.519 129.247 229.785 129.14 230.13 129.14H230.634V129.532H230.242C230.102 129.532 229.981 129.546 229.878 129.574C229.785 129.593 229.682 129.644 229.57 129.728C229.458 129.803 229.374 129.929 229.318 130.106C229.262 130.283 229.234 130.507 229.234 130.778V131.38C229.234 132.155 228.991 132.78 228.506 133.256C228.021 133.723 227.4 133.956 226.644 133.956C226.159 133.956 225.734 133.858 225.37 133.662C225.062 133.802 224.81 133.989 224.614 134.222C224.427 134.455 224.334 134.693 224.334 134.936C224.334 135.393 224.633 135.622 225.23 135.622H228.422C228.991 135.622 229.453 135.762 229.808 136.042C230.172 136.322 230.354 136.7 230.354 137.176C230.354 137.689 230.191 138.077 229.864 138.338C229.537 138.599 229.108 138.73 228.576 138.73H225.23C224.129 138.73 223.578 138.301 223.578 137.442ZM228.814 131.464C228.814 130.867 228.609 130.367 228.198 129.966C227.787 129.565 227.279 129.364 226.672 129.364C226.037 129.364 225.524 129.565 225.132 129.966C224.74 130.358 224.544 130.857 224.544 131.464C224.544 132.08 224.731 132.589 225.104 132.99C225.487 133.382 226 133.578 226.644 133.578C227.279 133.578 227.797 133.382 228.198 132.99C228.609 132.589 228.814 132.08 228.814 131.464ZM225.384 138.352H228.506C229.449 138.352 229.92 137.96 229.92 137.176C229.92 136.793 229.775 136.499 229.486 136.294C229.206 136.098 228.809 136 228.296 136H224.992C224.759 136.112 224.53 136.303 224.306 136.574C224.091 136.845 223.984 137.115 223.984 137.386C223.984 137.703 224.087 137.941 224.292 138.1C224.507 138.268 224.871 138.352 225.384 138.352ZM232.014 136V134.824H232.714V136H232.014Z" fill="white"/>
</svg>
